<svg width="1440" height="302" viewBox="0 0 1440 302" fill="none" xmlns="http://www.w3.org/2000/svg">
<g filter="url(#filter0_f_128_287)">
<circle cx="1194.24" cy="90.989" r="1.80296" fill="#F4EEDD" fill-opacity="0.4"/>
<circle cx="862.61" cy="87.7239" r="1.80296" fill="#F4EEDD" fill-opacity="0.4"/>
<circle cx="767.861" cy="241.959" r="1.80296" fill="#F4EEDD" fill-opacity="0.4"/>
<circle cx="1285.39" cy="207.458" r="1.80296" fill="#F4EEDD" fill-opacity="0.4"/>
<circle cx="897.242" cy="216.314" r="1.80296" fill="#F4EEDD" fill-opacity="0.4"/>
<circle cx="931.992" cy="261.711" r="1.80296" fill="#F4EEDD" fill-opacity="0.4"/>
<circle cx="1262.47" cy="131.073" r="1.12954" fill="#F4EEDD" fill-opacity="0.4"/>
<circle cx="1354.05" cy="63.4953" r="1.12954" fill="#F4EEDD" fill-opacity="0.4"/>
<circle cx="1347.78" cy="214.747" r="1.12954" fill="#F4EEDD" fill-opacity="0.4"/>
<circle cx="1221.11" cy="247.888" r="1.12954" fill="#F4EEDD" fill-opacity="0.4"/>
<circle cx="1172.42" cy="197.29" r="1.12954" fill="#F4EEDD" fill-opacity="0.4"/>
<circle cx="897.242" cy="60.2299" r="1.12954" fill="#F4EEDD" fill-opacity="0.4"/>
<circle cx="980.841" cy="186.933" r="1.12954" fill="#F4EEDD" fill-opacity="0.4"/>
<circle cx="1050.55" cy="49.5749" r="1.12954" fill="#F4EEDD" fill-opacity="0.4"/>
<circle cx="958.089" cy="92.7921" r="1.12954" fill="#F4EEDD" fill-opacity="0.4"/>
<circle cx="1118.8" cy="90.9889" r="3.26528" fill="#F4EEDD" fill-opacity="0.4"/>
<circle cx="797.001" cy="40.6217" r="3.26528" fill="#F4EEDD" fill-opacity="0.4"/>
<circle cx="1368.64" cy="256.642" r="3.26528" fill="#F4EEDD" fill-opacity="0.4"/>
<circle cx="1362.11" cy="114.36" r="3.26528" fill="#F4EEDD" fill-opacity="0.4"/>
<circle cx="1096.05" cy="243.762" r="2.40466" fill="#F4EEDD" fill-opacity="0.4"/>
<circle cx="1034.3" cy="147.79" r="3.26528" fill="#F4EEDD" fill-opacity="0.4"/>
<circle cx="999.03" cy="261.711" r="3.26528" fill="#F4EEDD" fill-opacity="0.4"/>
<circle cx="441.826" cy="61.2065" r="1.80296" fill="#F4EEDD" fill-opacity="0.4"/>
<circle cx="189.593" cy="115.822" r="1.80296" fill="#F4EEDD" fill-opacity="0.4"/>
<circle cx="104.351" cy="241.959" r="1.80296" fill="#F4EEDD" fill-opacity="0.4"/>
<circle cx="338.175" cy="178.22" r="1.80296" fill="#F4EEDD" fill-opacity="0.4"/>
<circle cx="150.832" cy="175.306" r="1.80296" fill="#F4EEDD" fill-opacity="0.4"/>
<circle cx="268.482" cy="261.711" r="1.80296" fill="#F4EEDD" fill-opacity="0.4"/>
<circle cx="599.693" cy="71.234" r="1.12954" fill="#F4EEDD" fill-opacity="0.4"/>
<circle cx="690.543" cy="63.4953" r="1.12954" fill="#F4EEDD" fill-opacity="0.4"/>
<circle cx="458.339" cy="273.199" r="1.12954" fill="#F4EEDD" fill-opacity="0.4"/>
<circle cx="589.78" cy="263.514" r="1.12954" fill="#F4EEDD" fill-opacity="0.4"/>
<circle cx="69.2233" cy="146.507" r="1.12954" fill="#F4EEDD" fill-opacity="0.4"/>
<circle cx="349.509" cy="232.275" r="1.12954" fill="#F4EEDD" fill-opacity="0.4"/>
<circle cx="248.952" cy="204.525" r="1.12954" fill="#F4EEDD" fill-opacity="0.4"/>
<circle cx="357.883" cy="45.0168" r="1.12954" fill="#F4EEDD" fill-opacity="0.4"/>
<circle cx="374.356" cy="125.074" r="1.12954" fill="#F4EEDD" fill-opacity="0.4"/>
<circle cx="417.365" cy="203.395" r="3.26528" fill="#F4EEDD" fill-opacity="0.4"/>
<circle cx="516.461" cy="82.6557" r="3.26528" fill="#F4EEDD" fill-opacity="0.4"/>
<circle cx="73.6183" cy="59.1002" r="3.26528" fill="#F4EEDD" fill-opacity="0.4"/>
<circle cx="705.131" cy="256.642" r="3.26528" fill="#F4EEDD" fill-opacity="0.4"/>
<circle cx="214.342" cy="158.095" r="3.26528" fill="#F4EEDD" fill-opacity="0.4"/>
<circle cx="510.791" cy="243.762" r="2.40466" fill="#F4EEDD" fill-opacity="0.4"/>
<circle cx="271.747" cy="74.4996" r="3.26528" fill="#F4EEDD" fill-opacity="0.4"/>
</g>
<defs>
<filter id="filter0_f_128_287" x="67.0938" y="36.3564" width="1305.81" height="238.972" filterUnits="userSpaceOnUse" color-interpolation-filters="sRGB">
<feFlood flood-opacity="0" result="BackgroundImageFix"/>
<feBlend mode="normal" in="SourceGraphic" in2="BackgroundImageFix" result="shape"/>
<feGaussianBlur stdDeviation="0.5" result="effect1_foregroundBlur_128_287"/>
</filter>
</defs>
</svg>
