<svg preserveAspectRatio="none" viewBox="0 0 1080 1080" fill="none" xmlns="http://www.w3.org/2000/svg">
<g clip-path="url(#clip0_124_330)">
<path d="M1080 540L-0.131104 1080V0L1080 540Z" fill="#FFDDE1"/>
<mask id="mask0_124_330" style="mask-type:alpha" maskUnits="userSpaceOnUse" x="-1" y="0" width="1081" height="1080">
<path d="M1080 540L-0.130981 1080V0L1080 540Z" fill="#C4C4C4"/>
</mask>
<g mask="url(#mask0_124_330)">
<path fill-rule="evenodd" clip-rule="evenodd" d="M-0.130981 1080H1080V939.932H1079.28H279.593V140.068H1079.28H1080V0H-0.130981V1080Z" fill="#5E3AF5"/>
<path fill-rule="evenodd" clip-rule="evenodd" d="M-0.130981 1080H1080V939.932H1079.28H279.593V140.068H1079.28H1080V0H-0.130981V1080Z" fill="url(#paint0_linear_124_330)"/>
<g filter="url(#filter0_i_124_330)">
<path fill-rule="evenodd" clip-rule="evenodd" d="M114.796 1022.58H1080V983.071H193.186V96.9291H1080V57.4168H114.796V1022.58Z" fill="#FFDDE1"/>
</g>
<path fill-rule="evenodd" clip-rule="evenodd" d="M1080 1080H-0.130981V0H1080V57.4168H114.796V1022.58H1080V1080Z" fill="url(#paint1_linear_124_330)"/>
<g filter="url(#filter1_i_124_330)">
<path fill-rule="evenodd" clip-rule="evenodd" d="M1079.28 940.193H1878.96V139.807H1079.28H279.592V940.193H1079.28ZM1554.74 776.827H1080H605.256V303.172H1080H1554.74V776.827Z" fill="#FFDDE1"/>
</g>
</g>
</g>
<defs>
<filter id="filter0_i_124_330" x="114.796" y="57.4168" width="993.204" height="965.166" filterUnits="userSpaceOnUse" color-interpolation-filters="sRGB">
<feFlood flood-opacity="0" result="BackgroundImageFix"/>
<feBlend mode="normal" in="SourceGraphic" in2="BackgroundImageFix" result="shape"/>
<feColorMatrix in="SourceAlpha" type="matrix" values="0 0 0 0 0 0 0 0 0 0 0 0 0 0 0 0 0 0 127 0" result="hardAlpha"/>
<feOffset dx="28"/>
<feGaussianBlur stdDeviation="24.5"/>
<feComposite in2="hardAlpha" operator="arithmetic" k2="-1" k3="1"/>
<feColorMatrix type="matrix" values="0 0 0 0 1 0 0 0 0 0.537255 0 0 0 0 0.215686 0 0 0 1 0"/>
<feBlend mode="normal" in2="shape" result="effect1_innerShadow_124_330"/>
</filter>
<filter id="filter1_i_124_330" x="260.592" y="139.807" width="1618.37" height="800.385" filterUnits="userSpaceOnUse" color-interpolation-filters="sRGB">
<feFlood flood-opacity="0" result="BackgroundImageFix"/>
<feBlend mode="normal" in="SourceGraphic" in2="BackgroundImageFix" result="shape"/>
<feColorMatrix in="SourceAlpha" type="matrix" values="0 0 0 0 0 0 0 0 0 0 0 0 0 0 0 0 0 0 127 0" result="hardAlpha"/>
<feOffset dx="-19"/>
<feGaussianBlur stdDeviation="54"/>
<feComposite in2="hardAlpha" operator="arithmetic" k2="-1" k3="1"/>
<feColorMatrix type="matrix" values="0 0 0 0 1 0 0 0 0 0.537255 0 0 0 0 0.215686 0 0 0 1 0"/>
<feBlend mode="normal" in2="shape" result="effect1_innerShadow_124_330"/>
</filter>
<linearGradient id="paint0_linear_124_330" x1="284.87" y1="507.501" x2="227.005" y2="507.501" gradientUnits="userSpaceOnUse">
<stop stop-color="#60CBEE" stop-opacity="0.8"/>
<stop offset="1" stop-color="#60CBEE" stop-opacity="0"/>
</linearGradient>
<linearGradient id="paint1_linear_124_330" x1="158.355" y1="507.501" x2="-21.2314" y2="507.501" gradientUnits="userSpaceOnUse">
<stop stop-color="#EBAFFC"/>
<stop offset="0.895833" stop-color="#EBAFFC" stop-opacity="0"/>
</linearGradient>
<clipPath id="clip0_124_330">
<rect width="1080" height="1080" fill="white"/>
</clipPath>
</defs>
</svg>
