<svg width="230" height="231" viewBox="0 0 230 231" fill="none" xmlns="http://www.w3.org/2000/svg">
<g clip-path="url(#clip0_352_2855)">
<mask id="mask0_352_2855" style="mask-type:alpha" maskUnits="userSpaceOnUse" x="26" y="34" width="178" height="167">
<path d="M26.6016 147.216L159.546 34.9994L203.146 200.108L26.6016 147.216Z" fill="#C4C4C4"/>
</mask>
<g mask="url(#mask0_352_2855)">
<rect width="353.528" height="176.764" transform="translate(-80.123 61.846) rotate(-6.65868)" fill="url(#paint0_linear_352_2855)"/>
<rect width="353.528" height="176.764" transform="translate(-80.123 61.846) rotate(-6.65868)" fill="url(#paint1_linear_352_2855)"/>
<g opacity="0.3">
<path d="M441.752 317.491C436.664 310.296 433.266 302.152 428.907 294.544C421.898 282.312 411.19 278.279 397.806 279.466C393.216 279.874 388.614 280.147 384.028 280.597C374.105 281.572 365.355 278.637 357.999 272.14C342.156 258.15 324.849 246.193 307.276 234.544C301.641 230.808 296.94 225.858 292.927 220.352C280.12 202.777 280.853 184.523 290.61 166.067C294.343 159.008 298.804 152.331 302.988 145.514C309.843 134.347 312.042 122.522 308.537 109.713C306.833 103.486 305.503 97.1538 304.086 90.8512C301.623 79.8922 304.503 69.1252 305.425 58.301C306.995 39.8663 296.673 31.8114 279.7 32.6428C271.176 33.0603 263.504 36.4485 256.081 40.1083C235.983 50.0199 215.405 49.8942 194.514 43.6443C181.941 39.8829 169.861 34.8994 159.077 27.1752C156.673 25.4525 154.481 23.5404 152.622 21.2819C148.452 16.2189 148.621 10.6396 153.322 6.00345C161.999 -2.55393 170.425 -11.163 175.438 -22.6532C181.204 -35.8745 179.29 -49.2842 169.423 -57.7095C164.388 -62.0094 158.014 -63.6417 151.836 -65.5418C150.073 -66.084 148.249 -66.423 146.464 -66.8968C135.274 -69.8694 131.937 -76.6015 135.12 -88.4446C136.371 -93.102 139.214 -97.0583 142.309 -100.721C151.765 -111.907 162.759 -121.116 176.369 -126.925C185.046 -130.629 193.972 -130.871 203.02 -128.773C207.965 -127.626 212.847 -126.204 217.755 -124.904C226.468 -122.596 234.73 -123.414 242.676 -127.946C251.078 -132.737 258.411 -138.804 264.528 -146.196C272.037 -155.27 271.152 -164.897 261.77 -174.127C247.836 -187.836 232.915 -200.466 217.016 -211.825C206.004 -219.694 196.307 -228.669 188.439 -239.703C183.076 -247.225 177.367 -254.48 168.498 -258.361C160.625 -261.806 152.335 -261.682 144.008 -261.651C133.495 -261.612 124.502 -265.428 117.019 -272.8C114.607 -275.176 111.967 -277.382 109.879 -280.019C100.404 -291.983 87.5082 -297.895 73.1341 -301.405C68.0564 -302.646 62.9944 -304.031 58.0441 -305.702C46.9142 -309.459 42.9523 -317.658 46.4579 -328.965C48.1187 -334.321 50.8317 -339.149 53.8125 -343.817C59.899 -353.352 64.3098 -363.646 68.0416 -374.268C70.7038 -381.845 73.8915 -389.229 78.3439 -395.895C86.4985 -408.106 91.7158 -421.479 95.1668 -435.639C95.3488 -436.387 95.5307 -437.136 95.7506 -437.873C100.786 -454.815 108.198 -460.339 125.894 -460.337C128.203 -460.337 130.518 -460.418 132.82 -460.281C140.441 -459.824 145.165 -455.141 146.266 -447.59C148.182 -434.452 144.272 -422.341 140.039 -410.267C138.868 -406.929 137.487 -403.665 136.251 -400.348C132.972 -391.543 132.602 -382.637 135.541 -373.675C140.196 -359.485 145.411 -345.535 152.393 -332.271C157.578 -322.421 165.757 -317.671 176.557 -317.23C186.075 -316.841 195.597 -316.894 205.132 -316.4C227.746 -315.23 247.421 -322.395 263.527 -338.807C271.701 -347.136 280.966 -354.358 288.34 -363.522C299.143 -376.949 301.331 -392.332 298.925 -408.776C297.268 -420.095 292.825 -430.704 290.233 -441.789C287.109 -455.15 287.24 -468.294 292.671 -481.155C298.76 -495.571 302.289 -510.623 304.061 -526.173C305.615 -539.817 310.529 -546.536 328.541 -549.814C344.862 -552.785 358.295 -547.519 369.779 -535.664C379.618 -525.507 389.3 -515.153 400.16 -506.013C411.678 -496.321 419.156 -483.533 426.752 -470.845C432.454 -461.323 440.727 -454.149 448.9 -446.897C460.635 -436.484 471.095 -425.068 476.925 -410.183C480.619 -400.749 486.453 -392.629 492.22 -384.464C495.902 -379.252 498.904 -373.785 500.304 -367.505C502.421 -358.01 498.681 -351.197 489.507 -347.931C479.073 -344.215 468.17 -342.007 457.899 -337.703C442.552 -331.271 430.446 -320.958 420.5 -307.837C415.109 -300.726 409.688 -293.681 406.322 -285.255C403.535 -278.28 403.712 -271.439 406.209 -264.559C408.465 -258.341 410.999 -252.222 413.266 -246.006C417.433 -234.578 418.955 -222.615 415.298 -211.084C408.871 -190.819 412.159 -172.194 420.951 -153.452C429.223 -135.819 438.242 -118.812 450.426 -103.514C461 -90.2375 474.845 -82.6815 491.026 -78.8785C503.131 -76.0334 515.905 -75.7914 527.334 -70.3793C545.038 -61.9965 560.535 -50.8582 569.532 -32.7339C571.978 -27.8067 573.512 -22.4011 575.202 -17.1312C581.407 2.21158 595.946 9.7861 616.401 5.72449C623.622 4.29087 630.753 2.50348 638.246 2.32705C647.567 2.1072 655.026 5.58039 661.355 11.9799C666.887 17.5731 672.594 22.9095 679.246 27.1882C695.419 37.593 713.366 35.4102 727.417 22.2582C747.455 3.50479 764.097 -17.8896 778.908 -40.8589C782.817 -46.9195 787.858 -52.1875 791.125 -58.7441C793.513 -63.5373 795.165 -68.5762 795.282 -73.7583C795.517 -84.0985 800.796 -89.8847 810.227 -92.8193C817.159 -94.9762 823.684 -98.1132 829.953 -101.763C838.558 -106.772 844.548 -114.43 850.277 -122.264C855.635 -129.59 860.636 -137.176 865.877 -144.588C871.827 -153.001 873.254 -162.303 871.677 -172.285C869.76 -184.42 867.123 -196.412 867.383 -208.877C867.578 -218.225 868.931 -227.221 871.477 -236.143C873.331 -242.642 875.505 -249.242 874.405 -256.052C872.369 -268.66 863.883 -275.763 852.529 -280.039C847.036 -282.108 841.321 -283.439 835.552 -284.392C816.814 -287.49 803.377 -297.301 795.64 -314.871C792.544 -321.9 788.972 -328.712 782.54 -333.541C774.14 -339.848 765.151 -341.152 755.634 -336.788C746.171 -332.446 742.534 -324.263 742.059 -314.377C741.703 -306.961 742.955 -299.625 744.085 -292.368C746.238 -278.539 743.254 -265.797 737.407 -253.432C731.47 -240.876 726.102 -228.135 724.793 -214.081C724.123 -206.896 723.422 -199.71 722.533 -192.549C720.304 -174.603 705.361 -170.048 691.342 -171.561C678.643 -172.931 668.767 -180.248 659.013 -187.474C648.396 -195.341 636.877 -201.035 623.794 -202.665C604.96 -205.011 590.337 -213.727 579.131 -229.01C570.388 -240.935 559.868 -251.353 549.35 -261.734C540.813 -270.162 535.567 -280.492 535.285 -292.474C535.039 -302.968 537.533 -311.59 549.755 -316.163C559.587 -319.841 570.003 -321.406 580.027 -324.42C591.934 -328 601.84 -334.13 608.659 -344.831C613.205 -351.965 617.855 -359.054 623.515 -365.388C631.339 -374.145 641.212 -380.085 651.455 -385.497C657.858 -388.88 664.125 -392.387 669.102 -397.888C672.737 -401.905 674.643 -406.538 674.39 -411.752C673.718 -425.55 673.079 -439.372 671.682 -453.109C670.392 -465.786 663.732 -476.216 655.832 -485.886C650.271 -492.694 643.892 -498.721 637.704 -504.93C636.168 -506.471 634.872 -508.143 633.885 -510.097C629.979 -517.824 631.395 -522.879 638.973 -526.985C646.69 -531.166 654.462 -535.234 661.156 -541.013C668.136 -547.039 673.689 -554.177 677.038 -562.795C680.731 -572.298 677.739 -581.847 669.584 -588.262C661.277 -594.796 651.783 -599.221 642.347 -603.74C634.3 -607.594 626.19 -611.316 618.078 -615.029C606.725 -620.226 601.456 -629.311 601.564 -641.501C601.667 -653.18 601.403 -664.846 602.141 -676.552C602.785 -686.761 601.481 -697.098 600.955 -707.373C600.435 -717.519 600.037 -727.627 602.039 -737.707C605.037 -752.793 614.511 -761.568 628.748 -765.938C635.263 -767.938 641.876 -769.165 648.734 -768.874C664.894 -768.189 681.01 -769.93 697.163 -769.795C713.793 -769.655 725.868 -762.205 733.727 -747.553C737.398 -740.709 739.658 -733.338 742.108 -726.076C746.105 -714.23 753.253 -705.241 764.32 -699.553C776.387 -693.35 787.76 -686.011 799.294 -678.921C807.86 -673.656 817.231 -671.714 827.204 -673.12C844.53 -675.563 848.472 -665.138 847.901 -652.259C847.636 -646.277 845.101 -640.906 842.546 -635.674C838.979 -628.373 839.639 -621.772 844.549 -615.397C850.589 -607.557 855.146 -598.844 859.628 -590.051C863.874 -581.719 869.837 -574.71 877.804 -569.579C878.709 -568.996 879.611 -568.397 880.45 -567.725C881.148 -567.166 882.111 -566.438 881.382 -565.489C880.654 -564.542 879.664 -565.284 878.926 -565.773C873.79 -569.168 868.821 -572.722 864.801 -577.518C858.483 -585.054 855.2 -594.331 850.051 -602.525C847.434 -606.69 844.612 -610.727 841.848 -614.798C837.755 -620.83 836.75 -627.239 839.449 -634.099C840.744 -637.391 842.037 -640.688 843.46 -643.925C845.901 -649.475 846.411 -655.176 845.03 -661.05C843.429 -667.864 837.156 -672.427 830.164 -671.353C816.051 -669.187 803.37 -672.309 791.686 -680.47C782.851 -686.64 773.566 -692.158 763.848 -696.824C749.309 -703.805 742.198 -716.275 737.791 -730.905C735.694 -737.866 732.937 -744.525 728.851 -750.588C721.213 -761.921 710.398 -767.691 696.908 -767.746C679.534 -767.817 662.173 -766.784 644.786 -766.739C635.784 -766.716 627.179 -763.735 619.408 -759.069C606.582 -751.368 603.211 -738.679 602.635 -725.015C602.104 -712.42 603.661 -699.855 604.267 -687.276C604.926 -673.605 603.295 -659.944 603.315 -646.242C603.337 -631.775 608.74 -621.72 622.305 -615.572C636.299 -609.228 650.662 -603.545 663.8 -595.419C670.244 -591.432 676.503 -587.231 679.293 -579.585C682.997 -569.431 679.758 -560.582 674.369 -552.089C666.926 -540.361 655.963 -532.769 643.85 -526.767C634.382 -522.074 628.616 -518.081 640.843 -505.593C650.208 -496.029 659.933 -486.803 666.606 -474.982C671.616 -466.106 674.626 -456.643 674.545 -446.404C674.469 -436.696 675.028 -427.044 676.343 -417.44C678.117 -404.471 672.981 -394.996 661.929 -388.485C656.894 -385.519 651.819 -382.607 646.648 -379.888C633.345 -372.894 623.23 -362.61 615.219 -350.052C609.576 -341.207 603.852 -332.463 594.039 -327.437C587.954 -324.321 581.54 -322.284 574.973 -320.603C568.411 -318.924 561.78 -317.492 555.283 -315.592C540.568 -311.288 534.383 -300.121 538.518 -285.311C540.786 -277.183 544.685 -269.797 550.871 -263.974C564.236 -251.394 575.945 -237.329 587.665 -223.288C596.137 -213.14 607.112 -207.492 619.763 -205.869C638.332 -203.487 653.912 -195.209 668.454 -184.132C675.517 -178.752 683.338 -174.902 692.284 -173.664C703.702 -172.084 717.485 -177.597 720.039 -191.316C721.537 -199.365 721.997 -207.475 722.789 -215.568C724.131 -229.288 729 -241.897 734.987 -254.09C741.715 -267.788 744.333 -281.811 741.398 -297.036C739.78 -305.429 739.088 -314.092 741.043 -322.709C742.696 -329.994 746.779 -335.454 753.41 -338.451C767.294 -344.728 784.656 -341.748 794.262 -323.415C797.331 -317.557 800.213 -311.566 803.746 -305.993C811.009 -294.534 822.45 -289.512 835.148 -286.79C840.867 -285.565 846.63 -284.536 852.198 -282.698C872.098 -276.131 879.91 -262.411 875.371 -241.987C874.771 -239.284 874.106 -236.586 873.283 -233.944C868.65 -219.069 868.372 -203.997 871.056 -188.766C872.577 -180.14 874.385 -171.583 874.217 -162.706C874.112 -157.144 873.159 -151.898 870.354 -147.228C862.422 -134.025 853.557 -121.45 843.548 -109.73C835.46 -100.259 824.55 -95.1379 813.084 -91.3368C803.26 -88.0788 797.373 -82.6103 797.174 -71.5377C797.039 -64.0481 794.174 -56.9299 789.558 -51.0319C777.878 -36.1082 768.663 -19.4304 756.62 -4.80873C747.423 6.35725 737.436 16.9071 726.546 26.4039C711.169 39.8155 688.777 38.8714 671.832 25.277C666.047 20.6353 661.255 14.995 655.48 10.3634C648.306 4.60863 640.267 3.4272 631.544 4.96982C624.729 6.17528 617.962 7.77979 611.103 8.59359C595.656 10.4263 580.768 4.88206 574.561 -12.036C571.447 -20.5241 569.745 -29.6976 564.26 -37.1566C549.392 -57.3742 529.931 -70.3128 504.792 -74.1176C494.598 -75.6602 484.492 -77.4975 474.87 -81.5582C461.319 -87.277 451.418 -97.0518 442.998 -108.74C430.114 -126.626 420.797 -146.316 413.127 -166.87C408.502 -179.264 407.963 -191.867 411.778 -204.482C416.683 -220.702 415.632 -236.323 408.479 -251.688C405.957 -257.107 404.055 -262.787 402.756 -268.709C400.848 -277.407 402.833 -285.384 407.011 -292.709C422.29 -319.498 443.581 -338.829 474.501 -345.927C479.287 -347.026 484.008 -348.539 488.624 -350.228C497.053 -353.312 500.19 -359.592 497.776 -368.106C496.289 -373.347 493.619 -377.996 490.478 -382.43C484.61 -390.715 478.742 -398.982 474.93 -408.533C468.83 -423.815 458.081 -435.518 445.716 -445.998C434.102 -455.84 424.759 -467.522 417.462 -480.964C411.901 -491.207 403.58 -499.21 394.977 -507.028C385.191 -515.924 376.008 -525.491 366.704 -534.906C359.073 -542.63 350.237 -547.903 339.219 -548.387C330.306 -548.779 321.752 -546.999 314.269 -541.767C308.916 -538.024 306.879 -532.251 306.26 -526.206C304.458 -508.6 299.756 -491.841 293.174 -475.454C289.167 -465.48 289.25 -454.973 291.953 -444.584C294.626 -434.313 297.818 -424.166 300.179 -413.826C303.141 -400.858 302.669 -387.939 298.174 -375.238C296.015 -369.137 292.508 -363.829 288.259 -359.249C276.642 -346.727 264.223 -334.999 250.328 -324.979C241.451 -318.578 231.213 -316.407 220.484 -315.054C205.215 -313.13 190.086 -315.768 174.872 -315.379C161.087 -315.025 152.902 -323.696 147.738 -335.466C143.66 -344.759 140.184 -354.314 136.283 -363.687C129.759 -379.361 130.254 -394.725 137.25 -410.205C141.442 -419.48 144.124 -429.306 144.644 -439.59C145.235 -451.284 140.583 -458.99 127.86 -458.384C124.792 -458.238 121.684 -458.368 118.659 -457.928C105.562 -456.022 100.665 -446.318 97.4391 -435.166C94.5331 -425.121 92.657 -414.589 86.905 -405.71C76.6877 -389.94 70.1089 -372.566 63.0572 -355.338C60.6878 -349.55 56.9782 -344.305 53.8172 -338.849C51.9614 -335.645 50.2091 -332.404 48.9842 -328.899C45.3115 -318.385 48.4097 -311.578 59.0833 -307.921C66.2061 -305.48 73.5433 -303.658 80.8019 -301.624C92.6413 -298.305 102.686 -292.359 110.837 -282.91C118.519 -274.004 126.938 -265.836 139.485 -264.037C143.181 -263.507 146.867 -263.458 150.537 -263.633C165.929 -264.366 178.386 -258.71 186.966 -245.975C197.315 -230.612 211.124 -219.164 225.894 -208.395C239.05 -198.803 251.414 -188.119 263.014 -176.655C274.826 -164.982 274.67 -152.407 263.048 -140.657C258.923 -136.487 254.505 -132.733 249.754 -129.272C238.384 -120.991 226.143 -119.677 212.955 -123.753C207.524 -125.432 202.05 -127.031 196.358 -127.669C186.906 -128.727 178.32 -126.042 170.382 -121.254C159.628 -114.769 150.036 -106.853 142.533 -96.6694C140.72 -94.2086 139.126 -91.5178 137.859 -88.7374C133.65 -79.5066 136.927 -72.3422 146.634 -69.3096C150.745 -68.0256 154.964 -67.0788 159.049 -65.7219C176.878 -59.7971 183.985 -47.3083 179.829 -28.8283C177.441 -18.2092 171.819 -9.25463 164.388 -1.41498C161.424 1.71182 158.273 4.66222 155.269 7.753C150.801 12.3494 150.684 15.2823 155.08 20.0745C160.59 26.0797 167.578 30.0406 174.861 33.4104C190.616 40.7022 206.818 46.1559 224.545 45.9259C236.958 45.7652 247.916 41.0366 258.901 36.164C268.009 32.1245 277.261 29.5732 287.478 30.7353C303.487 32.5559 309.403 42.9875 307.41 58.6567C305.386 74.5641 304.614 90.0651 309.758 105.566C315.298 122.259 311.91 137.668 302.124 152.029C297.801 158.375 293.795 164.933 290.469 171.914C280.171 193.525 286.725 212.557 303.462 227.9C314.677 238.18 328.693 244.399 340.278 254.089C346.996 259.708 353.685 265.369 360.532 270.828C368.482 277.167 377.29 279.814 387.687 278.11C395.034 276.907 402.615 276.397 410.147 277.791C417.079 279.075 423.054 281.89 427.248 287.707C433.912 296.958 438.81 307.199 443.599 317.491C442.983 317.491 442.368 317.491 441.752 317.491Z" fill="#3718B9"/>
<path d="M624.649 317.491C625.556 308.786 626.653 300.096 627.329 291.373C628.555 275.549 630.053 259.871 636.481 245.013C640.137 236.564 643.045 227.779 645.052 218.711C647.744 206.551 643.584 196.627 634.77 188.858C623.597 179.011 611.191 170.609 600.364 160.31C597.914 157.979 595.377 155.74 592.865 153.476C584.782 146.192 574.946 143.655 564.421 143.006C556.011 142.488 548.237 139.934 540.533 136.536C516.482 125.927 492.491 115.112 467.161 107.754C462.252 106.329 457.22 105.878 452.093 105.988C436.923 106.313 428.949 116.305 432.172 131.154C433.959 139.388 437.806 146.816 441.885 154.031C451.711 171.411 457.073 190.275 461.318 209.576C463.269 218.446 465.413 227.234 464.956 236.461C464.574 244.151 462.658 247.239 455.005 248.498C447.446 249.741 439.764 250.35 432.111 250.886C416.485 251.983 400.846 252.874 385.208 253.793C365.37 254.959 348.18 247.736 332.066 237.018C324.516 231.996 316.945 227.144 310.269 220.828C291.212 202.8 290.867 181.735 303.868 162.189C305.489 159.754 307.01 157.247 308.746 154.896C319.545 140.268 324.978 124.169 321.497 105.93C318.334 89.3593 320.964 73.1913 323.932 56.9799C325.013 51.0681 325.421 45.1045 325.344 39.0745C325.161 24.6237 318.648 17.2524 304.171 16.5439C287.018 15.7043 270.428 18.4496 254.895 26.2107C245.372 30.9697 235.796 35.7204 224.935 36.3375C211.5 37.1005 199.138 33.9995 189.511 24.0187C181.335 15.5408 183.336 5.24399 185.725 -4.76272C187.938 -14.0351 191.666 -22.8954 193.434 -32.3109C196.672 -49.5486 192.954 -64.6311 179.902 -76.9222C178 -78.7133 176.104 -80.5534 174.483 -82.5911C170.883 -87.1183 168.441 -92.1387 171.117 -97.9342C174.056 -104.298 179.632 -106.914 186.345 -107.464C193.686 -108.066 200.877 -107.039 207.634 -104.29C225.341 -97.0853 241.596 -100.496 257.342 -110.077C269.809 -117.664 282.816 -123.609 298.006 -123.313C304.151 -123.192 308.207 -120.95 311.098 -115.732C316.272 -106.389 323.017 -98.5383 332.959 -93.9779C336.752 -92.2376 340.904 -90.0677 344.589 -93.5437C348.386 -97.125 348.024 -101.848 346.405 -106.473C343.819 -113.857 337.862 -117.555 331.036 -120.037C326.711 -121.61 322.229 -122.879 317.718 -123.786C311.653 -125.004 308.194 -128.569 307.05 -134.437C305.313 -143.344 304.026 -152.346 302.042 -161.195C299.505 -172.514 296.323 -183.584 286.931 -191.638C281.358 -196.416 274.941 -199.653 268.488 -202.907C254.762 -209.83 240.411 -215.473 227.352 -223.774C210.77 -234.314 203.955 -250.056 202.533 -268.777C202.234 -272.711 201.85 -276.638 202.251 -280.699C203.234 -290.634 208.808 -296.664 217.464 -300.367C223.12 -302.787 228.865 -305.033 234.677 -307.05C245.962 -310.964 255.504 -317.623 264.085 -325.683C274.397 -335.371 284.525 -345.26 294.582 -355.214C304.59 -365.12 308.987 -377.352 309.684 -391.324C310.449 -406.659 307.301 -421.294 303.162 -435.858C299.094 -450.173 299.132 -464.3 304.616 -478.397C308.966 -489.579 312.576 -501.045 316.705 -512.315C318.819 -518.09 321.075 -523.92 326.332 -527.742C335.917 -534.711 345.89 -534.38 355.746 -528.577C361.584 -525.141 366.55 -520.583 371.011 -515.359C376.795 -508.585 383.014 -502.172 389.236 -495.789C395.271 -489.6 401.039 -483.183 405.504 -475.785C414.339 -461.152 425.456 -448.535 438.336 -437.39C448.203 -428.852 454.518 -418.221 457.478 -405.487C459.464 -396.947 461.823 -388.494 464.031 -380.005C466.996 -368.602 463.166 -359.838 453.78 -353.107C444.663 -346.571 435.221 -340.497 426.886 -332.872C423.336 -329.625 420.465 -325.848 417.192 -322.404C408.516 -313.275 399.831 -304.103 391.872 -294.359C382.373 -282.732 382.268 -273.242 389.948 -260.39C393.341 -254.709 396.386 -248.818 398.703 -242.601C402.116 -233.439 401.911 -224.179 398.934 -214.981C395.805 -205.316 392.387 -195.746 390.29 -185.775C386.254 -166.582 390.57 -149.602 403.122 -134.467C409.203 -127.134 414.743 -119.324 418.904 -110.663C421.881 -104.466 423.475 -97.9619 423.341 -91.0404C423.092 -78.1526 416.592 -69.4687 404.1 -66.1701C394.843 -63.7259 385.322 -63.01 375.757 -63.0377C369.28 -63.0562 362.795 -62.7828 359.382 -56.0525C355.672 -48.7338 355.716 -41.1528 359.513 -33.8582C361.988 -29.1028 366.56 -26.6263 371.613 -26.425C387.01 -25.8125 401.689 -28.4064 414.196 -38.3198C417.599 -41.0171 420.125 -44.6196 422.429 -48.2064C430.785 -61.2124 443.498 -64.4806 457.436 -62.8003C475.334 -60.6425 493.168 -59.0999 511.219 -59.3456C529.537 -59.595 548.373 -46.237 554.64 -29.3753C557.965 -20.4328 557.059 -11.1013 556.126 -2.01556C554.938 9.56148 559.782 14.3103 568.885 18.1632C584.166 24.6311 600.053 26.0915 616.384 23.2649C620.014 22.6368 623.691 22.2498 627.359 21.8784C638.778 20.7238 648.023 25.4421 656.271 32.7442C665.065 40.5293 675.108 45.778 686.476 48.9389C707.016 54.6485 723.95 48.0559 739.034 34.4854C754.132 20.9021 766.38 4.94193 777.45 -11.9816C784.619 -22.9407 794.226 -31.1064 805.925 -36.9065C815.525 -41.6655 822.956 -48.465 826.238 -59.037C829.643 -70.0072 835.638 -79.5317 843.734 -87.4564C853.742 -97.2534 860.762 -109.247 869.308 -120.108C872.326 -123.945 875.024 -128.165 879.366 -130.786C880.109 -131.234 880.936 -132.247 881.728 -131.192C882.381 -130.323 881.637 -129.408 880.934 -128.816C869.566 -119.237 863.304 -105.618 853.796 -94.5737C850.489 -90.7328 847.249 -86.807 843.656 -83.2451C836.016 -75.6715 831.239 -66.4527 827.864 -56.446C824.719 -47.1219 818.538 -40.3132 809.943 -36.2746C794.256 -28.9024 783.146 -16.9947 774.085 -2.70556C763.616 13.8014 750.734 28.2263 735.686 40.6402C711.962 60.2139 681.08 54.6392 659.627 38.8241C657.402 37.1836 655.237 35.4359 653.2 33.57C642.996 24.2275 631.209 22.5823 617.949 25.0847C600.853 28.3112 583.927 27.0587 567.659 20.3386C558.133 16.4035 552.307 11.384 554.102 -2.58734C556.094 -18.093 554.373 -32.7996 541.622 -44.0182C532.048 -52.4426 521.097 -57.7309 508.156 -57.4196C490.72 -57.0003 473.498 -58.6676 456.215 -60.7773C444.223 -62.2415 432.821 -59.159 425.88 -48.2073C412.825 -27.6119 392.799 -23.8164 370.853 -24.3457C362.837 -24.5387 357.431 -29.489 355.573 -37.3554C354.461 -42.0664 354.465 -46.8596 355.32 -51.5687C356.992 -60.7783 361.819 -64.923 371.255 -64.9175C380.052 -64.9129 388.766 -65.5992 397.429 -66.9608C411.71 -69.2045 419.562 -76.5869 421.147 -89.411C421.986 -96.1939 419.927 -102.527 417.105 -108.59C412.388 -118.723 405.541 -127.516 398.698 -136.186C385.927 -152.365 384.821 -170.4 388.824 -189.523C390.659 -198.287 393.501 -206.761 396.541 -215.152C400.511 -226.111 399.609 -236.592 394.21 -246.798C391.837 -251.285 389.486 -255.785 387.054 -260.24C379.279 -274.48 381.519 -288.069 393.394 -300.692C402.974 -310.875 412.055 -321.534 421.788 -331.563C428.095 -338.06 435.24 -343.721 442.88 -348.683C448.174 -352.122 453.405 -355.64 457.729 -360.337C461.98 -364.955 463.843 -370.244 462.433 -376.456C459.742 -388.314 456.814 -400.122 453.077 -411.692C450.734 -418.943 446.644 -425.235 441.293 -430.768C430.953 -441.46 418.898 -450.516 410.72 -463.284C405.498 -471.437 400.196 -479.54 393.882 -486.963C389.689 -491.893 385.074 -496.428 380.645 -501.086C373.356 -508.752 366.821 -517.176 358.386 -523.772C347.972 -531.916 337.532 -532.724 327.916 -525.702C323.997 -522.84 321.781 -518.688 320.217 -514.399C314.475 -498.647 308.763 -482.87 303.65 -466.907C300.603 -457.396 302.189 -447.632 304.946 -438.231C309.524 -422.623 312.37 -406.889 311.67 -390.484C311.044 -375.81 306.52 -363.048 295.887 -352.787C283.718 -341.044 271.557 -329.28 259.041 -317.911C250.825 -310.447 240.521 -306.504 230.216 -302.721C224.314 -300.554 218.309 -298.607 213.043 -294.92C207.879 -291.305 204.859 -286.405 204.544 -280.294C203.715 -264.198 206.462 -248.997 217.113 -236.109C222.714 -229.333 229.946 -224.615 237.613 -220.685C249.932 -214.371 262.336 -208.183 274.96 -202.515C292.411 -194.68 300.84 -180.59 304.126 -162.583C305.672 -154.109 307.207 -145.633 308.733 -137.155C309.895 -130.701 313.417 -126.807 320.112 -125.559C326.616 -124.346 332.965 -122.451 338.839 -119.197C346.898 -114.734 351.282 -105.243 349.116 -96.4488C348.08 -92.2422 345.631 -89.7278 340.975 -89.8202C330.528 -90.028 323.242 -96.095 316.619 -103.14C314.114 -105.803 312.075 -108.988 310.234 -112.173C305.175 -120.924 303.181 -122.39 290.261 -120.733C278.877 -119.272 268.949 -113.945 259.21 -108.26C248.838 -102.204 238.01 -97.6608 225.664 -98.1356C218.975 -98.3933 212.651 -100.322 206.321 -102.265C200.734 -103.98 195.175 -105.705 189.184 -105.585C185.832 -105.518 182.798 -104.705 179.889 -103.243C172.091 -99.3216 170.493 -93.0837 175.31 -85.8897C177.566 -82.52 180.665 -79.9567 183.45 -77.0968C193.911 -66.3557 197.503 -53.4689 196.399 -38.6985C195.548 -27.3071 192.079 -16.6233 188.391 -6.07256C179.664 18.8948 194.966 29.6045 214.047 33.6809C226.434 36.3273 237.607 32.1724 248.121 26.6282C265.657 17.3808 284.218 13.7912 303.806 14.484C305.945 14.5597 308.094 14.8655 310.2 15.2664C321.426 17.403 326.858 23.9125 327.268 35.3851C327.605 44.8071 327.18 54.1959 325.085 63.3768C321.651 78.4251 321.378 93.5326 323.741 108.683C326.275 124.931 322.224 139.454 313.195 152.888C309.763 157.997 306.236 163.07 303.206 168.415C293.578 185.401 294.406 200.088 308.786 215.196C324.729 231.946 344.06 243.932 366.548 249.988C373.895 251.966 381.631 252.482 389.418 251.271C395.774 250.281 402.283 250.744 408.732 250.133C422.639 248.813 436.613 248.22 450.542 247.109C460.078 246.349 462.803 243.038 462.973 233.504C463.125 225.052 460.618 217.074 458.85 208.988C454.763 190.291 449.294 172.068 439.689 155.291C436.794 150.235 434.611 144.764 432.208 139.436C429.188 132.742 429.11 125.611 429.967 118.562C430.963 110.377 439.305 104.651 449.413 104.021C463.839 103.121 477.292 107.075 490.121 112.747C509.116 121.145 529.013 127.339 547.546 136.871C554.87 140.639 563.265 141.199 571.384 141.737C580.791 142.361 588.81 146.058 595.431 152.277C608.456 164.509 622.647 175.299 636.34 186.708C646.064 194.81 649.496 205.747 647.371 218.285C645.558 228.988 641.486 238.995 637.602 249.036C633.175 260.479 630.771 272.225 630.097 284.515C629.498 295.54 627.744 306.502 626.497 317.491C625.881 317.491 625.265 317.491 624.649 317.491Z" fill="#3718B9"/>
<path d="M252.388 317.491C249.882 308.129 247.559 298.712 244.817 289.419C242.166 280.432 239.497 271.448 232.898 264.207C227.088 257.832 219.8 255.391 211.559 254.73C204.98 254.202 198.365 253.842 191.846 252.869C173.424 250.116 161.565 239.31 157.182 221.516C151.999 200.469 148.382 179.087 146.919 157.369C145.967 143.223 144.156 129.187 136.691 116.57C128.543 102.799 117.34 92.1341 96.3939 96.0794C83.2142 98.5614 69.9237 99.6717 56.4937 99.6588C50.992 99.6532 45.4884 100.625 39.9332 100.499C31.9152 100.316 29.6659 98.7591 27.4351 91.0091C26.4994 87.7594 25.5517 84.47 25.0954 81.1317C22.8655 64.7956 13.5451 54.5192 -1.61318 48.8336C-7.98318 46.4449 -13.908 43.0336 -18.231 37.5938C-24.1272 30.1763 -23.5323 21.4397 -22.4155 12.8306C-21.428 5.21908 -18.6393 -2.09128 -18.3215 -9.84502C-17.8717 -20.8179 -22.24 -30.0081 -30.4584 -36.6376C-47.2628 -50.1933 -65.6125 -60.914 -87.514 -64.2847C-101.612 -66.4545 -114.698 -71.0399 -124.617 -82.1135C-136.029 -94.8535 -140.147 -109.853 -138.065 -126.572C-137.262 -133.02 -133.316 -137.349 -126.949 -139.459C-117.379 -142.629 -107.319 -143.185 -97.5364 -145.221C-79.6753 -148.94 -64.5844 -157.474 -51.3474 -169.877C-36.2556 -184.02 -23.7391 -200.432 -10.0006 -215.763C-7.12782 -218.97 -3.97334 -221.925 -1.12365 -225.15C10.204 -237.968 11.1592 -253.289 10.1144 -269.414C9.05399 -285.773 0.966791 -295.994 -13.9606 -302.169C-25.4637 -306.928 -36.4505 -312.791 -44.7936 -322.697C-51.8647 -331.092 -56.6274 -340.673 -60.4775 -350.733C-68.1259 -370.721 -75.2183 -390.891 -78.8088 -412.118C-80.8013 -423.899 -79.8997 -435.75 -80.2563 -447.574C-80.4919 -455.398 -81.1653 -463.168 -82.9979 -470.864C-87.1778 -488.421 -107.657 -499.086 -122.1 -495.344C-134.791 -492.056 -145.756 -486 -155.812 -477.887C-167.629 -468.353 -178.091 -457.642 -185.659 -444.324C-190.094 -436.52 -192.426 -428.017 -192.658 -419.209C-193.215 -398.057 -203.976 -382.788 -219.443 -369.777C-225.887 -364.356 -232.378 -358.971 -237.815 -352.368C-248.819 -339.007 -245.765 -327.767 -232.61 -317.185C-224.221 -310.437 -214.868 -304.967 -206.792 -297.796C-195.132 -287.442 -184.555 -276.099 -175.741 -263.212C-169.897 -254.669 -169.979 -245.397 -174.224 -236.41C-179.667 -224.885 -183.204 -212.894 -185.438 -200.398C-187.602 -188.285 -192.193 -183.898 -204.628 -183.287C-225.271 -182.274 -245.551 -178.76 -265.877 -175.458C-275.435 -173.904 -285.11 -172.927 -294.352 -169.785C-298.157 -168.492 -301.901 -166.98 -305.08 -164.512C-313.092 -158.29 -314.689 -149.994 -310.107 -139.726C-306.63 -131.932 -301.642 -125.109 -296.608 -118.287C-288.457 -107.239 -281.692 -95.635 -282.38 -81.1464C-282.884 -70.5531 -286.508 -60.9298 -291.816 -52.0038C-300.245 -37.8283 -307.625 -23.2769 -313.643 -7.83406C-320.982 11.0016 -334.684 25.2168 -351.226 36.6534C-362.745 44.6168 -375.16 51.2307 -386.294 59.7659C-395.808 67.0578 -405.788 73.7945 -414.34 82.2641C-421.913 89.7639 -421.885 94.8887 -414.08 102.176C-404.021 111.569 -391.988 116.484 -378.197 116.981C-366.334 117.409 -354.571 115.523 -342.766 115.271C-320.877 114.803 -299.663 119.347 -278.851 125.791C-269.888 128.566 -261.073 131.82 -252.119 134.626C-231.725 141.019 -214.304 134.943 -198.754 121.518C-193.458 116.944 -189.556 111.144 -185.643 105.465C-176.215 91.7794 -163.162 83.1694 -147.601 78.4898C-131.659 73.6957 -116.011 68.3131 -100.815 61.46C-90.348 56.7398 -79.4434 55.7431 -68.7319 61.3067C-61.7024 64.9572 -57.263 70.8959 -54.1888 77.9938C-50.5854 86.3119 -47.5204 94.9044 -40.3394 101.127C-29.8838 110.186 -17.6943 115.178 -4.09896 116.925C0.00884092 117.452 4.16283 117.631 8.2965 117.95C14.4504 118.427 16.6452 120.848 16.9094 127.043C17.1828 133.445 14.8688 139.131 12.2307 144.703C5.90869 158.056 -1.43398 170.915 -7.15738 184.556C-8.1042 186.813 -8.79147 189.206 -9.34571 191.595C-10.6029 197.006 -8.63902 201.562 -4.00192 204.743C-0.475144 207.161 3.48297 208.425 7.63511 208.886C27.4416 211.084 28.9362 219.603 29.666 235.674C30.3135 249.952 25.1526 262.785 17.1808 274.572C10.9014 283.857 4.14066 292.848 -0.180523 303.358C-2.07139 307.965 -3.02095 312.777 -4.40746 317.491C-5.02358 317.491 -5.63879 317.491 -6.25492 317.491C-5.12151 306.667 -0.757812 297.078 5.05241 288.057C9.46689 281.204 14.0947 274.484 18.3595 267.54C25.7585 255.495 28.988 242.502 26.9068 228.31C25.5221 218.866 21.4162 214.106 12.0173 211.975C8.56995 211.194 5.0238 210.826 1.60048 209.958C-9.55995 207.129 -13.7629 200.03 -11.0592 188.821C-9.86021 183.852 -7.70978 179.255 -5.54364 174.653C0.68041 161.433 8.31038 148.885 13.3927 135.119C13.7123 134.253 13.9996 133.372 14.249 132.483C16.5731 124.182 13.5322 120.193 4.94246 119.842C-5.24622 119.427 -15.1457 117.752 -24.746 113.915C-40.7699 107.51 -50.4237 95.7718 -56.2228 79.8431C-61.2119 66.1406 -73.1575 58.7526 -86.7076 59.9137C-92.927 60.4467 -98.7484 62.7163 -104.229 65.4791C-115.855 71.3383 -128.135 75.3473 -140.599 78.7577C-159.415 83.9056 -174.931 93.4856 -185.778 110.085C-193.371 121.703 -203.347 130.536 -216.503 135.609C-231.943 141.563 -247.087 139.701 -262.024 134.078C-281.984 126.562 -302.44 121.089 -323.576 118.216C-335.381 116.61 -347.139 117.581 -358.958 118.518C-377.873 120.018 -396.677 120.112 -412.531 107.002C-414.069 105.73 -415.6 104.434 -417.005 103.02C-423.55 96.4359 -423.768 88.587 -417.502 81.7173C-411.767 75.4277 -404.661 70.7388 -398.109 65.4006C-384.104 53.9908 -368.36 45.1535 -353.504 35.0064C-335.163 22.4779 -320.833 6.50399 -313.482 -14.8534C-308.831 -28.3648 -301.581 -40.4877 -294.35 -52.6559C-291.192 -57.9692 -288.72 -63.5947 -286.699 -69.4289C-281.791 -83.5942 -285.335 -96.3601 -293.032 -108.499C-298.956 -117.844 -306.584 -126.063 -311.244 -136.253C-312.665 -139.36 -313.798 -142.526 -314.447 -145.861C-316.338 -155.573 -312.176 -163.934 -303.425 -168.569C-293.964 -173.582 -283.577 -175.147 -273.228 -176.537C-257.222 -178.684 -241.463 -182.424 -225.351 -183.801C-217.397 -184.481 -209.404 -184.689 -201.503 -185.991C-194.139 -187.205 -189.453 -191.302 -188.131 -198.685C-185.569 -212.987 -181.769 -226.847 -175.409 -240.007C-171.072 -248.98 -174.064 -257.067 -179.702 -264.504C-192.71 -281.661 -207.622 -296.812 -225.619 -308.834C-231.737 -312.921 -237.971 -317.012 -242.236 -323.288C-248.218 -332.09 -248.152 -341.563 -242.377 -350.502C-236.84 -359.072 -228.738 -365.032 -221.339 -371.71C-209.928 -382.011 -198.948 -392.594 -196.33 -408.786C-195.57 -413.484 -195.03 -418.223 -194.539 -422.959C-193.218 -435.718 -188.433 -446.949 -180.38 -456.954C-168.263 -472.009 -154.311 -484.84 -136.607 -492.956C-124.803 -498.367 -112.645 -500.632 -100.063 -494.789C-86.3871 -488.438 -80.7422 -477.051 -79.1802 -462.862C-77.8463 -450.745 -78.6527 -438.574 -78.1594 -426.445C-77.5867 -412.374 -74.2281 -398.763 -69.9337 -385.386C-64.4791 -368.395 -59.3728 -351.27 -50.5697 -335.58C-44.305 -324.415 -35.6247 -315.738 -24.1668 -309.932C-17.8495 -306.731 -11.4702 -303.651 -5.17596 -300.407C3.56339 -295.903 8.96066 -289.019 10.7721 -279.112C12.6472 -268.858 12.7368 -258.55 12.0348 -248.296C11.3632 -238.485 6.94971 -229.649 0.184354 -222.758C-15.6677 -206.612 -29.2159 -188.469 -45.0116 -172.247C-63.3373 -153.426 -85.2786 -143.453 -110.965 -140.633C-115.876 -140.094 -120.689 -139.052 -125.354 -137.422C-132.419 -134.954 -136.024 -130.052 -136.417 -122.537C-137.748 -97.0187 -121.692 -75.2059 -96.9415 -68.6752C-88.1615 -66.3585 -79.0841 -65.444 -70.4232 -62.538C-54.8659 -57.3171 -41.1209 -48.8576 -28.6099 -38.5544C-17.6814 -29.5545 -14.6691 -17.1951 -16.7946 -3.50458C-17.5022 1.05031 -18.6439 5.5396 -19.6508 10.0455C-23.8787 28.9579 -18.2679 39.456 -0.234059 46.8504C7.62499 50.0733 15.1921 53.8042 20.28 61.1561C24.0719 66.6356 25.5258 72.8939 26.9816 79.1992C27.8472 82.9459 28.6129 86.7313 29.7592 90.3948C31.7933 96.8959 34.0047 98.76 40.8624 98.4293C58.4954 97.5786 76.1995 97.6913 93.6745 94.4351C98.7596 93.4874 103.922 92.6255 109.246 93.202C122.027 94.5857 130.586 101.944 137.131 112.277C143.788 122.785 147.172 134.437 147.982 146.723C149.544 170.415 153.093 193.812 158.327 216.922C163.454 239.561 179.052 251.517 202.397 251.9C207.145 251.977 211.899 252.559 216.621 253.147C229.226 254.713 237.159 262.28 241.847 273.561C247.72 287.698 250.939 302.612 254.235 317.491C253.619 317.491 253.004 317.491 252.388 317.491Z" fill="#CFC4FF"/>
<path d="M342.913 317.491C342.78 310.263 343.093 302.996 342.43 295.818C340.577 275.724 328.841 262.459 311.874 253.041C300.987 246.998 290.18 241.037 281.392 231.766C270.751 220.542 268.378 207.422 270.374 192.905C272.593 176.766 280.863 163.17 288.911 149.489C290.703 146.444 292.368 143.311 293.888 140.121C298.706 130.007 298.516 119.864 293.552 109.877C287.121 96.933 280.019 84.2891 277.354 69.806C276.173 63.3861 271.361 61.2874 265.519 60.9318C262.144 60.7258 258.747 60.6593 255.368 60.7738C230.934 61.6061 206.922 58.2585 182.987 53.8108C164.979 50.465 146.848 48.1289 128.451 48.7247C120.443 48.9843 112.95 50.938 106.022 54.9645C101.118 57.8151 101.042 60.0394 105.926 62.6665C138.183 80.0141 153.691 108.529 159.103 143.389C161.874 161.232 164.977 178.868 171.85 195.69C174.404 201.943 176.125 208.531 178.379 214.912C183.151 228.416 192.953 235.185 207.176 236.305C214.668 236.896 222.208 236.634 229.681 237.913C239.491 239.591 246.112 245.118 250.514 253.696C253.622 259.752 255.646 266.225 257.335 272.788C260.793 286.232 265.707 299.179 270.591 312.137C271.25 313.882 271.91 315.59 271.787 317.491C271.171 317.491 270.555 317.491 269.939 317.491C262.121 298.704 257.353 278.884 250.429 259.804C245.178 245.334 235.543 239.114 219.99 239.045C212.747 239.014 205.552 238.516 198.458 237.056C188.095 234.924 180.875 228.635 177.371 218.901C168.522 194.312 159.548 169.823 156.918 143.406C154.727 121.393 144.697 102.377 130.706 85.3209C123.522 76.5621 114.771 70.0785 104.826 64.9454C102.263 63.6226 99.1648 62.3368 99.3486 58.7934C99.5094 55.6943 102.193 54.2237 104.61 52.8399C111.71 48.7765 119.382 47.0436 127.548 46.7378C153.763 45.7559 179.273 50.89 204.879 55.2943C223.285 58.4599 241.853 59.0547 260.49 58.8303C276.074 58.6428 277.608 59.7771 281.103 75.0703C283.41 85.1629 288.154 94.1498 293.084 102.978C302.438 119.728 300.814 135.492 290.918 151.351C283.099 163.882 275.807 176.702 272.819 191.531C269.51 207.955 274.129 221.409 286.174 232.892C294.341 240.68 304.14 245.754 313.785 251.165C330.695 260.654 342.332 273.888 344.43 293.963C345.248 301.796 344.67 309.648 344.761 317.491C344.145 317.491 343.53 317.491 342.913 317.491Z" fill="#3718B9"/>
<path d="M233.915 317.491C233.25 309.211 232.5 300.912 230.107 292.937C225.234 276.703 217.92 271.015 200.993 269.507C187.131 268.272 173.625 265.754 161.152 259.011C143.56 249.503 134.675 234.635 134.185 214.947C133.679 194.664 135.653 174.393 135.041 154.09C134.83 147.118 133.774 140.3 131.489 133.73C125.769 117.282 113.166 109.847 95.9325 112.178C89.5255 113.044 83.1906 114.223 76.827 115.302C58.7839 118.361 47.5007 129.105 41.5528 146.013C41.1445 147.174 40.8046 148.36 40.3695 149.51C36.7633 159.052 38.9082 167.27 46.0199 174.383C48.7385 177.102 51.5484 179.751 54.0499 182.66C63.7425 193.929 64.6662 206.696 58.9687 219.782C53.4383 232.485 48.3329 245.321 43.6395 258.343C41.0235 265.599 37.2944 272.366 33.6587 279.129C27.1963 291.15 22.8649 303.593 24.2293 317.491C23.6131 317.491 22.9979 317.491 22.3818 317.491C20.841 303.494 24.3743 290.659 31.1988 278.544C39.0135 264.671 44.288 249.718 49.7703 234.844C51.6279 229.804 54.036 224.963 56.2889 220.075C63.1208 205.254 61.0692 193.317 49.628 181.72C48.0068 180.076 46.3672 178.451 44.7322 176.82C38.0888 170.195 34.7662 162.503 37.1199 153.009C42.8035 130.076 53.1631 117.651 74.9399 113.384C83.3938 111.728 91.8588 110.206 100.467 109.595C119.721 108.231 130.987 120.999 134.843 136.642C136.352 142.76 136.987 149.011 137.054 155.378C137.247 173.686 136.286 191.967 136.114 210.261C135.879 235.279 148.684 252.907 172.239 261.399C182.051 264.937 192.176 266.56 202.44 267.512C219.975 269.136 227.59 275.048 232.266 291.971C234.559 300.27 235.69 308.834 235.762 317.491C235.146 317.491 234.531 317.491 233.915 317.491Z" fill="#3718B9"/>
<path d="M123.098 154.188C122.602 164.724 121.013 175.015 115.025 184.019C109.084 192.954 101.771 194.486 93.1018 188.115C83.0988 180.765 75.0097 171.394 68.988 160.607C62.92 149.737 66.8883 137.659 78.0793 131.416C86.1951 126.889 95.1072 125.166 104.357 126.521C115.181 128.107 122.414 137.382 123.088 150.039C123.162 151.419 123.098 152.805 123.098 154.188ZM121.124 154.33C121.124 153.408 121.171 152.483 121.116 151.564C120.244 136.612 110.95 127.431 97.0415 128.283C89.9251 128.719 83.0969 130.75 77.235 135.053C68.6517 141.353 65.9831 150.227 70.9176 158.842C76.9819 169.429 84.8834 178.72 94.698 186.058C102.297 191.739 107.256 190.627 112.793 182.698C118.729 174.2 120.213 164.331 121.124 154.33Z" fill="#CFC4FF"/>
<path d="M283.783 130.639C284.405 137.51 282.203 143.481 279.271 149.069C270.838 165.137 262.33 181.175 253.435 196.989C244.916 212.136 230.974 218.315 214.219 218.616C204.56 218.789 197.461 213.813 193.119 205.354C183.177 185.98 174.978 166.028 171.697 144.227C169.208 127.685 162.519 112.335 156.34 96.9065C154.548 92.4301 153.483 87.7893 152.787 83.0801C151.805 76.446 155.744 70.2773 162.402 68.0927C169.477 65.7714 176.863 64.7719 184.249 65.3779C194.958 66.2564 205.617 67.4941 216.159 69.9485C228.747 72.8785 238.852 79.1368 246.371 89.5804C250.341 95.0941 255.694 98.8989 261.498 102.161C266.877 105.184 272.02 108.458 276.458 112.848C281.55 117.886 284.691 123.56 283.783 130.639ZM281.93 129.955C282.345 125.14 279.914 120.497 276.15 116.343C271.433 111.132 265.675 107.369 259.578 104.001C253.751 100.781 248.477 96.8806 244.45 91.4121C239.365 84.5073 233.353 78.3535 225.173 75.44C207.473 69.1356 189.211 65.8481 170.384 68.4465C159.636 69.9291 151.746 74.8738 156.437 89.6275C157.042 91.5313 157.658 93.4369 158.387 95.2955C164.521 110.911 171.269 126.394 173.769 143.099C177.012 164.756 185.355 184.492 195.117 203.78C199.349 212.143 208.407 217.636 216.891 216.605C232.048 214.764 244.492 208.368 252.044 194.379C260.446 178.814 268.929 163.292 277.178 147.646C279.904 142.477 281.995 136.977 281.93 129.955Z" fill="#CFC4FF"/>
</g>
</g>
</g>
<defs>
<linearGradient id="paint0_linear_352_2855" x1="-2.24163e-07" y1="62.341" x2="357.546" y2="116.71" gradientUnits="userSpaceOnUse">
<stop stop-color="#B0F1BF"/>
<stop offset="1" stop-color="#90DCA1"/>
</linearGradient>
<linearGradient id="paint1_linear_352_2855" x1="242.286" y1="-6.87525" x2="154.082" y2="195.771" gradientUnits="userSpaceOnUse">
<stop stop-color="#886BFF"/>
<stop offset="1" stop-color="#5E3AF5"/>
</linearGradient>
<clipPath id="clip0_352_2855">
<rect width="176.307" height="169.097" fill="white" transform="translate(26.8467 31.1788)"/>
</clipPath>
</defs>
</svg>
