<svg width="230" height="231" viewBox="0 0 230 231" fill="none" xmlns="http://www.w3.org/2000/svg">
<g clip-path="url(#clip0_352_2805)">
<mask id="mask0_352_2805" style="mask-type:alpha" maskUnits="userSpaceOnUse" x="20" y="71" width="190" height="89">
<rect x="20.3389" y="71.9345" width="188.945" height="87.8843" fill="#C4C4C4"/>
</mask>
<g mask="url(#mask0_352_2805)">
<rect x="-46.8828" y="15.7837" width="293.616" height="146.808" rx="4.8936" transform="rotate(11.642 -46.8828 15.7837)" fill="#EBAFFC"/>
<g opacity="0.8">
<path opacity="0.2" fill-rule="evenodd" clip-rule="evenodd" d="M398.504 -48.6877L400.035 -57.5753L401.964 -57.243L400.433 -48.3554L407.391 -47.157L407.059 -45.228L400.101 -46.4264L389.954 12.4902L396.912 13.6886L396.58 15.6177L389.621 14.4192L379.474 73.3358L386.433 74.5342L386.101 76.4633L379.142 75.2649L368.995 134.181L375.954 135.38L375.621 137.309L368.663 136.11L358.516 195.027L365.475 196.225L365.142 198.154L358.184 196.956L348.037 255.872L354.995 257.07L354.663 258.999L347.705 257.801L337.558 316.717L344.516 317.916L344.184 319.845L337.226 318.646L327.079 377.563L334.037 378.761L333.705 380.69L326.746 379.492L316.6 438.408L323.558 439.606L323.226 441.536L316.267 440.337L315.069 447.296L313.14 446.964L314.338 440.005L255.422 429.858L254.223 436.817L252.294 436.485L253.493 429.526L194.576 419.379L193.378 426.338L191.449 426.005L192.647 419.047L133.731 408.9L132.532 415.858L130.603 415.526L131.802 408.567L72.8854 398.42L71.6869 405.379L69.7579 405.047L70.9564 398.088L12.0398 387.941L10.8412 394.901L8.91212 394.568L10.1107 387.609L-48.8057 377.462L-50.0043 384.421L-51.9334 384.089L-50.7348 377.13L-109.651 366.983L-110.85 373.942L-112.779 373.61L-111.58 366.651L-170.497 356.504L-171.695 363.463L-173.624 363.13L-172.426 356.171L-181.313 354.641L-180.981 352.712L-172.094 354.242L-161.947 295.326L-170.834 293.796L-170.502 291.867L-161.614 293.397L-151.467 234.481L-160.355 232.95L-160.023 231.021L-151.135 232.552L-140.988 173.635L-149.876 172.104L-149.544 170.175L-140.656 171.706L-130.509 112.79L-139.397 111.26L-139.065 109.331L-130.177 110.861L-120.03 51.9448L-128.918 50.4141L-128.585 48.4851L-119.698 50.0157L-109.551 -8.90085L-118.438 -10.4315L-118.106 -12.3606L-109.219 -10.8299L-99.0716 -69.7465L-107.959 -71.2771L-107.627 -73.2062L-98.7394 -71.6755L-88.5924 -130.592L-97.48 -132.123L-97.1477 -134.052L-88.2602 -132.521L-86.7295 -141.409L-84.8005 -141.076L-86.3311 -132.189L-27.4145 -122.042L-25.8839 -130.929L-23.9548 -130.597L-25.4855 -121.71L33.4308 -111.563L34.9614 -120.45L36.8904 -120.118L35.3599 -111.231L94.2763 -101.084L95.8069 -109.971L97.7359 -109.638L96.2054 -100.751L155.122 -90.6044L156.653 -99.4919L158.582 -99.1597L157.051 -90.2721L215.967 -80.1252L217.498 -89.0128L219.427 -88.6806L217.896 -79.793L276.813 -69.646L278.344 -78.5336L280.273 -78.2014L278.742 -69.3138L337.658 -59.1669L339.189 -68.054L341.118 -67.7218L339.587 -58.8346L398.504 -48.6877ZM-170.164 354.575L-111.248 364.722L-101.101 305.805L-160.018 295.659L-170.164 354.575ZM-109.319 365.054L-50.4025 375.201L-40.2556 316.285L-99.172 306.138L-109.319 365.054ZM-48.4735 375.533L10.443 385.68L20.5898 326.764L-38.3266 316.617L-48.4735 375.533ZM12.372 386.012L71.2886 396.159L81.4355 337.243L22.5189 327.096L12.372 386.012ZM73.2176 396.491L132.134 406.638L142.281 347.722L83.3645 337.575L73.2176 396.491ZM134.063 406.971L192.979 417.117L203.126 358.201L144.21 348.054L134.063 406.971ZM194.909 417.45L253.825 427.597L263.972 368.681L205.055 358.534L194.909 417.45ZM255.754 427.929L314.67 438.076L324.817 379.16L265.901 369.013L255.754 427.929ZM335.297 318.314L325.15 377.231L266.233 367.084L276.38 308.167L335.297 318.314ZM274.451 307.835L264.304 366.752L205.388 356.605L215.535 297.688L274.451 307.835ZM213.606 297.356L203.459 356.272L144.542 346.125L154.689 287.209L213.606 297.356ZM152.76 286.877L142.613 345.793L83.6968 335.646L93.8437 276.73L152.76 286.877ZM91.9147 276.397L81.7677 335.314L22.8511 325.167L32.9981 266.25L91.9147 276.397ZM31.069 265.918L20.9221 324.835L-37.9944 314.688L-27.8474 255.771L31.069 265.918ZM-29.7765 255.439L-39.9234 314.356L-98.8398 304.209L-88.6928 245.292L-29.7765 255.439ZM-90.6218 244.96L-100.769 303.876L-159.685 293.729L-149.538 234.813L-90.6218 244.96ZM-149.206 232.884L-90.2896 243.031L-80.1426 184.114L-139.059 173.967L-149.206 232.884ZM-88.3606 243.363L-29.4442 253.51L-19.2972 194.593L-78.2136 184.446L-88.3606 243.363ZM-27.5152 253.842L31.4013 263.989L41.5482 205.073L-17.3682 194.926L-27.5152 253.842ZM33.3303 264.321L92.2469 274.468L102.394 215.552L43.4773 205.405L33.3303 264.321ZM94.176 274.801L153.092 284.948L163.239 226.031L104.323 215.884L94.176 274.801ZM155.021 285.28L213.938 295.427L224.085 236.51L165.168 226.363L155.021 285.28ZM215.867 295.759L274.783 305.906L284.93 246.989L226.014 236.842L215.867 295.759ZM276.712 306.238L335.629 316.385L345.776 257.469L286.859 247.322L276.712 306.238ZM356.255 196.624L346.108 255.539L287.191 245.393L297.338 186.477L356.255 196.624ZM295.409 186.145L285.262 245.06L226.346 234.913L236.493 175.998L295.409 186.145ZM234.564 175.665L224.417 234.581L165.501 224.434L175.647 165.519L234.564 175.665ZM173.718 165.186L163.572 224.102L104.655 213.955L114.802 155.039L173.718 165.186ZM112.873 154.707L102.726 213.623L43.8095 203.476L53.9563 144.56L112.873 154.707ZM52.0273 144.228L41.8805 203.144L-17.036 192.997L-6.88917 134.081L52.0273 144.228ZM-8.81821 133.749L-18.965 192.664L-77.8813 182.517L-67.7345 123.602L-8.81821 133.749ZM-69.6636 123.27L-79.8104 182.185L-138.727 172.038L-128.58 113.123L-69.6636 123.27ZM-128.248 111.194L-69.3313 121.341L-59.1844 62.424L-118.101 52.277L-128.248 111.194ZM-67.4023 121.673L-8.48598 131.82L1.66099 72.9031L-57.2553 62.7562L-67.4023 121.673ZM-6.55694 132.152L52.3595 142.299L62.5065 83.3823L3.59002 73.2354L-6.55694 132.152ZM54.2886 142.631L113.205 152.778L123.352 93.8615L64.4355 83.7146L54.2886 142.631ZM115.134 153.11L174.051 163.257L184.198 104.341L125.281 94.1938L115.134 153.11ZM175.98 163.589L234.896 173.736L245.043 114.82L186.127 104.673L175.98 163.589ZM236.825 174.069L295.741 184.216L305.888 125.299L246.972 115.152L236.825 174.069ZM297.67 184.548L356.587 194.695L366.734 135.778L307.817 125.631L297.67 184.548ZM377.213 74.9326L367.066 133.849L308.15 123.702L318.297 64.7857L377.213 74.9326ZM316.368 64.4534L306.221 123.37L247.304 113.223L257.451 54.3065L316.368 64.4534ZM255.522 53.9743L245.375 112.891L186.459 102.744L196.606 43.8273L255.522 53.9743ZM194.677 43.4951L184.53 102.412L125.613 92.2647L135.76 33.3481L194.677 43.4951ZM133.831 33.0159L123.684 91.9325L64.7678 81.7855L74.9147 22.8689L133.831 33.0159ZM72.9857 22.5367L62.8387 81.4533L3.92225 71.3063L14.0692 12.3898L72.9857 22.5367ZM12.1402 12.0575L1.99322 70.9741L-56.9231 60.8272L-46.7761 1.91058L12.1402 12.0575ZM-48.7052 1.57835L-58.8521 60.4949L-117.769 50.348L-107.622 -8.56862L-48.7052 1.57835ZM-107.29 -10.4977L-48.3729 -0.350684L-38.226 -59.2673L-97.1426 -69.4142L-107.29 -10.4977ZM-46.4439 -0.0184535L12.4724 10.1285L22.6194 -48.7881L-36.2969 -58.935L-46.4439 -0.0184535ZM14.4015 10.4607L73.3179 20.6077L83.4649 -38.3089L24.5484 -48.4559L14.4015 10.4607ZM75.247 20.9399L134.164 31.0869L144.311 -27.8297L85.3939 -37.9767L75.247 20.9399ZM136.093 31.4191L195.009 41.566L205.156 -17.3506L146.24 -27.4975L136.093 31.4191ZM196.938 41.8983L255.854 52.0452L266.001 -6.87136L207.085 -17.0183L196.938 41.8983ZM257.783 52.3774L316.7 62.5244L326.847 3.60779L267.93 -6.53913L257.783 52.3774ZM318.629 62.8566L377.545 73.0036L387.692 14.087L328.776 3.94002L318.629 62.8566ZM398.172 -46.7586L388.025 12.158L329.108 2.01098L339.255 -56.9056L398.172 -46.7586ZM337.326 -57.2378L327.179 1.67875L268.263 -8.46817L278.41 -67.3848L337.326 -57.2378ZM276.481 -67.717L266.334 -8.8004L207.417 -18.9474L217.564 -77.8639L276.481 -67.717ZM215.635 -78.1962L205.488 -19.2796L146.572 -29.4265L156.719 -88.3431L215.635 -78.1962ZM154.79 -88.6753L144.643 -29.7587L85.7262 -39.9057L95.8731 -98.8223L154.79 -88.6753ZM93.9441 -99.1545L83.7971 -40.238L24.8807 -50.3849L35.0276 -109.301L93.9441 -99.1545ZM33.0986 -109.634L22.9516 -50.7171L-35.9647 -60.8641L-25.8177 -119.781L33.0986 -109.634ZM-27.7468 -120.113L-37.8937 -61.1963L-96.8103 -71.3433L-86.6634 -130.26L-27.7468 -120.113Z" fill="black"/>
<path fill-rule="evenodd" clip-rule="evenodd" d="M409.553 -52.8656L411.083 -61.7532L413.012 -61.4209L411.482 -52.5333L418.44 -51.3349L418.108 -49.4059L411.149 -50.6043L401.002 8.31228L407.961 9.51072L407.629 11.4398L400.67 10.2413L390.523 69.1579L397.482 70.3563L397.15 72.2854L390.191 71.0869L380.044 130.004L387.003 131.202L386.67 133.131L379.712 131.933L369.565 190.849L376.523 192.048L376.191 193.977L369.233 192.778L359.086 251.694L366.044 252.892L365.712 254.821L358.754 253.623L348.607 312.539L355.565 313.738L355.233 315.667L348.274 314.468L338.127 373.385L345.086 374.583L344.754 376.512L337.795 375.314L327.648 434.23L334.607 435.429L334.274 437.358L327.316 436.159L326.118 443.118L324.189 442.786L325.387 435.827L266.47 425.68L265.272 432.639L263.343 432.307L264.541 425.348L205.625 415.201L204.427 422.16L202.498 421.828L203.696 414.869L144.78 404.722L143.581 411.681L141.652 411.348L142.851 404.389L83.9342 394.243L82.7357 401.201L80.8067 400.869L82.0052 393.91L23.0886 383.763L21.89 390.723L19.961 390.39L21.1595 383.431L-37.7569 373.284L-38.9555 380.243L-40.8845 379.911L-39.6859 372.952L-98.6023 362.805L-99.8008 369.764L-101.73 369.432L-100.531 362.473L-159.448 352.326L-160.646 359.285L-162.575 358.952L-161.377 351.993L-170.265 350.463L-169.932 348.534L-161.045 350.064L-150.898 291.148L-159.785 289.618L-159.453 287.689L-150.566 289.219L-140.419 230.303L-149.306 228.772L-148.974 226.843L-140.086 228.374L-129.939 169.457L-138.827 167.926L-138.495 165.997L-129.607 167.528L-119.46 108.612L-128.348 107.082L-128.016 105.153L-119.128 106.683L-108.981 47.7669L-117.869 46.2362L-117.537 44.3071L-108.649 45.8378L-98.502 -13.0788L-107.39 -14.6094L-107.057 -16.5385L-98.1697 -15.0078L-88.0228 -73.9244L-96.9102 -75.455L-96.578 -77.3841L-87.6905 -75.8534L-77.5436 -134.77L-86.4311 -136.301L-86.0989 -138.23L-77.2113 -136.699L-75.6807 -145.587L-73.7516 -145.254L-75.2823 -136.367L-16.3657 -126.22L-14.835 -135.107L-12.906 -134.775L-14.4367 -125.888L44.4796 -115.741L46.0102 -124.628L47.9393 -124.296L46.4087 -115.408L105.325 -105.261L106.856 -114.149L108.785 -113.816L107.254 -104.929L166.171 -94.7823L167.701 -103.67L169.631 -103.338L168.1 -94.4501L227.016 -84.3031L228.547 -93.1907L230.476 -92.8585L228.945 -83.9709L287.862 -73.8239L289.392 -82.7115L291.321 -82.3793L289.791 -73.4917L348.707 -63.3448L350.238 -72.2319L352.167 -71.8997L350.636 -63.0125L409.553 -52.8656ZM-159.116 350.397L-100.199 360.544L-90.0522 301.628L-148.969 291.481L-159.116 350.397ZM-98.27 360.876L-39.3537 371.023L-29.2068 312.107L-88.1232 301.96L-98.27 360.876ZM-37.4247 371.355L21.4918 381.502L31.6387 322.586L-27.2778 312.439L-37.4247 371.355ZM23.4208 381.834L82.3374 391.981L92.4843 333.065L33.5677 322.918L23.4208 381.834ZM84.2665 392.313L143.183 402.46L153.33 343.544L94.4134 333.397L84.2665 392.313ZM145.112 402.793L204.028 412.94L214.175 354.023L155.259 343.877L145.112 402.793ZM205.957 413.272L264.874 423.419L275.021 364.503L216.104 354.356L205.957 413.272ZM266.803 423.751L325.719 433.898L335.866 374.982L276.95 364.835L266.803 423.751ZM346.345 314.136L336.198 373.053L277.282 362.906L287.429 303.989L346.345 314.136ZM285.5 303.657L275.353 362.574L216.436 352.427L226.583 293.51L285.5 303.657ZM224.654 293.178L214.507 352.094L155.591 341.947L165.738 283.031L224.654 293.178ZM163.809 282.699L153.662 341.615L94.7456 331.468L104.893 272.552L163.809 282.699ZM102.964 272.22L92.8165 331.136L33.8999 320.989L44.0469 262.073L102.964 272.22ZM42.1179 261.74L31.9709 320.657L-26.9456 310.51L-16.7986 251.593L42.1179 261.74ZM-18.7276 251.261L-28.8746 310.178L-87.7909 300.031L-77.644 241.114L-18.7276 251.261ZM-79.573 240.782L-89.72 299.699L-148.637 289.552L-138.49 230.635L-79.573 240.782ZM-138.157 228.706L-79.2408 238.853L-69.0938 179.936L-128.01 169.789L-138.157 228.706ZM-77.3117 239.185L-18.3954 249.332L-8.24842 190.415L-67.1647 180.269L-77.3117 239.185ZM-16.4664 249.664L42.4501 259.811L52.5971 200.895L-6.31938 190.748L-16.4664 249.664ZM44.3791 260.144L103.296 270.291L113.443 211.374L54.5261 201.227L44.3791 260.144ZM105.225 270.623L164.141 280.77L174.288 221.853L115.372 211.706L105.225 270.623ZM166.07 281.102L224.987 291.249L235.134 232.332L176.217 222.185L166.07 281.102ZM226.916 291.581L285.832 301.728L295.979 242.811L237.063 232.664L226.916 291.581ZM287.761 302.06L346.678 312.207L356.825 253.291L297.908 243.144L287.761 302.06ZM367.304 192.446L357.157 251.362L298.24 241.215L308.387 182.299L367.304 192.446ZM306.458 181.967L296.311 240.882L237.395 230.735L247.542 171.82L306.458 181.967ZM245.613 171.488L235.466 230.403L176.549 220.256L186.696 161.341L245.613 171.488ZM184.767 161.008L174.62 219.924L115.704 209.777L125.851 150.861L184.767 161.008ZM123.922 150.529L113.775 209.445L54.8583 199.298L65.0052 140.382L123.922 150.529ZM63.0761 140.05L52.9293 198.966L-5.98715 188.819L4.15966 129.903L63.0761 140.05ZM2.23062 129.571L-7.91619 188.486L-66.8325 178.34L-56.6857 119.424L2.23062 129.571ZM-58.6147 119.092L-68.7616 178.007L-127.678 167.86L-117.531 108.945L-58.6147 119.092ZM-117.199 107.016L-58.2825 117.163L-48.1355 58.2461L-107.052 48.0991L-117.199 107.016ZM-56.3535 117.495L2.56285 127.642L12.7098 68.7252L-46.2065 58.5783L-56.3535 117.495ZM4.49189 127.974L63.4083 138.121L73.5553 79.2044L14.6389 69.0575L4.49189 127.974ZM65.3374 138.453L124.254 148.6L134.401 89.6836L75.4843 79.5366L65.3374 138.453ZM126.183 148.932L185.099 159.079L195.246 100.163L136.33 90.0158L126.183 148.932ZM187.028 159.412L245.945 169.559L256.092 110.642L197.175 100.495L187.028 159.412ZM247.874 169.891L306.79 180.038L316.937 121.121L258.021 110.974L247.874 169.891ZM308.719 180.37L367.636 190.517L377.783 131.6L318.866 121.453L308.719 180.37ZM388.262 70.7547L378.115 129.671L319.198 119.524L329.345 60.6077L388.262 70.7547ZM327.416 60.2755L317.269 119.192L258.353 109.045L268.5 50.1286L327.416 60.2755ZM266.571 49.7963L256.424 108.713L197.508 98.566L207.655 39.6494L266.571 49.7963ZM205.726 39.3172L195.579 98.2337L136.662 88.0868L146.809 29.1702L205.726 39.3172ZM144.88 28.838L134.733 87.7546L75.8166 77.6076L85.9636 18.691L144.88 28.838ZM84.0345 18.3588L73.8875 77.2754L14.9711 67.1284L25.1181 8.21184L84.0345 18.3588ZM23.189 7.87961L13.042 66.7962L-45.8743 56.6492L-35.7273 -2.26733L23.189 7.87961ZM-37.6563 -2.59956L-47.8033 56.317L-106.72 46.17L-96.5729 -12.7465L-37.6563 -2.59956ZM-96.2407 -14.6756L-37.3241 -4.5286L-27.1771 -63.4452L-86.0937 -73.5922L-96.2407 -14.6756ZM-35.3951 -4.19637L23.5212 5.95057L33.6682 -52.966L-25.2481 -63.113L-35.3951 -4.19637ZM25.4503 6.2828L84.3667 16.4298L94.5137 -42.4868L35.5973 -52.6338L25.4503 6.2828ZM86.2958 16.762L145.212 26.909L155.359 -32.0076L96.4428 -42.1546L86.2958 16.762ZM147.141 27.2412L206.058 37.3881L216.205 -21.5285L157.288 -31.6754L147.141 27.2412ZM207.987 37.7203L266.903 47.8673L277.05 -11.0493L218.134 -21.1962L207.987 37.7203ZM268.832 48.1995L327.749 58.3465L337.896 -0.570126L278.979 -10.7171L268.832 48.1995ZM329.678 58.6787L388.594 68.8257L398.741 9.90909L339.825 -0.237896L329.678 58.6787ZM409.22 -50.9365L399.073 7.98005L340.157 -2.16693L350.304 -61.0835L409.22 -50.9365ZM348.375 -61.4157L338.228 -2.49916L279.312 -12.6461L289.458 -71.5627L348.375 -61.4157ZM287.529 -71.8949L277.382 -12.9783L218.466 -23.1253L228.613 -82.0419L287.529 -71.8949ZM226.684 -82.3741L216.537 -23.4575L157.621 -33.6044L167.768 -92.521L226.684 -82.3741ZM165.839 -92.8532L155.692 -33.9367L96.775 -44.0836L106.922 -103L165.839 -92.8532ZM104.993 -103.332L94.8459 -44.4159L35.9295 -54.5628L46.0765 -113.479L104.993 -103.332ZM44.1474 -113.812L34.0004 -54.8951L-24.9159 -65.042L-14.7689 -123.959L44.1474 -113.812ZM-16.6979 -124.291L-26.8449 -65.3742L-85.7615 -75.5212L-75.6145 -134.438L-16.6979 -124.291Z" fill="#F3CFFD"/>
</g>
</g>
</g>
<defs>
<clipPath id="clip0_352_2805">
<rect width="188.765" height="87.6886" fill="white" transform="translate(20.6172 71.8832)"/>
</clipPath>
</defs>
</svg>
