<svg width="230" height="231" viewBox="0 0 230 231" fill="none" xmlns="http://www.w3.org/2000/svg">
<g clip-path="url(#clip0_352_2806)">
<mask id="mask0_352_2806" style="mask-type:alpha" maskUnits="userSpaceOnUse" x="34" y="34" width="162" height="163">
<circle cx="115" cy="115.702" r="80.9444" fill="#C4C4C4"/>
</mask>
<g mask="url(#mask0_352_2806)">
<rect width="367.097" height="183.549" transform="translate(-37.3789 18.0261)" fill="url(#paint0_linear_352_2806)"/>
<g opacity="0.3">
<path d="M409.749 238.427C407.445 229.82 405.309 221.163 402.789 212.62C400.351 204.356 397.898 196.098 391.831 189.441C386.489 183.579 379.789 181.335 372.213 180.727C366.164 180.242 360.082 179.911 354.089 179.016C337.153 176.486 326.251 166.551 322.221 150.192C317.456 130.842 314.13 111.185 312.785 91.2183C311.91 78.2131 310.245 65.309 303.382 53.7093C295.891 41.049 285.592 31.2437 266.335 34.8708C254.218 37.1527 241.999 38.1735 229.652 38.1616C224.594 38.1565 219.534 39.0499 214.427 38.9344C207.056 38.7662 204.988 37.3344 202.937 30.2094C202.076 27.2218 201.205 24.1976 200.786 21.1285C198.736 6.10982 190.167 -3.33791 176.231 -8.56494C170.375 -10.7611 164.928 -13.8973 160.953 -18.8984C155.533 -25.7177 156.079 -33.7498 157.106 -41.6646C158.014 -48.6623 160.578 -55.3832 160.87 -62.5116C161.284 -72.5997 157.268 -81.0487 149.712 -87.1436C134.263 -99.6061 117.393 -109.462 97.2574 -112.561C84.2964 -114.556 72.2653 -118.772 63.1462 -128.952C52.6548 -140.665 48.8689 -154.455 50.7831 -169.826C51.5211 -175.753 55.149 -179.734 61.0028 -181.673C69.8008 -184.588 79.0498 -185.098 88.0432 -186.971C104.464 -190.39 118.338 -198.235 130.507 -209.639C144.382 -222.64 155.889 -237.729 168.52 -251.824C171.161 -254.772 174.061 -257.489 176.681 -260.454C187.095 -272.238 187.973 -286.324 187.013 -301.149C186.038 -316.189 178.603 -325.585 164.879 -331.262C154.304 -335.637 144.203 -341.027 136.533 -350.134C130.032 -357.853 125.653 -366.661 122.114 -375.91C115.082 -394.286 108.562 -412.83 105.261 -432.344C103.429 -443.175 104.258 -454.071 103.93 -464.941C103.713 -472.134 103.094 -479.278 101.409 -486.353C97.5665 -502.494 78.739 -512.299 65.4604 -508.859C53.7928 -505.836 43.7124 -500.268 34.4668 -492.81C23.6034 -484.045 13.985 -474.197 7.02722 -461.954C2.95005 -454.778 0.805724 -446.961 0.592566 -438.864C0.0804786 -419.417 -9.81307 -405.379 -24.0326 -393.418C-29.9569 -388.434 -35.9245 -383.484 -40.923 -377.413C-51.04 -365.129 -48.2324 -354.796 -36.1376 -345.067C-28.4257 -338.863 -19.8264 -333.834 -12.4015 -327.241C-1.68252 -317.722 8.04206 -307.295 16.1454 -295.447C21.5177 -287.592 21.4429 -279.069 17.5399 -270.806C12.5353 -260.211 9.28362 -249.186 7.23018 -237.698C5.24043 -226.562 1.01974 -222.528 -10.4126 -221.967C-29.3904 -221.035 -48.0354 -217.805 -66.7219 -214.769C-75.5089 -213.341 -84.4038 -212.442 -92.9003 -209.554C-96.3992 -208.365 -99.8411 -206.975 -102.763 -204.705C-110.13 -198.986 -111.598 -191.359 -107.386 -181.919C-104.188 -174.753 -99.6025 -168.481 -94.975 -162.209C-87.4814 -152.051 -81.2616 -141.383 -81.8943 -128.063C-82.3571 -118.324 -85.6895 -109.477 -90.5692 -101.271C-98.3184 -88.2383 -105.104 -74.8603 -110.636 -60.6628C-117.384 -43.3461 -129.98 -30.2773 -145.188 -19.7629C-155.778 -12.4417 -167.192 -6.36118 -177.429 1.48573C-186.175 8.18958 -195.35 14.3831 -203.212 22.1697C-210.175 29.0646 -210.149 33.7761 -202.974 40.4757C-193.726 49.1116 -182.663 53.6304 -169.984 54.0873C-159.078 54.4804 -148.264 52.7463 -137.41 52.5145C-117.287 52.0847 -97.7834 56.2621 -78.6494 62.1864C-70.4093 64.7375 -62.3059 67.7293 -54.0734 70.3093C-35.324 76.186 -19.3084 70.6006 -5.01237 58.2578C-0.142863 54.0533 3.4443 48.7209 7.04165 43.4998C15.7098 30.9176 27.7094 23.0019 42.0156 18.6997C56.6725 14.2922 71.0586 9.3437 85.0293 3.04324C94.6519 -1.29634 104.677 -2.21268 114.525 2.90225C120.988 6.25842 125.069 11.7181 127.895 18.2436C131.208 25.891 134.026 33.7906 140.628 39.511C150.24 47.8403 161.447 52.4295 173.946 54.0354C177.722 54.5204 181.541 54.6843 185.342 54.9781C190.999 55.4163 193.017 57.6421 193.26 63.3371C193.511 69.2231 191.384 74.451 188.958 79.5736C183.146 91.8492 176.396 103.671 171.134 116.213C170.263 118.288 169.632 120.488 169.122 122.684C167.966 127.659 169.772 131.847 174.035 134.771C177.277 136.994 180.916 138.156 184.733 138.58C202.943 140.601 204.317 148.434 204.988 163.209C205.583 176.335 200.838 188.133 193.509 198.97C187.736 207.505 181.521 215.772 177.548 225.434C175.81 229.67 174.937 234.093 173.662 238.427C173.096 238.427 172.53 238.427 171.964 238.427C173.006 228.476 177.017 219.661 182.359 211.367C186.418 205.066 190.672 198.888 194.593 192.505C201.395 181.431 204.364 169.485 202.451 156.439C201.178 147.756 197.403 143.38 188.762 141.421C185.593 140.702 182.333 140.364 179.185 139.566C168.925 136.966 165.061 130.438 167.547 120.134C168.649 115.565 170.626 111.339 172.617 107.108C178.34 94.954 185.354 83.4181 190.027 70.7619C190.321 69.9662 190.585 69.156 190.814 68.3391C192.951 60.707 190.155 57.04 182.258 56.7173C172.891 56.3352 163.79 54.7955 154.964 51.2678C140.232 45.3792 131.357 34.588 126.025 19.9438C121.438 7.34631 110.456 0.55412 97.9988 1.62161C92.2809 2.11161 86.929 4.19818 81.8905 6.73824C71.202 12.1249 59.9124 15.8106 48.4528 18.946C31.1548 23.6787 16.8902 32.4862 6.91767 47.7469C-0.0630238 58.4285 -9.23476 66.5489 -21.3295 71.2129C-35.5245 76.6862 -49.4476 74.975 -63.1797 69.8048C-81.53 62.8955 -100.336 57.8638 -119.768 55.2218C-130.621 53.7459 -141.431 54.6384 -152.297 55.5004C-169.686 56.8787 -186.974 56.9653 -201.55 44.913C-202.963 43.7436 -204.372 42.5513 -205.663 41.2519C-211.68 35.1986 -211.88 27.9827 -206.12 21.6669C-200.847 15.8845 -194.314 11.5738 -188.29 6.66605C-175.415 -3.82368 -160.941 -11.9483 -147.283 -21.2771C-130.42 -32.7952 -117.246 -47.481 -110.488 -67.1161C-106.212 -79.5379 -99.5464 -90.6832 -92.8987 -101.87C-89.996 -106.755 -87.7226 -111.927 -85.8645 -117.291C-81.3525 -130.314 -84.611 -142.05 -91.6868 -153.21C-97.1338 -161.801 -104.147 -169.358 -108.43 -178.726C-109.737 -181.583 -110.778 -184.493 -111.375 -187.559C-113.114 -196.487 -109.287 -204.175 -101.242 -208.436C-92.5437 -213.044 -82.9949 -214.484 -73.4801 -215.761C-58.7654 -217.735 -44.2766 -221.173 -29.4643 -222.439C-22.1516 -223.064 -14.8032 -223.256 -7.53968 -224.453C-0.769599 -225.569 3.53855 -229.336 4.75465 -236.123C7.10958 -249.272 10.6033 -262.014 16.4503 -274.112C20.4374 -282.362 17.6868 -289.797 12.5039 -296.634C0.544994 -312.408 -13.165 -326.337 -29.7106 -337.39C-35.3351 -341.147 -41.0666 -344.908 -44.9875 -350.678C-50.4871 -358.77 -50.4268 -367.479 -45.1174 -375.697C-40.0262 -383.576 -32.5785 -389.055 -25.7761 -395.195C-15.2847 -404.665 -5.19069 -414.395 -2.78311 -429.281C-2.08504 -433.6 -1.58826 -437.957 -1.13731 -442.311C0.0779398 -454.041 4.47697 -464.367 11.8806 -473.565C23.02 -487.406 35.8468 -499.202 52.1232 -506.663C62.9755 -511.638 74.1531 -513.72 85.7205 -508.349C98.2934 -502.509 103.483 -492.041 104.919 -478.996C106.145 -467.857 105.404 -456.667 105.858 -445.516C106.384 -432.579 109.472 -420.067 113.42 -407.768C118.435 -392.147 123.129 -376.403 131.222 -361.978C136.982 -351.714 144.962 -343.737 155.496 -338.399C161.304 -335.456 167.169 -332.625 172.955 -329.642C180.99 -325.501 185.952 -319.173 187.617 -310.065C189.341 -300.637 189.424 -291.161 188.778 -281.733C188.161 -272.714 184.103 -264.59 177.884 -258.255C163.31 -243.411 150.854 -226.731 136.332 -211.817C119.484 -194.514 99.3125 -185.345 75.6979 -182.753C71.1825 -182.257 66.758 -181.299 62.4685 -179.801C55.9736 -177.532 52.659 -173.025 52.2981 -166.116C51.0744 -142.655 65.8358 -122.602 88.5901 -116.598C96.6621 -114.468 105.008 -113.627 112.97 -110.955C127.273 -106.155 139.909 -98.3781 151.411 -88.9058C161.459 -80.6317 164.228 -69.269 162.274 -56.6825C161.623 -52.4949 160.574 -48.3676 159.648 -44.2251C155.761 -26.8379 160.919 -17.1863 177.499 -10.3882C184.724 -7.42526 191.681 -3.99521 196.359 2.76384C199.845 7.80149 201.181 13.555 202.52 19.3519C203.316 22.7964 204.02 26.2766 205.073 29.6446C206.943 35.6215 208.977 37.3353 215.281 37.0312C231.492 36.2491 247.769 36.3527 263.834 33.3592C268.509 32.4878 273.256 31.6955 278.15 32.2254C289.901 33.4976 297.769 40.2626 303.787 49.7621C309.907 59.423 313.018 70.1352 313.763 81.4309C315.199 103.212 318.461 124.722 323.273 145.968C327.987 166.782 342.326 177.774 363.789 178.125C368.154 178.197 372.525 178.732 376.867 179.272C388.455 180.712 395.748 187.668 400.058 198.04C405.458 211.037 408.416 224.748 411.447 238.427C410.881 238.427 410.315 238.427 409.749 238.427Z" fill="#CFC4FF"/>
<path d="M154.129 238.427C154.766 223.968 160.981 211.789 169.535 200.538C172.79 196.259 175.837 191.832 178.152 186.944C182.504 177.758 180.776 171.242 171.956 166.085C166.727 163.026 161.056 160.723 155.587 158.072C150.95 155.824 146.854 152.756 143.497 148.917C135.714 140.015 136.103 130.156 140.736 120.002C143.26 114.472 146.131 109.09 148.434 103.472C153.235 91.7626 151.26 84.7896 141.066 77.3163C136.626 74.0604 131.866 71.2401 127.242 68.2355C118.142 62.3223 110.953 54.7454 106.486 44.7245C105.105 41.6265 103.543 38.6015 101.929 35.6164C98.4578 29.1988 91.833 25.9224 84.5746 26.7318C71.2085 28.223 57.9808 30.3987 45.0114 34.0496C31.7064 37.7947 22.7096 47.0768 14.861 57.6515C1.83378 75.2043 -15.95 83.8614 -37.2641 85.4409C-46.93 86.1577 -56.3633 83.5641 -65.4144 80.1341C-78.7856 75.0667 -92.302 70.5225 -106.224 67.1671C-120.093 63.8254 -133.905 63.6055 -147.765 67.0126C-161.803 70.463 -176.136 72.0689 -190.459 73.6519C-200.962 74.8128 -207.54 80.0984 -210.295 90.4387C-212.406 98.3586 -215.229 106.087 -217.431 113.985C-222.049 130.548 -218.888 146.423 -213.075 162.126C-207.004 178.527 -195.373 188.539 -179.293 194.945C-162.462 201.651 -145.911 208.864 -127.979 212.288C-116.003 214.575 -109.973 222.58 -108.225 234.261C-108.015 235.658 -107.7 237.039 -107.434 238.427C-108.284 238.427 -109.133 238.427 -109.982 238.427C-110.487 225.271 -116.239 216.985 -129.044 214.352C-149.339 210.176 -168.102 202.104 -186.938 193.984C-197.356 189.493 -205.549 182.59 -210.717 172.554C-220.183 154.174 -224.36 134.759 -219.606 114.272C-217.374 104.652 -213.989 95.2937 -210.987 85.8605C-208.694 78.6513 -203.794 74.2786 -196.298 72.6897C-187.148 70.7501 -177.8 70.4138 -168.584 69.0142C-157.959 67.4015 -147.591 64.5124 -136.894 63.1783C-126.748 61.9129 -116.841 62.8641 -107.001 64.909C-92.426 67.9382 -78.3635 72.7364 -64.4947 78.1036C-56.258 81.2916 -47.6986 83.7153 -38.9218 83.5939C-27.9064 83.4418 -17.5831 79.8853 -7.82538 74.6684C1.92891 69.4533 9.14315 61.5868 15.5438 52.8728C25.2794 39.618 38.3975 32.2305 54.4463 29.4034C64.6091 27.6133 74.7277 25.3806 85.0128 24.6673C93.562 24.0745 100.058 26.6816 104.231 34.9787C108.735 43.9321 112.651 53.2142 120.498 60.0735C125.869 64.7689 131.861 68.5064 137.913 72.1224C152.931 81.0954 156.433 90.2289 148.964 108.245C147.504 111.767 145.815 115.213 143.99 118.561C134.971 135.108 140.193 145.969 155.145 155.14C159.102 157.567 163.428 159.458 167.733 161.238C182.72 167.432 186.272 176.949 178.492 191.278C176.276 195.359 173.522 199.181 170.727 202.907C162.771 213.515 157.165 225.064 155.828 238.427C155.261 238.427 154.696 238.427 154.129 238.427Z" fill="#3718B9"/>
<path d="M-23.3606 238.427C-35.8163 229.589 -48.3612 220.92 -62.0041 213.923C-68.4634 210.611 -73.8807 205.676 -78.7341 200.36C-87.7181 190.518 -98.0159 187.73 -110.483 192.853C-117.451 195.716 -124.794 197.212 -132.336 197.722C-144.692 198.559 -155.877 194.811 -166.221 188.574C-180.56 179.928 -192.885 169.095 -201.052 154.13C-208.561 140.374 -207.863 127.172 -199.892 113.569C-190.185 97.005 -176.116 86.7479 -158.142 81.019C-148.037 77.7987 -138.129 73.9899 -127.342 73.6094C-113.226 73.1118 -100.455 78.3405 -87.5049 82.8109C-72.4081 88.0226 -57.5126 94.0343 -41.3924 95.3838C-32.6521 96.1158 -24.3109 93.8509 -16.0674 91.1554C1.87942 85.2881 15.9852 74.4255 27.3403 59.3831C41.57 40.5318 77.7406 36.5803 94.3686 59.6718C99.9446 67.4151 107.133 73.9984 113.6 81.0971C121.412 89.6718 124.282 99.5391 121.257 110.864C119.907 115.917 118.474 120.962 116.76 125.9C111.483 141.111 114.322 154.214 126.321 165.236C129.641 168.284 132.838 171.481 135.588 175.13C140.207 181.26 141.992 188.036 138.896 195.04C133.629 206.958 134.625 219.024 136.703 231.248C137.11 233.646 137.22 236.021 137.144 238.427C136.578 238.427 136.012 238.427 135.446 238.427C134.829 232.811 134.493 227.146 133.528 221.59C132.052 213.104 132.732 204.869 136.125 197.045C140.296 187.424 137.306 179.771 130.538 172.796C126.998 169.147 123.466 165.491 120.024 161.739C112.357 153.383 111.445 143.612 112.938 133.175C113.903 126.424 116.161 119.974 118.362 113.564C122.395 101.819 120.077 91.6726 111.728 82.6088C104.553 74.8187 97.396 66.9965 90.5589 58.9126C73.2515 38.4503 41.9896 43.6672 28.5717 61.7261C12.7556 83.0138 -8.63578 94.3553 -34.5603 97.2487C-45.6513 98.4869 -56.4969 95.5196 -67.0257 92.0862C-79.1315 88.1381 -91.2212 84.1153 -103.175 79.7341C-118.649 74.0621 -133.917 74.53 -149.203 80.2216C-157.686 83.3799 -166.376 86.0889 -174.274 90.5992C-189.286 99.173 -199.032 112.419 -203.584 128.594C-207.358 142.004 -200.212 153.417 -191.946 163.484C-182.704 174.74 -171.472 183.6 -158.317 190.121C-145.008 196.717 -131.516 197.427 -117.548 192.947C-111.363 190.963 -105.292 188.54 -98.6715 188.268C-91.9277 187.991 -85.7402 190.08 -81.2546 194.789C-70.8447 205.717 -58.4017 213.508 -45.349 220.745C-37.3424 225.185 -30.0339 230.884 -22.4112 236.017C-21.5433 236.598 -21.0405 237.421 -20.8129 238.427C-21.6622 238.427 -22.5114 238.427 -23.3606 238.427Z" fill="#CFC4FF"/>
<path d="M106.572 238.427C101.871 230.714 95.478 224.139 91.7609 215.74C86.0286 202.79 84.1229 189.341 85.0316 175.256C86.1763 157.503 92.1193 141.001 97.4499 124.314C99.2639 118.635 100.576 112.912 100.644 106.871C100.707 101.26 99.2248 96.1311 96.2568 91.5979C90.3792 82.6207 82.8006 75.2782 73.4463 69.8924C59.4204 61.817 48.7082 65.05 38.576 76.2718C29.7499 86.0465 20.0253 93.9605 8.02566 99.2002C-0.136318 102.764 -8.25583 106.428 -16.4153 109.997C-28.0014 115.065 -39.8838 115.616 -52.117 112.614C-61.3159 110.357 -70.5844 108.351 -79.881 106.533C-88.9177 104.767 -96.948 100.662 -105.037 96.5795C-110.726 93.7083 -116.543 91.1266 -122.989 90.3937C-138.543 88.6256 -163.735 100.759 -160.28 126.047C-159.165 134.203 -160.542 142.395 -161.195 150.564C-161.868 158.967 -159.255 166.257 -152.418 171.503C-145.434 176.862 -137.676 175.814 -130.475 168.385C-121.651 159.282 -111.17 156.499 -98.7824 158.241C-85.7985 160.066 -75.5058 166.166 -67.9833 176.556C-55.9564 193.165 -38.9675 203.621 -22.3828 214.679C-13.7538 220.432 -3.69716 222.65 5.74037 226.395C10.2804 228.196 14.2446 230.837 18.0585 233.788C19.5905 234.972 20.4499 236.548 20.7998 238.427C19.9506 238.427 19.1014 238.427 18.2521 238.427C15.1847 233.287 10.1267 230.731 4.92171 228.584C-0.433549 226.375 -5.99349 224.665 -11.443 222.68C-22.3693 218.702 -31.2522 211.286 -40.9156 205.17C-54.1645 196.785 -64.0131 185.019 -74.079 173.288C-85.418 160.073 -112.612 151.91 -128.709 170.109C-134.143 176.253 -141.186 178.115 -148.752 175.873C-156.985 173.433 -160.933 166.91 -162.751 158.709C-164.02 152.984 -162.895 147.434 -162.367 141.861C-161.843 136.335 -161.858 130.911 -162.37 125.385C-164.067 107.058 -153.963 93.5214 -133.737 88.9874C-123.441 86.6791 -113.844 89.0765 -105.135 94.0564C-84.9373 105.608 -62.2535 107.975 -40.1573 112.465C-32.2696 114.069 -24.7123 110.936 -17.5414 107.936C-7.3701 103.682 2.59056 98.9208 12.6039 94.2951C21.9098 89.9963 29.141 83.2015 35.8143 75.5236C45.6203 64.2416 58.9041 59.6183 73.4557 67.2708C83.7153 72.666 91.9817 80.3541 98.0512 90.0608C104.92 101.045 103.264 112.911 99.646 124.534C95.8627 136.689 91.6114 148.699 88.9618 161.183C83.6346 186.281 87.0578 209.49 103.585 229.962C105.694 232.576 108.126 235.052 109.12 238.427C108.271 238.427 107.422 238.427 106.572 238.427Z" fill="#3718B9"/>
<path d="M64.1105 238.427C67.5448 226.793 67.2934 214.928 65.8888 203.093C63.5415 183.315 65.4481 164.215 73.4011 145.784C77.3772 136.569 80.8642 127.165 82.3631 117.111C83.9698 106.334 76.725 95.7447 66.0179 93.929C59.0126 92.7418 53.58 96.3527 48.8405 100.61C38.6896 109.728 27.6878 116.96 14.2096 120.293C2.45874 123.2 -7.01189 130.756 -17.1373 136.923C-22.9342 140.453 -28.8992 143.723 -34.561 147.454C-47.7377 156.139 -49.0693 169.292 -38.11 180.766C-25.0759 194.415 -9.67086 204.387 8.18087 210.548C21.654 215.199 33.5797 222.226 43.0767 233.055C44.4949 234.672 45.9217 236.21 46.2766 238.427C45.4274 238.427 44.5782 238.427 43.7289 238.427C38.079 229.839 30.2457 223.701 21.3797 218.814C11.5676 213.405 0.528447 210.779 -9.35493 205.52C-21.0548 199.294 -31.7119 191.6 -40.5218 181.668C-49.8676 171.131 -51.2289 154.326 -36.1601 145.68C-21.5847 137.319 -8.16602 126.968 7.39024 120.308C9.5957 119.364 11.8623 118.444 14.1926 117.932C26.9447 115.127 37.0752 107.849 46.5272 99.3318C56.1634 90.6493 66.5113 89.2209 75.4563 95.4058C83.3941 100.895 85.1206 108.998 84.2136 117.882C83.3006 126.825 80.1169 135.184 76.804 143.472C71.1668 157.576 66.0213 171.818 66.7551 187.351C67.0744 194.112 68.1741 200.845 68.327 207.603C68.5605 217.901 69.0454 228.254 66.6582 238.427C65.809 238.427 64.9598 238.427 64.1105 238.427Z" fill="#CFC4FF"/>
<path d="M138.972 -62.3313C137.312 -51.9851 134.776 -40.2776 129.165 -29.4566C126.404 -24.1328 121.361 -22.2968 115.902 -21.4628C111.72 -20.8242 107.479 -20.5669 103.263 -20.1516C93.9014 -19.231 85.3861 -15.93 77.625 -10.7327C65.7119 -2.75589 52.1573 1.42741 38.9169 6.3742C27.2901 10.718 16.6449 16.8232 7.31017 25.0353C3.35954 28.5112 0.629253 33.0469 -2.27682 37.3992C-6.12045 43.1562 -9.70166 49.1407 -15.0663 53.6918C-26.3373 63.2524 -39.3526 65.7339 -53.2503 61.678C-73.9147 55.6476 -94.6853 50.1963 -115.896 46.4563C-127.741 44.368 -139.701 43.3524 -151.661 42.3078C-156.889 41.8518 -162.057 41.1656 -166.927 39.017C-175.364 35.2931 -178.618 27.667 -175.26 19.0719C-171.47 9.37368 -163.688 3.17938 -155.598 -2.58691C-146.048 -9.39436 -135.949 -15.3908 -126.984 -23.0687C-110.526 -37.1643 -96.2886 -52.6127 -90.4153 -74.3445C-87.5339 -85.0067 -82.4351 -94.8646 -77.0756 -104.558C-72.4948 -112.842 -67.9472 -121.23 -67.2992 -131.015C-66.4899 -143.233 -69.4545 -154.272 -77.67 -163.576C-81.4083 -167.809 -86.0121 -171.26 -89.178 -176.017C-90.3465 -177.773 -91.5159 -179.594 -92.2794 -181.545C-95.1736 -188.937 -92.1197 -194.777 -84.5598 -197.065C-77.0348 -199.342 -69.8826 -197.611 -63.031 -194.852C-55.3479 -191.757 -47.9706 -190.773 -40.0439 -194.021C-23.1909 -200.926 -8.06264 -195.085 7.01804 -187.571C22.8248 -179.695 32.3795 -167.037 38.2953 -150.794C42.172 -140.149 47.2946 -130.018 54.7483 -121.277C64.2521 -110.133 76.4505 -103.935 90.7269 -101.289C103.938 -98.8407 116.47 -94.6718 127.089 -85.9374C134.077 -80.1932 138.824 -73.3577 138.972 -62.3313ZM137.045 -62.3449C137.142 -70.568 132.358 -78.5839 125.553 -84.1158C114.89 -92.7839 102.421 -97.0327 89.2085 -99.4844C74.9533 -102.13 62.7354 -108.277 53.1891 -119.39C45.6055 -128.217 40.4311 -138.467 36.4958 -149.236C30.6174 -165.322 21.1773 -177.899 5.51659 -185.706C-8.99255 -192.939 -23.3964 -198.947 -39.7764 -191.896C-47.6658 -188.5 -55.5475 -189.285 -63.25 -192.619C-67.323 -194.382 -71.598 -195.31 -75.9147 -196.049C-81.1638 -196.947 -88.0281 -194.177 -90.1402 -190.324C-92.8959 -185.296 -89.9287 -181.412 -87.3071 -177.515C-84.3552 -173.129 -80.284 -169.775 -76.628 -166.043C-72.8973 -162.236 -70.2256 -157.819 -68.3989 -152.837C-63.0768 -138.319 -64.0662 -124.189 -71.3585 -110.626C-79.3439 -95.7758 -86.5369 -80.6357 -91.6187 -64.4875C-95.8479 -51.0475 -104.727 -40.5357 -114.649 -30.8935C-126.768 -19.1164 -140.62 -9.61515 -154.639 -0.271037C-162.402 4.90419 -169.509 11.0815 -173.248 20.1063C-175.796 26.2598 -174.25 31.4843 -168.741 35.3033C-165.183 37.7695 -161.166 39.152 -156.894 39.6157C-147.493 40.6365 -138.033 41.2055 -128.678 42.5337C-104.285 45.9977 -80.1897 50.8893 -56.7526 58.6691C-42.3479 63.4512 -28.9173 62.2673 -16.9405 52.1105C-13.0043 48.7722 -10.0753 44.6296 -7.18707 40.442C-3.17869 34.6307 0.138411 28.2292 5.43423 23.4701C14.6756 15.1663 25.353 9.0807 36.9671 4.71564C50.3247 -0.304174 64.0372 -4.4722 76.0496 -12.5526C83.9348 -17.857 92.636 -21.0339 102.107 -22.0216C106.32 -22.4606 110.574 -22.6279 114.742 -23.3209C119.709 -24.1464 124.388 -25.8041 127.076 -30.5946C132.856 -40.8899 134.906 -52.3197 137.045 -62.3449Z" fill="#3718B9"/>
<path d="M42.8727 172.517C42.8761 177.452 43.243 182.395 41.7084 187.24C39.683 193.634 36.6979 196.105 29.995 195.989C14.6977 195.727 3.09039 188.247 -6.07283 176.666C-9.94363 171.774 -8.84897 164.116 -4.31491 159.532C2.37959 152.763 11.0401 150.842 20.0572 150.131C23.8406 149.832 27.6562 149.935 31.4531 150.737C39.4248 152.419 42.2256 155.372 42.8379 163.611C43.057 166.564 42.8727 169.547 42.8727 172.517ZM41.0036 172.507C41.0036 169.82 41.2949 167.094 40.9416 164.454C40.2427 159.224 38.7463 154.5 32.5622 153.07C22.0122 150.631 11.9615 151.918 2.63012 157.245C-8.03115 163.33 -9.00012 170.485 -0.630928 179.355C6.56717 186.985 15.3856 191.876 25.6809 193.905C33.6976 195.486 37.9625 192.598 40.1739 184.727C41.3084 180.686 41.091 176.601 41.0036 172.507Z" fill="#3718B9"/>
<path d="M-7.12921 -167.667C9.02406 -167.695 18.0675 -160.294 24.3111 -148.62C30.243 -137.531 34.5597 -125.625 41.497 -115.034C48.9856 -103.602 58.0486 -93.5517 68.0619 -84.3367C73.0121 -79.7814 79.4365 -78.302 85.664 -76.3624C95.6187 -73.2619 98.1451 -63.7275 89.8906 -57.3456C80.4497 -50.0472 74.1093 -40.5672 67.1889 -31.2996C61.3062 -23.4212 53.1706 -18.3258 44.1144 -14.5603C30.3857 -8.85264 17.2947 -1.87618 4.4263 5.5699C-6.61033 11.9561 -13.5477 21.662 -19.0261 32.7538C-24.7695 44.3807 -33.8283 50.5843 -47.1519 50.0094C-50.4248 49.8684 -53.6765 49.6077 -56.8195 48.8842C-77.0712 44.2236 -97.7144 41.3209 -117.692 35.4502C-125.013 33.2982 -132.421 31.2702 -139.325 27.971C-149.541 23.0896 -150.872 15.4303 -143.109 7.0467C-137.43 0.912687 -130.679 -4.04173 -124.43 -9.54816C-114.774 -18.0575 -104.274 -25.5104 -94.2266 -33.5305C-84.3245 -41.4343 -79.7845 -52.4998 -76.8113 -64.3568C-73.6947 -76.7862 -69.8807 -88.8886 -61.4394 -98.9308C-58.259 -102.714 -54.913 -106.357 -51.7471 -110.152C-45.4865 -117.655 -42.7732 -126.704 -40.5882 -135.992C-38.6043 -144.424 -34.7803 -151.75 -28.439 -157.918C-21.7759 -164.396 -14.2449 -168.012 -7.12921 -167.667ZM-2.88219 -165.814C-12.8666 -165.8 -19.4159 -162.774 -25.2918 -157.579C-32.9578 -150.8 -37.1776 -142.265 -39.3135 -132.474C-41.265 -123.525 -44.4131 -115.096 -50.3722 -107.965C-53.4515 -104.28 -56.7108 -100.746 -59.8029 -97.0727C-68.1627 -87.1417 -71.8917 -75.1514 -74.988 -62.8639C-77.9731 -51.0162 -82.4035 -39.8513 -92.3362 -31.9832C-104.52 -22.3317 -117.041 -13.1022 -128.649 -2.73646C-134.113 2.14239 -140.347 6.26118 -144.277 12.6754C-146.967 17.0677 -146.159 20.7262 -141.985 23.707C-139.081 25.7808 -135.837 27.1387 -132.502 28.3777C-107.152 37.7906 -80.4962 41.8381 -54.1767 47.1203C-37.2141 50.5249 -28.1384 45.241 -20.097 29.7722C-15.3659 20.6726 -9.96651 12.1336 -1.04022 6.37326C10.5195 -1.08641 22.5855 -7.60766 35.1932 -13.0512C47.637 -18.4243 59.8685 -23.9826 67.6662 -35.8353C73.2066 -44.2563 79.2055 -52.0158 87.4329 -58.2644C95.5567 -64.4341 93.7334 -71.5957 83.9307 -74.6164C77.6896 -76.539 71.2788 -78.0558 66.3388 -82.623C56.2414 -91.9586 47.0714 -102.098 39.543 -113.69C32.7228 -124.194 28.429 -135.951 22.5753 -146.926C16.6655 -158.003 8.15699 -165.261 -2.88219 -165.814Z" fill="#CFC4FF"/>
</g>
</g>
</g>
<defs>
<linearGradient id="paint0_linear_352_2806" x1="251.585" y1="-7.13913" x2="159.996" y2="203.285" gradientUnits="userSpaceOnUse">
<stop stop-color="#886BFF"/>
<stop offset="1" stop-color="#5E3AF5"/>
</linearGradient>
<clipPath id="clip0_352_2806">
<rect width="161.343" height="161.94" fill="white" transform="translate(34.3291 34.7574)"/>
</clipPath>
</defs>
</svg>
