<svg preserveAspectRatio="none" viewBox="0 0 100 50" fill="none" xmlns="http://www.w3.org/2000/svg">
<path d="M13.0977 22.5C11.7169 22.5 10.5977 23.6193 10.5977 25C10.5977 26.3807 11.7169 27.5 13.0977 27.5V22.5ZM88.6698 26.7678C89.6461 25.7915 89.6461 24.2085 88.6698 23.2322L72.7599 7.32233C71.7836 6.34602 70.2007 6.34602 69.2244 7.32233C68.2481 8.29864 68.2481 9.88155 69.2244 10.8579L83.3665 25L69.2244 39.1421C68.2481 40.1184 68.2481 41.7014 69.2244 42.6777C70.2007 43.654 71.7836 43.654 72.7599 42.6777L88.6698 26.7678ZM13.0977 27.5H86.9021V22.5H13.0977V27.5Z" fill="#5E3AF5"/>
</svg>
