<svg width="600" height="300" viewBox="0 0 600 300" fill="none" xmlns="http://www.w3.org/2000/svg">
<g clip-path="url(#clip0_147_1606)">
<rect width="600" height="300" fill="url(#paint0_linear_147_1606)"/>
<g opacity="0.3">
<path d="M1015.35 360.234C1007.71 349.422 1002.6 337.186 996.049 325.754C985.519 307.372 969.429 301.312 949.316 303.097C942.419 303.709 935.504 304.12 928.614 304.796C913.702 306.26 900.555 301.851 889.501 292.089C865.695 271.066 839.688 253.099 813.283 235.595C804.816 229.981 797.751 222.543 791.721 214.269C772.477 187.86 773.578 160.432 788.24 132.699C793.849 122.092 800.552 112.058 806.839 101.814C817.14 85.0342 820.443 67.2661 815.177 48.0184C812.616 38.6617 810.619 29.1468 808.49 19.6763C804.788 3.20873 809.116 -12.9701 810.501 -29.235C812.861 -56.9358 797.35 -69.0393 771.846 -67.7901C759.037 -67.1627 747.508 -62.0714 736.355 -56.5721C706.155 -41.6786 675.234 -41.8674 643.842 -51.2588C624.95 -56.9108 606.797 -64.3992 590.593 -76.0058C586.98 -78.5945 583.687 -81.4677 580.893 -84.8614C574.627 -92.4692 574.881 -100.853 581.945 -107.819C594.984 -120.678 607.645 -133.614 615.177 -150.88C623.842 -170.747 620.966 -190.897 606.139 -203.557C598.573 -210.018 588.996 -212.471 579.713 -215.326C577.063 -216.141 574.322 -216.65 571.64 -217.362C554.825 -221.829 549.81 -231.945 554.594 -249.741C556.474 -256.739 560.745 -262.684 565.397 -268.188C579.606 -284.997 596.126 -298.834 616.576 -307.563C629.615 -313.129 643.027 -313.493 656.623 -310.339C664.053 -308.617 671.389 -306.479 678.765 -304.526C691.857 -301.059 704.271 -302.287 716.213 -309.097C728.837 -316.297 739.856 -325.413 749.048 -336.52C760.331 -350.155 759.001 -364.621 744.903 -378.491C723.966 -399.091 701.545 -418.068 677.655 -435.138C661.108 -446.961 646.536 -460.447 634.713 -477.027C626.654 -488.331 618.076 -499.233 604.75 -505.064C592.918 -510.241 580.462 -510.054 567.949 -510.008C552.152 -509.95 538.64 -515.684 527.395 -526.76C523.77 -530.331 519.804 -533.646 516.666 -537.609C502.429 -555.585 483.051 -564.47 461.452 -569.744C453.822 -571.608 446.215 -573.689 438.777 -576.2C422.052 -581.847 416.099 -594.165 421.367 -611.156C423.863 -619.204 427.939 -626.459 432.418 -633.474C441.564 -647.801 448.192 -663.27 453.799 -679.23C457.8 -690.616 462.59 -701.711 469.28 -711.728C481.534 -730.077 489.373 -750.171 494.559 -771.449C494.832 -772.572 495.106 -773.698 495.436 -774.806C503.002 -800.263 514.14 -808.564 540.73 -808.561C544.2 -808.561 547.678 -808.683 551.137 -808.476C562.59 -807.791 569.688 -800.753 571.343 -789.408C574.222 -769.666 568.346 -751.467 561.985 -733.325C560.226 -728.308 558.151 -723.404 556.294 -718.42C551.367 -705.188 550.81 -691.806 555.227 -678.339C562.221 -657.016 570.058 -636.056 580.55 -616.124C588.341 -601.323 600.63 -594.186 616.859 -593.523C631.161 -592.938 645.469 -593.017 659.796 -592.276C693.778 -590.518 723.343 -601.285 747.543 -625.946C759.826 -638.461 773.748 -649.313 784.828 -663.084C801.061 -683.258 804.349 -706.375 800.734 -731.083C798.245 -748.092 791.568 -764.033 787.674 -780.691C782.979 -800.767 783.175 -820.518 791.337 -839.843C800.486 -861.505 805.789 -884.124 808.451 -907.49C810.787 -927.991 818.171 -938.087 845.236 -943.013C869.761 -947.477 889.946 -939.564 907.202 -921.75C921.987 -906.488 936.535 -890.929 952.854 -877.196C970.161 -862.632 981.397 -843.417 992.813 -824.351C1001.38 -810.043 1013.81 -799.263 1026.09 -788.365C1043.73 -772.719 1059.44 -755.565 1068.2 -733.198C1073.76 -719.022 1082.52 -706.82 1091.19 -694.551C1096.72 -686.72 1101.23 -678.505 1103.33 -669.069C1106.52 -654.801 1100.9 -644.563 1087.11 -639.655C1071.43 -634.072 1055.05 -630.754 1039.62 -624.287C1016.55 -614.622 998.362 -599.125 983.417 -579.409C975.317 -568.723 967.17 -558.138 962.112 -545.476C957.925 -534.995 958.191 -524.715 961.943 -514.377C965.334 -505.033 969.141 -495.839 972.547 -486.499C978.809 -469.326 981.096 -451.35 975.601 -434.023C965.943 -403.573 970.885 -375.586 984.096 -347.423C996.526 -320.927 1010.08 -295.372 1028.38 -272.385C1044.28 -252.435 1065.08 -241.081 1089.39 -235.366C1107.58 -231.091 1126.78 -230.728 1143.95 -222.595C1170.55 -209.999 1193.84 -193.262 1207.36 -166.028C1211.03 -158.624 1213.34 -150.501 1215.88 -142.582C1225.2 -113.517 1247.05 -102.135 1277.79 -108.239C1288.64 -110.393 1299.35 -113.079 1310.61 -113.344C1324.62 -113.674 1335.83 -108.455 1345.34 -98.8389C1353.65 -90.4344 1362.22 -82.4157 1372.22 -75.9864C1396.52 -60.3517 1423.49 -63.6316 1444.6 -83.3943C1474.71 -111.574 1499.72 -143.722 1521.98 -178.237C1527.85 -187.344 1535.42 -195.259 1540.33 -205.112C1543.92 -212.314 1546.4 -219.886 1546.58 -227.673C1546.93 -243.21 1554.87 -251.905 1569.04 -256.314C1579.45 -259.556 1589.26 -264.269 1598.68 -269.753C1611.61 -277.281 1620.61 -288.787 1629.22 -300.559C1637.27 -311.568 1644.78 -322.966 1652.66 -334.104C1661.6 -346.746 1663.74 -360.723 1661.37 -375.723C1658.49 -393.957 1654.53 -411.977 1654.92 -430.707C1655.21 -444.754 1657.25 -458.272 1661.07 -471.679C1663.86 -481.444 1667.13 -491.361 1665.47 -501.594C1662.41 -520.54 1649.66 -531.213 1632.6 -537.638C1624.35 -540.747 1615.76 -542.747 1607.09 -544.18C1578.93 -548.834 1558.74 -563.577 1547.12 -589.978C1542.47 -600.541 1537.1 -610.776 1527.43 -618.032C1514.81 -627.51 1501.3 -629.47 1487 -622.911C1472.78 -616.388 1467.32 -604.091 1466.61 -589.236C1466.07 -578.092 1467.95 -567.07 1469.65 -556.164C1472.88 -535.384 1468.4 -516.237 1459.62 -497.657C1450.69 -478.79 1442.63 -459.645 1440.66 -438.527C1439.65 -427.73 1438.6 -416.933 1437.26 -406.173C1433.91 -379.206 1411.46 -372.362 1390.4 -374.635C1371.31 -376.694 1356.47 -387.688 1341.82 -398.547C1325.86 -410.367 1308.55 -418.924 1288.89 -421.373C1260.59 -424.898 1238.62 -437.994 1221.78 -460.961C1208.64 -478.879 1192.84 -494.533 1177.03 -510.133C1164.2 -522.797 1156.32 -538.319 1155.9 -556.324C1155.53 -572.093 1159.28 -585.049 1177.64 -591.919C1192.41 -597.447 1208.07 -599.798 1223.13 -604.327C1241.02 -609.707 1255.91 -618.918 1266.15 -634.997C1272.98 -645.717 1279.97 -656.37 1288.48 -665.887C1300.23 -679.046 1315.07 -687.971 1330.46 -696.103C1340.08 -701.188 1349.5 -706.457 1356.98 -714.722C1362.44 -720.759 1365.3 -727.721 1364.92 -735.555C1363.91 -756.289 1362.95 -777.058 1360.85 -797.7C1358.92 -816.749 1348.91 -832.421 1337.04 -846.952C1328.68 -857.182 1319.1 -866.239 1309.8 -875.568C1307.49 -877.885 1305.54 -880.397 1304.06 -883.333C1298.19 -894.943 1300.32 -902.54 1311.7 -908.71C1323.3 -914.992 1334.98 -921.105 1345.04 -929.788C1355.53 -938.842 1363.87 -949.569 1368.9 -962.519C1374.45 -976.798 1369.96 -991.147 1357.7 -1000.79C1345.22 -1010.6 1330.95 -1017.25 1316.77 -1024.05C1304.68 -1029.84 1292.5 -1035.43 1280.31 -1041.01C1263.25 -1048.82 1255.33 -1062.47 1255.49 -1080.79C1255.65 -1098.33 1255.25 -1115.86 1256.36 -1133.45C1257.33 -1148.8 1255.37 -1164.33 1254.58 -1179.77C1253.79 -1195.01 1253.2 -1210.2 1256.21 -1225.35C1260.71 -1248.02 1274.95 -1261.2 1296.34 -1267.77C1306.13 -1270.77 1316.07 -1272.62 1326.37 -1272.18C1350.65 -1271.15 1374.87 -1273.77 1399.14 -1273.56C1424.13 -1273.36 1442.28 -1262.16 1454.09 -1240.14C1459.6 -1229.86 1463 -1218.78 1466.68 -1207.87C1472.68 -1190.07 1483.43 -1176.56 1500.06 -1168.02C1518.19 -1158.7 1535.28 -1147.67 1552.61 -1137.01C1565.48 -1129.1 1579.56 -1126.18 1594.55 -1128.3C1620.58 -1131.97 1626.51 -1116.3 1625.65 -1096.95C1625.25 -1087.96 1621.44 -1079.89 1617.6 -1072.03C1612.24 -1061.06 1613.23 -1051.14 1620.61 -1041.56C1629.69 -1029.78 1636.53 -1016.69 1643.27 -1003.47C1649.65 -990.955 1658.61 -980.422 1670.58 -972.713C1671.94 -971.837 1673.3 -970.936 1674.56 -969.927C1675.61 -969.086 1677.05 -967.992 1675.96 -966.567C1674.86 -965.144 1673.38 -966.259 1672.27 -966.993C1664.55 -972.095 1657.08 -977.435 1651.04 -984.642C1641.55 -995.965 1636.61 -1009.91 1628.88 -1022.22C1624.95 -1028.48 1620.71 -1034.54 1616.55 -1040.66C1610.4 -1049.72 1608.89 -1059.35 1612.95 -1069.66C1614.89 -1074.61 1616.84 -1079.56 1618.97 -1084.43C1622.64 -1092.77 1623.41 -1101.33 1621.33 -1110.16C1618.93 -1120.4 1609.5 -1127.26 1599 -1125.64C1577.79 -1122.39 1558.73 -1127.08 1541.18 -1139.34C1527.9 -1148.61 1513.95 -1156.91 1499.35 -1163.92C1477.5 -1174.41 1466.81 -1193.14 1460.19 -1215.13C1457.04 -1225.59 1452.9 -1235.59 1446.76 -1244.7C1435.28 -1261.73 1419.03 -1270.4 1398.76 -1270.49C1372.65 -1270.59 1346.56 -1269.04 1320.44 -1268.97C1306.91 -1268.94 1293.98 -1264.46 1282.3 -1257.45C1263.03 -1245.88 1257.97 -1226.81 1257.1 -1206.28C1256.3 -1187.35 1258.64 -1168.47 1259.55 -1149.57C1260.54 -1129.03 1258.09 -1108.5 1258.12 -1087.91C1258.16 -1066.17 1266.27 -1051.06 1286.66 -1041.82C1307.69 -1032.29 1329.27 -1023.75 1349.01 -1011.54C1358.69 -1005.55 1368.1 -999.237 1372.29 -987.748C1377.86 -972.491 1372.99 -959.194 1364.89 -946.432C1353.71 -928.808 1337.23 -917.4 1319.03 -908.381C1304.8 -901.33 1296.14 -895.329 1314.51 -876.565C1328.59 -862.193 1343.2 -848.331 1353.23 -830.567C1360.75 -817.229 1365.28 -803.01 1365.16 -787.625C1365.04 -773.037 1365.88 -758.534 1367.86 -744.103C1370.52 -724.615 1362.81 -710.378 1346.2 -700.594C1338.63 -696.137 1331.01 -691.762 1323.24 -687.675C1303.25 -677.166 1288.05 -661.712 1276.01 -642.843C1267.53 -629.552 1258.93 -616.413 1244.18 -608.86C1235.04 -604.179 1225.4 -601.118 1215.54 -598.592C1205.67 -596.068 1195.71 -593.917 1185.95 -591.062C1163.84 -584.594 1154.54 -567.814 1160.76 -545.561C1164.16 -533.346 1170.02 -522.248 1179.32 -513.499C1199.4 -494.595 1217 -473.46 1234.61 -452.362C1247.34 -437.113 1263.83 -428.627 1282.84 -426.188C1310.74 -422.608 1334.15 -410.169 1356 -393.525C1366.62 -385.441 1378.37 -379.656 1391.81 -377.794C1408.97 -375.421 1429.68 -383.705 1433.52 -404.32C1435.77 -416.415 1436.46 -428.6 1437.65 -440.762C1439.67 -461.377 1446.98 -480.325 1455.98 -498.646C1466.09 -519.23 1470.02 -540.302 1465.61 -563.179C1463.18 -575.791 1462.14 -588.808 1465.08 -601.756C1467.56 -612.702 1473.7 -620.907 1483.66 -625.411C1504.52 -634.843 1530.61 -630.365 1545.05 -602.817C1549.66 -594.014 1553.99 -585.011 1559.3 -576.637C1570.21 -559.419 1587.4 -551.872 1606.48 -547.783C1615.08 -545.941 1623.74 -544.395 1632.1 -541.634C1662.01 -531.765 1673.75 -511.149 1666.93 -480.46C1666.02 -476.398 1665.02 -472.344 1663.79 -468.374C1656.83 -446.023 1656.41 -423.374 1660.44 -400.487C1662.73 -387.526 1665.44 -374.669 1665.19 -361.33C1665.03 -352.971 1663.6 -345.088 1659.39 -338.071C1647.47 -318.231 1634.15 -299.336 1619.11 -281.725C1606.95 -267.494 1590.56 -259.798 1573.33 -254.087C1558.57 -249.191 1549.72 -240.974 1549.42 -224.336C1549.22 -213.082 1544.91 -202.386 1537.98 -193.523C1520.43 -171.098 1506.58 -146.037 1488.48 -124.066C1474.67 -107.288 1459.66 -91.4351 1443.29 -77.1648C1420.19 -57.0121 1386.54 -58.4307 1361.08 -78.8582C1352.39 -85.833 1345.18 -94.3084 1336.51 -101.268C1325.73 -109.915 1313.65 -111.691 1300.54 -109.373C1290.3 -107.561 1280.13 -105.15 1269.82 -103.927C1246.61 -101.174 1224.24 -109.504 1214.92 -134.926C1210.24 -147.681 1207.68 -161.465 1199.44 -172.673C1177.1 -203.053 1147.85 -222.495 1110.08 -228.213C1094.76 -230.531 1079.57 -233.291 1065.12 -239.393C1044.75 -247.986 1029.88 -262.674 1017.22 -280.237C997.864 -307.113 983.864 -336.701 972.339 -367.586C965.389 -386.21 964.579 -405.147 970.311 -424.103C977.682 -448.477 976.102 -471.948 965.355 -495.037C961.564 -503.18 958.706 -511.715 956.755 -520.614C953.887 -533.683 956.87 -545.669 963.148 -556.676C986.107 -596.932 1018.1 -625.979 1064.56 -636.644C1071.75 -638.296 1078.85 -640.568 1085.78 -643.107C1098.45 -647.742 1103.16 -657.177 1099.54 -669.971C1097.3 -677.847 1093.29 -684.833 1088.57 -691.495C1079.75 -703.944 1070.93 -716.367 1065.21 -730.719C1056.04 -753.681 1039.89 -771.268 1021.31 -787.015C1003.86 -801.804 989.817 -819.357 978.852 -839.556C970.496 -854.947 957.993 -866.973 945.066 -878.722C930.361 -892.088 916.561 -906.464 902.581 -920.612C891.115 -932.217 877.837 -940.142 861.282 -940.869C847.889 -941.458 835.034 -938.783 823.79 -930.921C815.746 -925.297 812.686 -916.622 811.756 -907.538C809.048 -881.083 801.983 -855.901 792.092 -831.276C786.072 -816.29 786.195 -800.501 790.258 -784.89C794.274 -769.456 799.071 -754.209 802.618 -738.673C807.068 -719.186 806.359 -699.773 799.605 -680.688C796.361 -671.52 791.092 -663.544 784.707 -656.662C767.25 -637.846 748.59 -620.223 727.709 -605.167C714.371 -595.549 698.987 -592.286 682.865 -590.254C659.921 -587.363 637.188 -591.327 614.327 -590.741C593.614 -590.209 581.315 -603.239 573.554 -620.925C567.427 -634.889 562.203 -649.246 556.341 -663.331C546.539 -686.884 547.282 -709.97 557.794 -733.23C564.093 -747.167 568.124 -761.933 568.906 -777.386C569.794 -794.958 562.802 -806.537 543.685 -805.627C539.074 -805.407 534.405 -805.603 529.859 -804.941C510.18 -802.078 502.82 -787.495 497.973 -770.739C493.607 -755.644 490.788 -739.818 482.144 -726.476C466.791 -702.78 456.906 -676.674 446.31 -650.786C442.749 -642.088 437.175 -634.207 432.425 -626.008C429.637 -621.194 427.004 -616.324 425.163 -611.058C419.644 -595.259 424.3 -585.029 440.338 -579.534C451.041 -575.867 462.067 -573.13 472.974 -570.072C490.764 -565.086 505.857 -556.15 518.105 -541.952C529.649 -528.57 542.3 -516.296 561.153 -513.593C566.707 -512.797 572.245 -512.723 577.76 -512.985C600.888 -514.087 619.607 -505.588 632.499 -486.452C648.051 -463.368 668.8 -446.166 690.995 -429.983C710.763 -415.57 729.342 -399.516 746.773 -382.289C764.521 -364.75 764.288 -345.853 746.824 -328.198C740.625 -321.931 733.986 -316.29 726.848 -311.09C709.762 -298.646 691.368 -296.671 671.553 -302.797C663.391 -305.32 655.166 -307.723 646.613 -308.68C632.411 -310.271 619.507 -306.236 607.58 -299.042C591.421 -289.297 577.007 -277.403 565.733 -262.1C563.009 -258.402 560.614 -254.359 558.709 -250.181C552.385 -236.31 557.309 -225.545 571.895 -220.988C578.072 -219.058 584.413 -217.636 590.55 -215.597C617.341 -206.694 628.02 -187.928 621.775 -160.159C618.187 -144.202 609.74 -130.747 598.573 -118.967C594.119 -114.268 589.385 -109.835 584.871 -105.19C578.157 -98.2836 577.98 -93.8767 584.587 -86.6756C592.866 -77.6521 603.367 -71.7002 614.311 -66.6367C637.985 -55.6796 662.331 -47.4847 688.968 -47.8303C707.619 -48.0719 724.085 -55.1772 740.592 -62.499C754.278 -68.5688 768.18 -72.4025 783.533 -70.6564C807.589 -67.9206 816.479 -52.2456 813.484 -28.7006C810.443 -4.79739 809.282 18.4951 817.012 41.7875C825.336 66.8705 820.246 90.0256 805.542 111.605C799.044 121.14 793.026 130.994 788.028 141.485C772.554 173.958 782.402 202.557 807.552 225.611C824.404 241.058 845.464 250.404 862.873 264.964C872.968 273.407 883.018 281.913 893.306 290.116C905.253 299.642 918.488 303.619 934.112 301.059C945.152 299.251 956.542 298.485 967.86 300.579C978.277 302.509 987.255 306.739 993.558 315.48C1003.57 329.381 1010.93 344.768 1018.13 360.234C1017.2 360.234 1016.28 360.234 1015.35 360.234Z" fill="#3718B9"/>
<path d="M730.806 360.234C727.041 346.166 723.55 332.017 719.43 318.053C715.446 304.548 711.436 291.049 701.52 280.168C692.79 270.588 681.838 266.921 669.456 265.927C659.569 265.133 649.629 264.593 639.834 263.13C612.152 258.994 594.333 242.757 587.747 216.018C579.958 184.392 574.523 152.263 572.324 119.629C570.893 98.3731 568.173 77.2821 556.955 58.3231C544.712 37.6304 527.878 21.6043 496.404 27.5325C476.599 31.2621 456.628 32.9305 436.448 32.9111C428.181 32.9027 419.911 34.363 411.563 34.1742C399.515 33.8994 396.135 31.5592 392.783 19.9136C391.377 15.0306 389.953 10.0878 389.267 5.07148C385.917 -19.4757 371.912 -34.9175 349.134 -43.4608C339.562 -47.0503 330.659 -52.1762 324.163 -60.3503C315.304 -71.4961 316.198 -84.6241 317.876 -97.5605C319.36 -108.998 323.55 -119.983 324.027 -131.634C324.703 -148.122 318.139 -161.932 305.79 -171.893C280.539 -192.263 252.966 -208.372 220.056 -213.437C198.872 -216.697 179.208 -223.588 164.303 -240.227C147.156 -259.371 140.968 -281.91 144.096 -307.033C145.303 -316.721 151.232 -323.227 160.8 -326.397C175.18 -331.161 190.297 -331.995 204.996 -335.056C231.835 -340.644 254.511 -353.467 274.401 -372.105C297.079 -393.356 315.887 -418.017 336.531 -441.055C340.848 -445.873 345.588 -450.313 349.87 -455.16C366.891 -474.42 368.326 -497.442 366.756 -521.673C365.163 -546.255 353.011 -561.612 330.58 -570.891C313.295 -578.042 296.786 -586.852 284.249 -601.737C273.624 -614.353 266.467 -628.749 260.682 -643.866C249.189 -673.9 238.532 -704.209 233.137 -736.105C230.143 -753.808 231.498 -771.616 230.962 -789.383C230.608 -801.139 229.596 -812.815 226.842 -824.379C220.561 -850.761 189.789 -866.787 168.086 -861.164C149.016 -856.223 132.54 -847.123 117.428 -834.932C99.6727 -820.606 83.9519 -804.511 72.5798 -784.5C65.9159 -772.772 62.4111 -759.995 62.0627 -746.761C61.2258 -714.976 45.0553 -692.032 21.8142 -672.482C12.1314 -664.335 2.37768 -656.245 -5.79223 -646.323C-22.3278 -626.245 -17.7389 -609.356 2.0293 -593.455C14.634 -583.315 28.6891 -575.095 40.8246 -564.32C58.3442 -548.762 74.2385 -531.718 87.4831 -512.354C96.2637 -499.516 96.1415 -485.584 89.7622 -472.079C81.5825 -454.762 76.2678 -436.742 72.9116 -417.967C69.6594 -399.766 62.7609 -393.172 44.0754 -392.255C13.0572 -390.732 -17.4169 -385.452 -47.959 -380.49C-62.3209 -378.155 -76.8591 -376.687 -90.7463 -371.966C-96.4649 -370.023 -102.091 -367.751 -106.867 -364.042C-118.907 -354.693 -121.306 -342.228 -114.422 -326.798C-109.196 -315.086 -101.701 -304.834 -94.1372 -294.584C-81.8893 -277.982 -71.7234 -260.545 -72.7575 -238.774C-73.514 -222.856 -78.9606 -208.396 -86.9362 -194.983C-99.6019 -173.683 -110.692 -151.817 -119.734 -128.612C-130.763 -100.309 -151.352 -78.9485 -176.208 -61.7633C-193.517 -49.7972 -212.172 -39.8589 -228.903 -27.0336C-243.199 -16.0765 -258.195 -5.95361 -271.045 6.77319C-282.426 18.0426 -282.383 25.7433 -270.655 36.6935C-255.54 50.8083 -237.459 58.194 -216.736 58.9407C-198.91 59.5834 -181.234 56.749 -163.495 56.3701C-130.605 55.6677 -98.7275 62.4955 -67.4539 72.1783C-53.9859 76.3479 -40.7413 81.238 -27.2858 85.4548C3.35903 95.0599 29.5358 85.9309 52.9018 65.7573C60.8607 58.8852 66.7238 50.1698 72.6034 41.6362C86.771 21.0712 106.384 8.13345 129.766 1.10172C153.722 -6.10213 177.236 -14.1902 200.07 -24.4879C215.798 -31.5807 232.183 -33.0784 248.279 -24.7184C258.842 -19.2329 265.512 -10.3093 270.132 0.356326C275.547 12.8555 280.152 25.7669 290.943 35.1167C306.654 48.7304 324.97 56.2313 345.399 58.8561C351.571 59.6486 357.813 59.9165 364.025 60.3968C373.272 61.113 376.57 64.751 376.967 74.0591C377.378 83.6795 373.901 92.2242 369.936 100.597C360.437 120.661 349.403 139.983 340.803 160.482C339.38 163.873 338.348 167.469 337.515 171.058C335.626 179.189 338.577 186.035 345.545 190.814C350.844 194.448 356.792 196.347 363.031 197.04C392.793 200.343 395.039 213.145 396.135 237.294C397.108 258.748 389.353 278.031 377.375 295.743C367.939 309.694 357.78 323.205 351.287 338.998C348.446 345.92 347.019 353.151 344.935 360.234C344.009 360.234 343.085 360.234 342.159 360.234C343.862 343.97 350.419 329.561 359.15 316.006C365.783 305.708 372.737 295.61 379.146 285.176C390.264 267.076 395.117 247.553 391.989 226.228C389.909 212.037 383.739 204.885 369.616 201.682C364.436 200.508 359.107 199.956 353.963 198.651C337.193 194.401 330.877 183.732 334.94 166.89C336.742 159.423 339.973 152.516 343.228 145.601C352.581 125.735 364.046 106.88 371.683 86.1946C372.163 84.894 372.594 83.5698 372.969 82.2346C376.462 69.7604 371.892 63.7669 358.985 63.2394C343.675 62.6148 328.8 60.0983 314.374 54.3325C290.296 44.7079 275.789 27.0703 267.075 3.1352C259.579 -17.4548 241.629 -28.5562 221.268 -26.8115C211.922 -26.0106 203.175 -22.6002 194.94 -18.4486C177.47 -9.64439 159.018 -3.62037 140.288 1.50421C112.015 9.23968 88.7004 23.6349 72.4008 48.5777C60.9912 66.0363 46.0005 79.3086 26.2323 86.9316C3.03143 95.8775 -19.7252 93.0806 -42.1696 84.6303C-72.162 73.3373 -102.9 65.1133 -134.661 60.7951C-152.398 58.3827 -170.066 59.8416 -187.826 61.2504C-216.249 63.5032 -244.505 63.6447 -268.327 43.9459C-270.638 42.0346 -272.94 40.0858 -275.051 37.9621C-284.885 28.0683 -285.213 16.2742 -275.798 5.95148C-267.18 -3.49959 -256.501 -10.5452 -246.656 -18.5666C-225.612 -35.7115 -201.955 -48.9907 -179.631 -64.2382C-152.071 -83.0639 -130.538 -107.067 -119.492 -139.16C-112.504 -159.462 -101.609 -177.679 -90.7435 -195.963C-85.9993 -203.947 -82.2835 -212.4 -79.2465 -221.167C-71.872 -242.452 -77.1978 -261.635 -88.7628 -279.875C-97.6656 -293.917 -109.128 -306.268 -116.129 -321.579C-118.265 -326.249 -119.967 -331.005 -120.943 -336.016C-123.784 -350.61 -117.53 -363.174 -104.381 -370.139C-90.1633 -377.671 -74.5564 -380.024 -59.005 -382.111C-34.9546 -385.338 -11.2735 -390.957 12.9364 -393.027C24.8887 -394.048 36.8993 -394.362 48.771 -396.318C59.8364 -398.141 66.8778 -404.299 68.8655 -415.392C72.7144 -436.883 78.4248 -457.71 87.9813 -477.484C94.4981 -490.967 90.0023 -503.119 81.5312 -514.294C61.985 -540.075 39.5768 -562.842 12.5339 -580.907C3.34099 -587.048 -6.02682 -593.195 -12.4353 -602.625C-21.4242 -615.852 -21.3256 -630.086 -12.6477 -643.518C-4.32646 -656.396 7.84649 -665.352 18.9646 -675.387C36.1122 -690.865 52.6103 -706.767 56.5454 -731.098C57.6863 -738.158 58.4983 -745.278 59.2354 -752.395C61.2216 -771.567 68.4116 -788.444 80.5124 -803.478C98.7191 -826.1 119.684 -845.38 146.287 -857.575C164.024 -865.706 182.293 -869.109 201.2 -860.33C221.749 -850.786 230.232 -833.676 232.579 -812.354C234.583 -794.148 233.371 -775.859 234.113 -757.633C234.973 -736.489 240.02 -716.038 246.473 -695.937C254.669 -670.405 262.342 -644.673 275.57 -621.096C284.984 -604.319 298.027 -591.281 315.244 -582.556C324.737 -577.746 334.323 -573.119 343.781 -568.244C356.913 -561.476 365.023 -551.132 367.745 -536.246C370.562 -520.837 370.697 -505.348 369.642 -489.94C368.633 -475.198 362.001 -461.92 351.835 -451.565C328.015 -427.304 307.657 -400.042 283.922 -375.665C256.385 -347.384 223.415 -332.398 184.818 -328.161C177.438 -327.351 170.207 -325.785 163.196 -323.337C152.58 -319.628 147.163 -312.262 146.573 -300.969C144.572 -262.624 168.699 -229.848 205.89 -220.034C219.083 -216.553 232.723 -215.179 245.737 -210.812C269.114 -202.967 289.768 -190.256 308.568 -174.774C324.989 -161.25 329.516 -142.678 326.322 -122.106C325.259 -115.262 323.543 -108.516 322.03 -101.745C315.677 -73.327 324.108 -57.5521 351.206 -46.4409C363.016 -41.5981 374.386 -35.9919 382.032 -24.9446C387.73 -16.7108 389.914 -7.30693 392.102 2.16773C393.402 7.79756 394.553 13.4857 396.276 18.9906C399.332 28.7595 402.655 31.5605 412.96 31.0636C439.456 29.7853 466.059 29.9546 492.317 25.0618C499.958 23.6377 507.716 22.3426 515.715 23.2088C534.921 25.288 547.781 36.3451 557.617 51.8715C567.62 67.6617 572.705 85.1702 573.922 103.632C576.269 139.232 581.602 174.39 589.466 209.115C597.171 243.134 620.608 261.1 655.688 261.674C662.822 261.791 669.966 262.665 677.062 263.548C696.003 265.902 707.923 277.272 714.967 294.223C723.793 315.466 728.628 337.877 733.582 360.234C732.656 360.234 731.732 360.234 730.806 360.234Z" fill="#CFC4FF"/>
<path d="M313.01 360.234C314.051 336.601 324.208 316.696 338.19 298.307C343.509 291.313 348.491 284.077 352.274 276.088C359.387 261.073 356.562 250.424 342.147 241.995C333.6 236.995 324.331 233.231 315.393 228.897C307.813 225.223 301.119 220.21 295.632 213.935C282.911 199.385 283.546 183.27 291.119 166.675C295.245 157.636 299.938 148.839 303.702 139.657C311.548 120.519 308.32 109.122 291.659 96.9074C284.401 91.5857 276.621 86.976 269.064 82.0652C254.191 72.4004 242.44 60.0164 235.139 43.6377C232.882 38.5742 230.329 33.6301 227.691 28.7512C222.018 18.2619 211.19 12.9069 199.326 14.2297C177.48 16.667 155.861 20.2232 134.663 26.1903C112.916 32.3115 98.2116 47.4826 85.3835 64.7663C64.0912 93.4553 35.0246 107.605 0.187919 110.187C-15.6106 111.358 -31.0287 107.119 -45.8223 101.513C-67.6768 93.2305 -89.7686 85.8032 -112.524 80.3191C-135.192 74.8572 -157.767 74.4977 -180.42 80.0665C-203.365 85.706 -226.79 88.3308 -250.201 90.918C-267.368 92.8155 -278.118 101.455 -282.622 118.355C-286.071 131.3 -290.687 143.931 -294.286 156.84C-301.832 183.912 -296.666 209.858 -287.165 235.524C-277.242 262.331 -258.232 278.694 -231.951 289.165C-204.442 300.125 -177.389 311.915 -148.081 317.512C-128.507 321.25 -118.651 334.333 -115.794 353.424C-115.451 355.709 -114.936 357.966 -114.502 360.234C-115.89 360.234 -117.278 360.234 -118.666 360.234C-119.49 338.73 -128.893 325.189 -149.822 320.885C-182.993 314.06 -213.66 300.867 -244.446 287.594C-261.473 280.254 -274.865 268.971 -283.312 252.567C-298.783 222.528 -305.611 190.795 -297.84 157.309C-294.191 141.586 -288.659 126.29 -283.753 110.872C-280.004 99.0894 -271.995 91.9424 -259.745 89.3454C-244.789 86.1752 -229.511 85.6255 -214.447 83.338C-197.081 80.7022 -180.136 75.9801 -162.652 73.7995C-146.068 71.7314 -129.876 73.286 -113.794 76.6283C-89.9712 81.5794 -66.9869 89.4218 -44.3191 98.1941C-30.8567 103.405 -16.8667 107.366 -2.5215 107.168C15.4826 106.919 32.3554 101.106 48.3038 92.5795C64.2467 84.0557 76.038 71.1984 86.4995 56.9558C102.412 35.2915 123.853 23.2171 150.084 18.5964C166.694 15.6704 183.232 12.0213 200.043 10.8554C214.016 9.88653 224.633 14.1478 231.454 27.7088C238.816 42.3427 245.216 57.5138 258.041 68.7249C266.821 76.3993 276.613 82.508 286.506 88.4182C311.051 103.084 316.776 118.012 304.568 147.459C302.182 153.215 299.421 158.847 296.438 164.32C281.696 191.365 290.231 209.117 314.67 224.106C321.137 228.073 328.209 231.164 335.245 234.072C359.739 244.196 365.545 259.752 352.83 283.172C349.208 289.841 344.705 296.089 340.137 302.178C327.134 319.517 317.972 338.393 315.786 360.234C314.86 360.234 313.936 360.234 313.01 360.234Z" fill="#3718B9"/>
<path d="M22.912 360.234C2.5538 345.789 -17.9501 331.62 -40.2487 320.184C-50.806 314.77 -59.6603 306.705 -67.5928 298.016C-82.2767 281.93 -99.1079 277.373 -119.486 285.745C-130.874 290.424 -142.875 292.87 -155.202 293.704C-175.398 295.072 -193.678 288.946 -210.586 278.751C-234.021 264.621 -254.166 246.915 -267.516 222.456C-279.787 199.972 -278.648 178.394 -265.618 156.161C-249.753 129.087 -226.759 112.323 -197.38 102.959C-180.865 97.6958 -164.67 91.4705 -147.041 90.8486C-123.967 90.0353 -103.094 98.5813 -81.9284 105.888C-57.2534 114.406 -32.9075 124.232 -6.55997 126.438C7.72558 127.634 21.3588 123.932 34.8323 119.527C64.1655 109.937 87.2206 92.1825 105.78 67.5964C129.038 36.7851 188.156 30.3266 215.334 68.0684C224.448 80.7244 236.197 91.4844 246.767 103.087C259.534 117.102 264.226 133.229 259.282 151.739C257.075 159.997 254.733 168.244 251.932 176.315C243.307 201.176 247.947 222.592 267.558 240.607C272.984 245.59 278.21 250.814 282.704 256.779C290.254 266.797 293.172 277.873 288.112 289.32C279.502 308.799 281.13 328.522 284.527 348.501C285.192 352.419 285.372 356.301 285.249 360.234C284.323 360.234 283.398 360.234 282.473 360.234C281.464 351.055 280.915 341.795 279.337 332.715C276.926 318.844 278.037 305.386 283.582 292.597C290.4 276.872 285.512 264.364 274.451 252.964C268.665 247 262.892 241.025 257.266 234.892C244.735 221.234 243.244 205.264 245.684 188.206C247.263 177.171 250.952 166.629 254.55 156.152C261.141 136.956 257.352 120.372 243.706 105.558C231.979 92.8252 220.282 80.0401 209.107 66.8275C180.819 33.383 129.723 41.9097 107.792 71.426C81.9419 106.22 46.9789 124.757 4.60671 129.486C-13.5209 131.509 -31.2474 126.66 -48.4561 121.048C-68.2424 114.595 -88.0023 108.02 -107.54 100.859C-132.831 91.5885 -157.787 92.3532 -182.771 101.656C-196.636 106.818 -210.838 111.246 -223.747 118.617C-248.285 132.631 -264.213 154.281 -271.653 180.718C-277.822 202.636 -266.141 221.29 -252.632 237.743C-237.526 256.142 -219.168 270.623 -197.666 281.28C-175.914 292.061 -153.863 293.221 -131.032 285.899C-120.924 282.657 -111.001 278.696 -100.179 278.251C-89.1572 277.799 -79.044 281.214 -71.7125 288.91C-54.6981 306.771 -34.3607 319.505 -13.0268 331.334C0.059523 338.59 12.0049 347.905 24.4638 356.295C25.8824 357.245 26.704 358.589 27.076 360.234C25.688 360.234 24.3 360.234 22.912 360.234Z" fill="#CFC4FF"/>
<path d="M866.832 360.234C866.632 349.374 867.101 338.453 866.106 327.668C863.321 297.473 845.686 277.541 820.19 263.388C803.832 254.308 787.592 245.351 774.386 231.421C758.398 214.555 754.832 194.841 757.831 173.027C761.165 148.775 773.592 128.345 785.685 107.788C788.378 103.212 790.88 98.505 793.164 93.7107C800.404 78.5133 800.118 63.2727 792.66 48.2654C782.995 28.815 772.324 9.81575 768.319 -11.9471C766.544 -21.5939 759.314 -24.7475 750.536 -25.2818C745.464 -25.5914 740.36 -25.6913 735.283 -25.5192C698.567 -24.2686 662.485 -29.2988 626.52 -35.9822C599.46 -41.0096 572.216 -44.5199 544.571 -43.6246C532.538 -43.2346 521.279 -40.2989 510.868 -34.2485C503.501 -29.9651 503.386 -26.6227 510.725 -22.6751C559.195 3.39196 582.499 46.2389 590.631 98.6216C594.794 125.433 599.458 151.934 609.785 177.212C613.622 186.607 616.208 196.506 619.595 206.095C626.766 226.387 641.495 236.558 662.867 238.242C674.125 239.129 685.454 238.736 696.683 240.657C711.424 243.179 721.374 251.483 727.989 264.374C732.658 273.474 735.701 283.2 738.238 293.062C743.433 313.263 750.818 332.718 758.158 352.189C759.147 354.811 760.138 357.377 759.954 360.234C759.028 360.234 758.103 360.234 757.178 360.234C745.429 332.004 738.264 302.221 727.861 273.552C719.97 251.808 705.492 242.461 682.122 242.359C671.238 242.311 660.427 241.563 649.767 239.37C634.194 236.167 623.346 226.715 618.081 212.088C604.784 175.141 591.299 138.343 587.347 98.6466C584.055 65.5699 568.984 36.9947 547.961 11.3662C537.165 -1.7951 524.016 -11.5376 509.072 -19.2509C505.221 -21.2385 500.565 -23.1707 500.841 -28.4951C501.083 -33.152 505.115 -35.3617 508.747 -37.441C519.416 -43.5469 530.945 -46.1508 543.215 -46.6102C582.607 -48.0857 620.939 -40.3711 659.415 -33.753C687.073 -28.9962 714.973 -28.1023 742.978 -28.4396C766.396 -28.7214 768.701 -27.0169 773.953 -4.03673C777.419 11.1288 784.548 24.6329 791.956 37.8983C806.011 63.0673 803.571 86.7554 788.701 110.586C776.951 129.415 765.994 148.679 761.505 170.961C756.532 195.64 763.474 215.857 781.572 233.113C793.845 244.815 808.569 252.44 823.062 260.571C848.472 274.829 865.959 294.715 869.111 324.881C870.339 336.65 869.472 348.449 869.608 360.234C868.682 360.234 867.757 360.234 866.832 360.234Z" fill="#3718B9"/>
<path d="M235.281 360.234C227.597 347.628 217.148 336.88 211.072 323.154C201.703 301.987 198.588 280.006 200.074 256.984C201.945 227.969 211.658 200.997 220.371 173.722C223.336 164.44 225.48 155.086 225.591 145.212C225.694 136.043 223.272 127.659 218.421 120.25C208.814 105.577 196.427 93.5761 181.138 84.7733C158.214 71.5745 140.705 76.8588 124.144 95.2001C109.719 111.176 93.8244 124.111 74.2116 132.675C60.8713 138.501 47.6004 144.489 34.2643 150.323C15.3275 158.605 -4.0938 159.506 -24.0883 154.599C-39.1234 150.91 -54.2723 147.631 -69.467 144.661C-84.237 141.774 -97.3621 135.064 -110.583 128.392C-119.881 123.699 -129.389 119.479 -139.925 118.282C-165.348 115.392 -206.522 135.224 -200.874 176.555C-199.053 189.886 -201.303 203.275 -202.37 216.626C-203.47 230.36 -199.2 242.275 -188.025 250.85C-176.61 259.609 -163.93 257.896 -152.16 245.754C-137.737 230.875 -120.607 226.327 -100.36 229.174C-79.1388 232.158 -62.3159 242.128 -50.0208 259.109C-30.3636 286.256 -2.59612 303.346 24.5106 321.419C38.6143 330.823 55.0513 334.447 70.4765 340.568C77.8968 343.512 84.3761 347.829 90.6098 352.652C93.1138 354.587 94.5184 357.163 95.0903 360.234C93.7023 360.234 92.3143 360.234 90.9262 360.234C85.9127 351.833 77.6456 347.655 69.1384 344.147C60.3855 340.536 51.2981 337.741 42.3911 334.497C24.5328 327.994 10.0141 315.874 -5.78025 305.877C-27.4348 292.172 -43.5317 272.942 -59.984 253.768C-78.5169 232.169 -122.964 218.826 -149.274 248.573C-158.155 258.614 -169.667 261.658 -182.033 257.993C-195.49 254.005 -201.941 243.343 -204.913 229.94C-206.988 220.582 -205.149 211.511 -204.286 202.401C-203.429 193.371 -203.454 184.504 -204.291 175.474C-207.065 145.519 -190.55 123.394 -157.491 115.983C-140.663 112.21 -124.978 116.129 -110.744 124.268C-77.7313 143.148 -40.6558 147.016 -4.54073 154.356C8.35125 156.977 20.7033 151.857 32.4237 146.954C49.0481 140.001 65.3283 132.219 81.6945 124.658C96.9045 117.632 108.723 106.526 119.631 93.9773C135.658 75.5374 157.37 67.9809 181.153 80.4884C197.922 89.3066 211.433 101.872 221.353 117.737C232.58 135.69 229.873 155.085 223.96 174.082C217.776 193.948 210.828 213.578 206.497 233.983C197.79 275.005 203.385 312.938 230.398 346.398C233.846 350.67 237.821 354.718 239.445 360.234C238.057 360.234 236.669 360.234 235.281 360.234Z" fill="#3718B9"/>
<path d="M703.045 360.234C702.046 347.793 700.92 335.323 697.324 323.339C690.002 298.946 679.012 290.398 653.576 288.131C632.746 286.276 612.452 282.492 593.709 272.361C567.274 258.072 553.924 235.732 553.187 206.148C552.428 175.669 555.393 145.209 554.474 114.702C554.157 104.225 552.569 93.98 549.137 84.1084C540.541 59.3918 521.604 48.221 495.708 51.723C486.08 53.0249 476.561 54.7961 466.999 56.4173C439.887 61.0144 422.932 77.1586 413.995 102.565C413.381 104.31 412.87 106.092 412.216 107.82C406.798 122.158 410.021 134.506 420.707 145.195C424.792 149.28 429.014 153.261 432.773 157.632C447.338 174.566 448.726 193.75 440.164 213.413C431.854 232.501 424.183 251.789 417.13 271.356C413.199 282.26 407.596 292.427 402.132 302.59C392.422 320.653 385.913 339.351 387.963 360.234C387.038 360.234 386.113 360.234 385.187 360.234C382.872 339.202 388.181 319.916 398.436 301.71C410.179 280.865 418.104 258.396 426.342 236.046C429.134 228.473 432.752 221.198 436.138 213.853C446.403 191.583 443.321 173.646 426.129 156.219C423.693 153.75 421.229 151.307 418.772 148.857C408.789 138.902 403.797 127.344 407.333 113.076C415.874 78.6174 431.441 59.947 464.163 53.5357C476.867 51.047 489.586 48.7596 502.521 47.8421C531.453 45.792 548.382 64.9772 554.177 88.4834C556.443 97.6763 557.398 107.069 557.498 116.637C557.788 144.147 556.345 171.616 556.087 199.106C555.733 236.7 574.975 263.189 610.368 275.949C625.113 281.265 640.327 283.704 655.75 285.133C682.099 287.575 693.541 296.458 700.568 321.887C704.013 334.358 705.713 347.227 705.821 360.234C704.895 360.234 703.971 360.234 703.045 360.234Z" fill="#3718B9"/>
<path d="M165.88 360.234C171.493 341.219 171.082 321.826 168.786 302.482C164.95 270.157 168.066 238.938 181.065 208.814C187.563 193.753 193.263 178.382 195.712 161.949C198.339 144.335 186.497 127.028 168.997 124.06C157.547 122.119 148.668 128.021 140.922 134.98C124.33 149.883 106.349 161.703 84.3192 167.151C65.1131 171.901 49.6339 184.252 33.0845 194.331C23.6098 200.101 13.8603 205.445 4.60636 211.544C-16.9302 225.738 -19.1067 247.236 -1.19422 265.991C20.1092 288.298 45.288 304.598 74.4656 314.668C96.4867 322.269 115.979 333.754 131.501 351.453C133.819 354.096 136.151 356.611 136.731 360.234C135.343 360.234 133.955 360.234 132.567 360.234C123.332 346.198 110.529 336.165 96.0384 328.177C80.0011 319.337 61.9582 315.045 45.8043 306.449C26.6815 296.274 9.26317 283.698 -5.1362 267.464C-20.4114 250.243 -22.6364 222.775 1.99272 208.645C25.8154 194.978 47.7476 178.061 73.1734 167.175C76.7781 165.631 80.4828 164.128 84.2915 163.291C105.134 158.706 121.692 146.811 137.141 132.891C152.89 118.699 169.804 116.365 184.424 126.474C197.397 135.446 200.219 148.689 198.737 163.209C197.245 177.826 192.041 191.489 186.626 205.036C177.413 228.087 169.003 251.365 170.202 276.754C170.724 287.804 172.521 298.808 172.771 309.854C173.153 326.685 173.945 343.607 170.044 360.234C168.656 360.234 167.268 360.234 165.88 360.234Z" fill="#CFC4FF"/>
<path d="M669.733 360.234C669.643 357.007 669.73 353.763 669.433 350.555C667.815 333.119 659.114 321.405 641.889 316.507C624.351 311.52 606.708 306.798 588.52 305.26C575.983 304.199 566.319 310.548 559.321 320.622C549.713 334.455 539.489 347.773 528.154 360.234C526.766 360.234 525.378 360.234 523.99 360.234C525.545 354.522 530.675 351.52 534.169 347.365C540.863 339.405 547.413 331.366 552.817 322.509C564.533 303.307 581.826 299.094 602.418 303.588C615.481 306.439 628.628 309.073 641.467 312.747C664.054 319.209 672.603 331.194 672.591 354.7C672.591 356.544 672.538 358.389 672.509 360.234C671.583 360.234 670.659 360.234 669.733 360.234Z" fill="#3718B9"/>
<path d="M288.237 -131.339C285.523 -114.429 281.379 -95.2935 272.208 -77.6072C267.696 -68.9057 259.454 -65.9048 250.53 -64.5418C243.695 -63.498 236.764 -63.0774 229.873 -62.3986C214.572 -60.894 200.654 -55.4988 187.969 -47.0041C168.498 -33.9663 146.343 -27.129 124.703 -19.0437C105.699 -11.944 88.3003 -1.96543 73.0432 11.4568C66.5861 17.138 62.1236 24.5514 57.3738 31.665C51.0916 41.0744 45.2383 50.8558 36.4701 58.2943C18.0482 73.9207 -3.22465 77.9765 -25.9397 71.3473C-59.7145 61.4909 -93.6628 52.5812 -128.33 46.4683C-147.69 43.0552 -167.238 41.3951 -186.787 39.6878C-195.331 38.9424 -203.779 37.8209 -211.738 34.3092C-225.528 28.2227 -230.847 15.7582 -225.357 1.71004C-219.164 -14.1412 -206.444 -24.2655 -193.222 -33.6902C-177.612 -44.8166 -161.106 -54.6174 -146.454 -67.1665C-119.554 -90.205 -96.2834 -115.455 -86.6838 -150.974C-81.9743 -168.401 -73.6405 -184.513 -64.8807 -200.356C-57.3937 -213.896 -49.9608 -227.606 -48.9018 -243.598C-47.579 -263.568 -52.4246 -281.611 -65.8523 -296.818C-71.9624 -303.737 -79.4869 -309.377 -84.6615 -317.153C-86.5714 -320.023 -88.4827 -322.999 -89.7305 -326.187C-94.4609 -338.269 -89.4696 -347.814 -77.1134 -351.553C-64.8141 -355.276 -53.1241 -352.446 -41.9256 -347.936C-29.3681 -342.878 -17.3103 -341.27 -4.35446 -346.579C23.1909 -357.865 47.9172 -348.318 72.5657 -336.037C98.401 -323.164 114.018 -302.476 123.687 -275.927C130.023 -258.528 138.396 -241.969 150.578 -227.683C166.112 -209.468 186.049 -199.338 209.383 -195.013C230.975 -191.012 251.458 -184.198 268.816 -169.922C280.236 -160.533 287.995 -149.361 288.237 -131.339ZM285.088 -131.361C285.246 -144.802 277.427 -157.903 266.305 -166.945C248.877 -181.112 228.496 -188.057 206.902 -192.064C183.602 -196.388 163.633 -206.434 148.03 -224.598C135.635 -239.026 127.178 -255.778 120.745 -273.38C111.138 -299.672 95.7082 -320.228 70.1117 -332.989C46.3973 -344.81 22.855 -354.629 -3.91723 -343.106C-16.812 -337.555 -29.6943 -338.838 -42.2837 -344.287C-48.9406 -347.169 -55.9279 -348.686 -62.9833 -349.893C-71.5627 -351.362 -82.7821 -346.834 -86.2341 -340.537C-90.7382 -332.318 -85.8885 -325.969 -81.6036 -319.601C-76.7789 -312.432 -70.1247 -306.949 -64.1492 -300.85C-58.0516 -294.628 -53.6849 -287.409 -50.6992 -279.266C-42.0005 -255.537 -43.6176 -232.441 -55.5365 -210.275C-68.5881 -186.002 -80.3447 -161.257 -88.6506 -134.863C-95.563 -112.896 -110.075 -95.7154 -126.292 -79.9558C-146.101 -60.7067 -168.741 -45.1774 -191.653 -29.905C-204.343 -21.4464 -215.959 -11.3499 -222.069 3.40068C-226.234 13.4583 -223.707 21.9974 -214.703 28.2394C-208.888 32.2702 -202.322 34.5299 -195.34 35.2878C-179.974 36.9562 -164.512 37.8862 -149.221 40.057C-109.353 45.7188 -69.9706 53.7138 -31.6639 66.4295C-8.1202 74.2455 13.8314 72.3106 33.4067 55.7098C39.8402 50.2534 44.6276 43.4827 49.3482 36.6383C55.8997 27.1401 61.3213 16.6771 69.9771 8.89864C85.0815 -4.67347 102.533 -14.6201 121.516 -21.7545C143.348 -29.9591 165.76 -36.7715 185.394 -49.9786C198.282 -58.6482 212.504 -63.8408 227.984 -65.4551C234.869 -66.1727 241.823 -66.4461 248.635 -67.5787C256.752 -68.9279 264.4 -71.6373 268.794 -79.4672C278.24 -96.2942 281.591 -114.976 285.088 -131.361Z" fill="#3718B9"/>
<path d="M536.529 114.849C535.784 130.681 533.396 146.145 524.399 159.675C515.471 173.1 504.482 175.403 491.456 165.83C476.425 154.785 464.27 140.704 455.221 124.494C446.103 108.161 452.066 90.0115 468.882 80.6312C481.077 73.8285 494.469 71.2398 508.369 73.276C524.632 75.6593 535.502 89.595 536.514 108.615C536.625 110.689 536.529 112.771 536.529 114.849ZM533.563 115.063C533.563 113.677 533.634 112.288 533.552 110.907C532.24 88.4388 518.275 74.6432 497.376 75.923C486.682 76.5782 476.422 79.6304 467.614 86.0958C454.716 95.5622 450.706 108.897 458.121 121.843C467.233 137.751 479.107 151.712 493.854 162.738C505.272 171.275 512.724 169.604 521.044 157.689C529.964 144.92 532.194 130.091 533.563 115.063Z" fill="#CFC4FF"/>
<path d="M483.661 307.231C483.808 320.032 480.302 326.531 472.044 329.062C462.17 332.087 448.37 326.92 442.76 318.093C434.514 305.125 446.981 279.791 462.299 278.388C472.466 277.456 482.184 287.065 483.619 299.633C483.905 302.135 483.661 304.698 483.661 307.231ZM480.965 305.167C481.21 302.858 480.321 298.844 478.706 294.955C472.452 279.901 461.88 277.959 450.815 289.757C447.893 292.872 446.048 296.503 444.75 300.484C442.21 308.27 443.415 315.127 450.176 320.284C456.385 325.018 463.089 328.833 471.178 325.387C479.154 321.988 480.778 314.861 480.965 305.167Z" fill="#CFC4FF"/>
<path d="M777.98 79.4626C778.914 89.7868 775.607 98.759 771.2 107.157C758.528 131.301 745.745 155.4 732.378 179.163C719.578 201.924 698.627 211.208 673.451 211.661C658.936 211.92 648.269 204.443 641.746 191.733C626.806 162.621 614.485 132.639 609.556 99.8805C605.815 75.0237 595.764 51.9589 586.48 28.7747C583.786 22.0484 582.187 15.0749 581.14 7.99878C579.665 -1.97001 585.583 -11.2393 595.588 -14.5219C606.219 -18.01 617.318 -19.5119 628.416 -18.6013C644.508 -17.2813 660.524 -15.4214 676.366 -11.7334C695.28 -7.33057 710.465 2.07331 721.764 17.7663C727.728 26.0514 735.773 31.7687 744.494 36.6698C752.577 41.2128 760.305 46.132 766.973 52.7293C774.625 60.2996 779.345 68.8248 777.98 79.4626ZM775.196 78.4355C775.819 71.1997 772.166 64.2235 766.511 57.9802C759.422 50.1503 750.771 44.4969 741.608 39.4348C732.853 34.5975 724.929 28.7359 718.877 20.5188C711.236 10.1433 702.202 0.896265 689.91 -3.48157C663.314 -12.9548 635.873 -17.8948 607.582 -13.9903C591.432 -11.7625 579.576 -4.33241 586.626 17.8371C587.535 20.6978 588.459 23.5613 589.556 26.354C598.772 49.8186 608.912 73.0833 612.669 98.1857C617.541 130.728 630.078 160.385 644.747 189.366C651.106 201.934 664.717 210.188 677.465 208.639C700.241 205.873 718.941 196.261 730.288 175.241C742.913 151.852 755.661 128.528 768.056 105.018C772.152 97.2502 775.293 88.9859 775.196 78.4355Z" fill="#CFC4FF"/>
<path d="M131.168 252.507C131.173 260.574 131.773 268.653 129.265 276.571C125.954 287.022 121.075 291.061 110.12 290.872C85.1172 290.443 66.1457 278.217 51.1689 259.289C44.8422 251.294 46.6314 238.777 54.0421 231.284C64.9839 220.222 79.139 217.082 93.877 215.919C100.061 215.43 106.297 215.6 112.503 216.91C125.532 219.659 130.11 224.486 131.111 237.951C131.469 242.778 131.168 247.653 131.168 252.507ZM128.113 252.492C128.113 248.1 128.589 243.645 128.011 239.329C126.869 230.78 124.423 223.06 114.316 220.723C97.0723 216.736 80.645 218.841 65.3934 227.546C47.9681 237.493 46.3844 249.187 60.0634 263.685C71.8283 276.155 86.2415 284.149 103.069 287.466C116.171 290.049 123.142 285.33 126.757 272.464C128.611 265.86 128.256 259.184 128.113 252.492Z" fill="#3718B9"/>
<path d="M49.4421 -303.504C75.8437 -303.55 90.6248 -291.453 100.83 -272.373C110.525 -254.249 117.58 -234.789 128.919 -217.478C141.159 -198.793 155.972 -182.367 172.338 -167.306C180.429 -159.86 190.929 -157.442 201.107 -154.272C217.378 -149.204 221.507 -133.621 208.016 -123.19C192.585 -111.261 182.222 -95.7667 170.911 -80.6192C161.296 -67.7425 147.999 -59.4143 133.197 -53.2598C110.758 -43.9309 89.3616 -32.5283 68.3289 -20.3581C50.2901 -9.92013 38.9514 5.9436 29.9972 24.0726C20.61 43.076 5.80391 53.2156 -15.9728 52.2759C-21.3223 52.0455 -26.637 51.6193 -31.7741 50.4367C-64.8743 42.8193 -98.6144 38.075 -131.266 28.4796C-143.233 24.9623 -155.34 21.6477 -166.625 16.2552C-183.323 8.27686 -185.498 -4.24174 -172.81 -17.9443C-163.527 -27.97 -152.493 -36.0678 -142.28 -45.0677C-126.497 -58.9757 -109.336 -71.157 -92.9138 -84.2656C-76.7294 -97.1839 -69.3091 -115.27 -64.4496 -134.649C-59.3555 -154.965 -53.1219 -174.745 -39.3249 -191.159C-34.1268 -197.342 -28.658 -203.297 -23.4834 -209.499C-13.2509 -221.762 -8.81615 -236.553 -5.24477 -251.733C-2.00234 -265.515 4.24793 -277.488 14.6123 -287.57C25.5028 -298.157 37.8118 -304.069 49.4421 -303.504ZM56.3836 -300.475C40.0646 -300.453 29.3601 -295.508 19.7564 -287.016C7.22666 -275.936 0.329543 -261.985 -3.16134 -245.983C-6.35102 -231.357 -11.4964 -217.58 -21.2362 -205.925C-26.2692 -199.902 -31.5964 -194.126 -36.6502 -188.122C-50.3139 -171.89 -56.4087 -152.293 -61.4695 -132.209C-66.3484 -112.845 -73.5897 -94.5966 -89.8241 -81.7365C-109.738 -65.9616 -130.203 -50.8766 -149.175 -33.9344C-158.105 -25.9602 -168.295 -19.2282 -174.718 -8.74447C-179.116 -1.5656 -177.794 4.41399 -170.972 9.28596C-166.227 12.6755 -160.924 14.895 -155.472 16.9201C-114.04 32.305 -70.4722 38.9203 -27.4545 47.5538C0.269891 53.1184 15.1037 44.4821 28.2469 19.1992C35.9796 4.32655 44.8046 -9.63005 59.3942 -19.045C78.288 -31.2374 98.009 -41.8961 118.616 -50.7933C138.954 -59.5753 158.946 -68.66 171.691 -88.0326C180.746 -101.796 190.551 -114.479 203.999 -124.692C217.277 -134.776 214.296 -146.481 198.274 -151.418C188.074 -154.561 177.596 -157.04 169.522 -164.504C153.018 -179.763 138.03 -196.335 125.725 -215.283C114.578 -232.45 107.56 -251.665 97.9924 -269.604C88.3331 -287.708 74.4265 -299.572 56.3836 -300.475Z" fill="#CFC4FF"/>
<path d="M132.678 -122.005C132.185 -92.7774 121.149 -85.0142 97.2987 -76.2391C91.2566 -74.0168 84.844 -72.6177 78.4882 -71.4657C58.9309 -67.922 44.4441 -57.1912 32.8388 -41.3899C23.0991 -28.1287 13.7341 -14.6427 6.17904 -0.0697907C-3.58571 18.7685 -18.9248 27.1632 -39.6424 25.7183C-61.0777 24.2234 -82.4838 22.1025 -102.982 14.9847C-110.679 12.3114 -117.933 8.80383 -123.321 2.30787C-128.709 -4.18947 -129.917 -11.0324 -126.28 -18.9192C-119.929 -32.6967 -108.075 -40.0088 -95.1759 -46.1647C-91.6379 -47.854 -87.9721 -49.3933 -84.2175 -50.494C-58.4446 -58.0532 -45.6901 -76.9081 -39.7271 -101.616C-37.1801 -112.172 -34.7247 -122.761 -32.644 -133.417C-28.8075 -153.055 -16.4263 -166.999 -1.63554 -178.836C12.3655 -190.042 21.2183 -203.997 25.5725 -221.125C27.5657 -228.963 29.3563 -236.839 32.5529 -244.34C35.261 -250.693 39.3182 -255.958 44.6329 -260.152C54.3088 -267.789 69.0871 -265.274 77.3639 -254.749C81.2518 -249.803 84.3693 -244.286 86.3083 -238.369C93.2859 -217.088 104.292 -197.888 115.922 -178.935C126.944 -160.982 131.62 -141.099 132.678 -122.005ZM-39.9825 22.7951C-19.4314 22.8923 -6.32569 14.7835 2.33004 -1.15385C10.3889 -15.9918 19.6567 -30.0498 29.6533 -43.7079C41.5348 -59.9423 56.3409 -70.9493 76.4076 -74.5207C82.5399 -75.6117 88.5778 -77.3301 94.5782 -79.0457C118.209 -85.8039 130.919 -100.908 129.558 -121.773C128.293 -141.142 123.324 -159.647 112.997 -176.328C101.289 -195.24 90.3766 -214.493 83.3782 -235.768C81.36 -241.903 78.1453 -247.642 73.9632 -252.664C66.1292 -262.071 55.4581 -263.872 47.1299 -257.096C42.0581 -252.969 38.1328 -247.904 35.508 -241.783C32.3864 -234.503 30.5681 -226.873 28.6831 -219.243C24.3261 -201.6 15.3719 -187.156 0.824042 -175.805C-16.2625 -162.473 -28.0608 -145.6 -31.5558 -123.449C-33.4963 -111.152 -36.1058 -98.8833 -40.5308 -87.1379C-46.069 -72.4387 -54.1792 -59.7702 -69.0131 -52.9092C-76.5584 -49.4197 -84.5117 -46.8157 -92.0876 -43.3873C-102.682 -38.5944 -112.741 -32.8924 -119.482 -22.9139C-127.843 -10.5341 -126.057 -2.2032 -113.402 5.95978C-112.047 6.83424 -110.573 7.53379 -109.12 8.24446C-86.5341 19.2931 -61.8314 19.9941 -39.9825 22.7951Z" fill="#3718B9"/>
</g>
</g>
<defs>
<linearGradient id="paint0_linear_147_1606" x1="411.202" y1="-11.6685" x2="261.505" y2="332.258" gradientUnits="userSpaceOnUse">
<stop stop-color="#886BFF"/>
<stop offset="1" stop-color="#5E3AF5"/>
</linearGradient>
<clipPath id="clip0_147_1606">
<rect width="600" height="300" fill="white"/>
</clipPath>
</defs>
</svg>
