<svg width="600" height="300" viewBox="0 0 600 300" fill="none" xmlns="http://www.w3.org/2000/svg">
<g clip-path="url(#clip0_147_1601)">
<rect width="600" height="300" fill="#60CBEE"/>
<g opacity="0.8">
<path opacity="0.2" fill-rule="evenodd" clip-rule="evenodd" d="M864.832 -312.699L864.231 -331.118L868.229 -331.249L868.83 -312.829L883.251 -313.3L883.382 -309.302L868.961 -308.831L872.947 -186.729L887.369 -187.2L887.499 -183.202L873.078 -182.731L877.065 -60.6281L891.486 -61.0989L891.616 -57.1011L877.195 -56.6302L881.182 65.4725L895.603 65.0016L895.734 68.9995L881.312 69.4704L885.299 191.573L899.72 191.102L899.851 195.1L885.43 195.571L889.416 317.672L903.837 317.201L903.968 321.199L889.547 321.67L893.533 443.772L907.955 443.301L908.085 447.299L893.664 447.77L897.651 569.873L912.072 569.402L912.202 573.4L897.781 573.871L901.768 695.972L916.189 695.502L916.319 699.499L901.898 699.97L902.369 714.392L898.371 714.523L897.9 700.101L775.798 704.088L776.269 718.511L772.271 718.641L771.8 704.218L649.698 708.205L650.168 722.627L646.171 722.757L645.7 708.335L523.597 712.322L524.068 726.744L520.07 726.875L519.599 712.452L397.497 716.439L397.968 730.861L393.97 730.992L393.499 716.57L271.396 720.556L271.867 734.979L267.869 735.11L267.399 720.687L145.296 724.673L145.767 739.097L141.769 739.227L141.298 724.804L19.196 728.79L19.6669 743.213L15.6691 743.343L15.1982 728.921L-106.905 732.908L-106.434 747.33L-110.432 747.46L-110.902 733.038L-129.322 733.64L-129.452 729.642L-111.033 729.04L-115.02 606.939L-133.439 607.54L-133.569 603.542L-115.15 602.941L-119.137 480.838L-137.556 481.44L-137.686 477.442L-119.267 476.84L-123.254 354.737L-141.673 355.339L-141.804 351.341L-123.384 350.74L-127.371 228.639L-145.79 229.24L-145.921 225.242L-127.502 224.641L-131.488 102.538L-149.907 103.14L-150.038 99.1418L-131.619 98.5404L-135.605 -23.5623L-154.025 -22.9609L-154.155 -26.9588L-135.736 -27.5602L-139.723 -149.663L-158.142 -149.062L-158.272 -153.059L-139.853 -153.661L-143.84 -275.763L-162.259 -275.162L-162.39 -279.16L-143.97 -279.761L-144.572 -298.181L-140.574 -298.311L-139.972 -279.892L-17.8698 -283.879L-18.4711 -302.298L-14.4733 -302.428L-13.8719 -284.009L108.23 -287.996L107.629 -306.414L111.627 -306.544L112.228 -288.126L234.331 -292.113L233.729 -310.531L237.727 -310.662L238.329 -292.243L360.431 -296.23L359.83 -314.649L363.828 -314.78L364.429 -296.361L486.531 -300.347L485.93 -318.766L489.928 -318.897L490.529 -300.478L612.632 -304.464L612.03 -322.884L616.028 -323.014L616.63 -304.595L738.732 -308.582L738.13 -327L742.128 -327.13L742.73 -308.712L864.832 -312.699ZM-107.035 728.91L15.0676 724.923L11.081 602.821L-111.022 606.808L-107.035 728.91ZM19.0655 724.793L141.168 720.806L137.181 598.704L15.0789 602.691L19.0655 724.793ZM145.166 720.675L267.268 716.689L263.281 594.587L141.179 598.574L145.166 720.675ZM271.266 716.558L393.369 712.572L389.382 590.47L267.279 594.457L271.266 716.558ZM397.367 712.441L519.469 708.455L515.482 586.353L393.38 590.339L397.367 712.441ZM523.467 708.324L645.569 704.337L641.583 582.236L519.48 586.222L523.467 708.324ZM649.567 704.207L771.669 700.22L767.683 578.118L645.58 582.105L649.567 704.207ZM775.667 700.09L897.77 696.103L893.783 574.001L771.68 577.988L775.667 700.09ZM889.666 447.901L893.653 570.003L771.55 573.99L767.563 451.887L889.666 447.901ZM763.565 452.018L767.552 574.121L645.45 578.107L641.463 456.005L763.565 452.018ZM637.465 456.135L641.452 578.238L519.35 582.224L515.363 460.122L637.465 456.135ZM511.365 460.252L515.352 582.355L393.249 586.342L389.263 464.239L511.365 460.252ZM385.265 464.369L389.252 586.472L267.149 590.459L263.162 468.356L385.265 464.369ZM259.164 468.487L263.151 590.589L141.048 594.576L137.062 472.473L259.164 468.487ZM133.064 472.604L137.051 594.706L14.9484 598.693L10.9617 476.59L133.064 472.604ZM6.96384 476.721L10.9505 598.824L-111.152 602.81L-115.139 480.708L6.96384 476.721ZM-115.269 476.71L6.83331 472.723L2.84666 350.62L-119.256 354.607L-115.269 476.71ZM10.8312 472.593L132.933 468.606L128.947 346.503L6.84453 350.49L10.8312 472.593ZM136.931 468.475L259.034 464.489L255.047 342.386L132.945 346.373L136.931 468.475ZM263.032 464.358L385.134 460.372L381.148 338.269L259.045 342.255L263.032 464.358ZM389.132 460.241L511.234 456.254L507.248 334.152L385.146 338.138L389.132 460.241ZM515.232 456.124L637.335 452.137L633.348 330.034L511.246 334.021L515.232 456.124ZM641.333 452.007L763.435 448.02L759.448 325.917L637.346 329.904L641.333 452.007ZM767.433 447.89L889.535 443.903L885.549 321.8L763.446 325.787L767.433 447.89ZM881.432 195.701L885.418 317.802L763.316 321.789L759.329 199.688L881.432 195.701ZM755.331 199.819L759.318 321.919L637.215 325.906L633.229 203.805L755.331 199.819ZM629.231 203.936L633.218 326.037L511.115 330.023L507.129 207.922L629.231 203.936ZM503.131 208.053L507.117 330.154L385.015 334.14L381.028 212.04L503.131 208.053ZM377.031 212.17L381.017 334.271L258.914 338.258L254.928 216.157L377.031 212.17ZM250.93 216.287L254.917 338.388L132.814 342.375L128.827 220.274L250.93 216.287ZM124.83 220.404L128.816 342.505L6.714 346.492L2.7274 224.391L124.83 220.404ZM-1.27047 224.522L2.71613 346.622L-119.387 350.609L-123.373 228.508L-1.27047 224.522ZM-123.504 224.51L-1.401 220.524L-5.38766 98.4211L-127.49 102.408L-123.504 224.51ZM2.59687 220.393L124.699 216.407L120.712 94.304L-1.38979 98.2906L2.59687 220.393ZM128.697 216.276L250.799 212.289L246.813 90.1868L124.71 94.1734L128.697 216.276ZM254.797 212.159L376.9 208.172L372.913 86.0696L250.811 90.0562L254.797 212.159ZM380.898 208.042L503 204.055L499.013 81.9524L376.911 85.9391L380.898 208.042ZM506.998 203.925L629.1 199.938L625.114 77.8352L503.011 81.8219L506.998 203.925ZM633.098 199.807L755.201 195.821L751.214 73.7181L629.112 77.7047L633.098 199.807ZM759.198 195.69L881.301 191.704L877.315 69.6009L755.212 73.5876L759.198 195.69ZM873.197 -56.4997L877.184 65.603L755.081 69.5897L751.095 -52.513L873.197 -56.4997ZM747.097 -52.3825L751.083 69.7202L628.981 73.7068L624.995 -48.3959L747.097 -52.3825ZM620.997 -48.2654L624.983 73.8374L502.881 77.824L498.894 -44.2787L620.997 -48.2654ZM494.896 -44.1482L498.883 77.9545L376.781 81.9412L372.794 -40.1615L494.896 -44.1482ZM368.796 -40.031L372.783 82.0717L250.68 86.0584L246.693 -36.0443L368.796 -40.031ZM242.696 -35.9138L246.682 86.1889L124.58 90.1756L120.593 -31.9272L242.696 -35.9138ZM116.595 -31.7966L120.582 90.3061L-1.52032 94.2927L-5.50698 -27.81L116.595 -31.7966ZM-9.50485 -27.6795L-5.51819 94.4232L-127.621 98.4099L-131.608 -23.6928L-9.50485 -27.6795ZM-131.738 -27.6907L-9.63538 -31.6773L-13.622 -153.78L-135.725 -149.793L-131.738 -27.6907ZM-5.63751 -31.8079L116.465 -35.7945L112.478 -157.897L-9.62417 -153.911L-5.63751 -31.8079ZM120.463 -35.925L242.565 -39.9117L238.578 -162.014L116.476 -158.028L120.463 -35.925ZM246.563 -40.0422L368.666 -44.0289L364.679 -166.132L242.576 -162.145L246.563 -40.0422ZM372.664 -44.1594L494.766 -48.146L490.779 -170.249L368.677 -166.262L372.664 -44.1594ZM498.764 -48.2766L620.866 -52.2632L616.879 -174.366L494.777 -170.379L498.764 -48.2766ZM624.864 -52.3938L746.966 -56.3804L742.979 -178.483L620.877 -174.496L624.864 -52.3938ZM750.964 -56.5109L873.067 -60.4976L869.08 -182.6L746.977 -178.614L750.964 -56.5109ZM864.963 -308.701L868.95 -186.598L746.847 -182.612L742.86 -304.714L864.963 -308.701ZM738.862 -304.584L742.849 -182.481L620.747 -178.494L616.76 -300.597L738.862 -304.584ZM612.762 -300.467L616.749 -178.364L494.646 -174.377L490.66 -296.48L612.762 -300.467ZM486.662 -296.349L490.649 -174.247L368.546 -170.26L364.56 -292.363L486.662 -296.349ZM360.562 -292.232L364.548 -170.129L242.446 -166.143L238.459 -288.246L360.562 -292.232ZM234.461 -288.115L238.448 -166.012L116.345 -162.026L112.359 -284.128L234.461 -288.115ZM108.361 -283.998L112.347 -161.895L-9.7547 -157.908L-13.7414 -280.011L108.361 -283.998ZM-17.7392 -279.881L-13.7526 -157.778L-135.855 -153.791L-139.842 -275.894L-17.7392 -279.881Z" fill="black"/>
<path fill-rule="evenodd" clip-rule="evenodd" d="M885.222 -325.617L884.621 -344.036L888.619 -344.167L889.22 -325.747L903.641 -326.218L903.772 -322.22L889.35 -321.749L893.337 -199.647L907.759 -200.118L907.889 -196.12L893.468 -195.649L897.454 -73.5461L911.875 -74.0169L912.006 -70.019L897.585 -69.5482L901.572 52.5545L915.993 52.0837L916.123 56.0815L901.702 56.5524L905.689 178.655L920.11 178.184L920.24 182.182L905.819 182.653L909.806 304.754L924.227 304.283L924.358 308.281L909.936 308.752L913.923 430.854L928.344 430.383L928.475 434.381L914.054 434.852L918.04 556.955L932.461 556.484L932.592 560.482L918.171 560.953L922.157 683.054L936.578 682.584L936.709 686.582L922.288 687.052L922.759 701.474L918.761 701.605L918.29 687.183L796.187 691.17L796.658 705.593L792.66 705.723L792.189 691.3L670.087 695.287L670.558 709.709L666.56 709.839L666.089 695.417L543.987 699.404L544.458 713.826L540.46 713.957L539.989 699.534L417.887 703.521L418.358 717.943L414.36 718.074L413.889 703.652L291.786 707.638L292.257 722.061L288.259 722.192L287.788 707.769L165.686 711.755L166.157 726.179L162.159 726.309L161.688 711.886L39.5857 715.873L40.0566 730.295L36.0587 730.425L35.5878 716.003L-86.5149 719.99L-86.044 734.412L-90.0419 734.542L-90.5128 720.12L-108.932 720.722L-109.063 716.724L-90.6433 716.122L-94.6299 594.021L-113.049 594.622L-113.18 590.624L-94.7604 590.023L-98.7471 467.92L-117.166 468.522L-117.297 464.524L-98.8776 463.922L-102.864 341.82L-121.284 342.421L-121.414 338.423L-102.995 337.822L-106.981 215.721L-125.401 216.322L-125.531 212.324L-107.112 211.723L-111.099 89.6203L-129.518 90.2217L-129.648 86.2238L-111.229 85.6225L-115.216 -36.4803L-133.635 -35.8789L-133.766 -39.8767L-115.346 -40.4781L-119.333 -162.581L-137.752 -161.979L-137.882 -165.977L-119.464 -166.579L-123.45 -288.681L-141.869 -288.08L-142 -292.078L-123.581 -292.679L-124.182 -311.098L-120.184 -311.229L-119.583 -292.81L2.51989 -296.797L1.9185 -315.216L5.91637 -315.346L6.51776 -296.927L128.62 -300.914L128.019 -319.332L132.016 -319.462L132.618 -301.044L254.72 -305.031L254.119 -323.449L258.117 -323.58L258.718 -305.161L380.821 -309.148L380.22 -327.567L384.217 -327.698L384.819 -309.279L506.921 -313.265L506.32 -331.684L510.318 -331.815L510.919 -313.396L633.021 -317.382L632.42 -335.802L636.418 -335.932L637.019 -317.513L759.121 -321.5L758.52 -339.918L762.518 -340.048L763.119 -321.63L885.222 -325.617ZM-86.6454 715.992L35.4573 712.005L31.4707 589.903L-90.632 593.89L-86.6454 715.992ZM39.4552 711.875L161.557 707.888L157.571 585.786L35.4685 589.773L39.4552 711.875ZM165.555 707.757L287.658 703.771L283.671 581.669L161.569 585.656L165.555 707.757ZM291.656 703.64L413.758 699.654L409.772 577.552L287.669 581.539L291.656 703.64ZM417.756 699.523L539.858 695.537L535.872 573.435L413.77 577.421L417.756 699.523ZM543.856 695.406L665.959 691.419L661.972 569.318L539.87 573.304L543.856 695.406ZM669.957 691.289L792.059 687.302L788.072 565.2L665.97 569.187L669.957 691.289ZM796.057 687.172L918.159 683.185L914.173 561.083L792.07 565.07L796.057 687.172ZM910.056 434.983L914.042 557.085L791.94 561.072L787.953 438.969L910.056 434.983ZM783.955 439.1L787.942 561.203L665.84 565.189L661.853 443.087L783.955 439.1ZM657.855 443.217L661.842 565.32L539.739 569.306L535.753 447.204L657.855 443.217ZM531.755 447.334L535.741 569.437L413.639 573.424L409.652 451.321L531.755 447.334ZM405.655 451.451L409.641 573.554L287.538 577.541L283.552 455.438L405.655 451.451ZM279.554 455.569L283.541 577.671L161.438 581.658L157.451 459.555L279.554 455.569ZM153.454 459.686L157.44 581.788L35.338 585.775L31.3514 463.672L153.454 459.686ZM27.3535 463.803L31.3401 585.906L-90.7626 589.892L-94.7492 467.79L27.3535 463.803ZM-94.8798 463.792L27.223 459.805L23.2363 337.702L-98.8664 341.689L-94.8798 463.792ZM31.2208 459.675L153.323 455.688L149.336 333.585L27.2342 337.572L31.2208 459.675ZM157.321 455.557L279.423 451.571L275.437 329.468L153.334 333.455L157.321 455.557ZM283.421 451.44L405.524 447.454L401.537 325.351L279.435 329.337L283.421 451.44ZM409.522 447.323L531.624 443.336L527.637 321.234L405.535 325.22L409.522 447.323ZM535.622 443.206L657.724 439.219L653.738 317.116L531.635 321.103L535.622 443.206ZM661.722 439.089L783.825 435.102L779.838 312.999L657.736 316.986L661.722 439.089ZM787.822 434.972L909.925 430.985L905.938 308.882L783.836 312.869L787.822 434.972ZM901.821 182.783L905.808 304.884L783.705 308.871L779.719 186.77L901.821 182.783ZM775.721 186.901L779.707 309.001L657.605 312.988L653.619 190.887L775.721 186.901ZM649.621 191.018L653.607 313.119L531.505 317.105L527.518 195.004L649.621 191.018ZM523.52 195.135L527.507 317.236L405.405 321.222L401.418 199.122L523.52 195.135ZM397.42 199.252L401.407 321.353L279.304 325.34L275.317 203.239L397.42 199.252ZM271.32 203.369L275.306 325.47L153.204 329.457L149.217 207.356L271.32 203.369ZM145.219 207.487L149.206 329.587L27.1036 333.574L23.117 211.473L145.219 207.487ZM19.1192 211.604L23.1058 333.704L-98.997 337.691L-102.984 215.59L19.1192 211.604ZM-103.114 211.592L18.9886 207.606L15.002 85.5031L-107.101 89.4898L-103.114 211.592ZM22.9865 207.475L145.089 203.489L141.102 81.386L18.9999 85.3726L22.9865 207.475ZM149.087 203.358L271.189 199.371L267.202 77.2688L145.1 81.2555L149.087 203.358ZM275.187 199.241L397.29 195.254L393.303 73.1516L271.2 77.1383L275.187 199.241ZM401.288 195.124L523.39 191.137L519.403 69.0344L397.301 73.0211L401.288 195.124ZM527.388 191.007L649.49 187.02L645.503 64.9173L523.401 68.9039L527.388 191.007ZM653.488 186.889L775.59 182.903L771.604 60.8001L649.501 64.7867L653.488 186.889ZM779.588 182.772L901.691 178.786L897.704 56.6829L775.601 60.6696L779.588 182.772ZM893.587 -69.4177L897.574 52.6851L775.471 56.6717L771.484 -65.431L893.587 -69.4177ZM767.486 -65.3005L771.473 56.8022L649.371 60.7889L645.384 -61.3139L767.486 -65.3005ZM641.386 -61.1833L645.373 60.9194L523.27 64.906L519.284 -57.1967L641.386 -61.1833ZM515.286 -57.0661L519.273 65.0366L397.17 69.0232L393.184 -53.0795L515.286 -57.0661ZM389.186 -52.949L393.173 69.1537L271.07 73.1404L267.083 -48.9623L389.186 -52.949ZM263.085 -48.8318L267.072 73.2709L144.969 77.2576L140.983 -44.8451L263.085 -48.8318ZM136.985 -44.7146L140.972 77.3881L18.8693 81.3747L14.8827 -40.728L136.985 -44.7146ZM10.8848 -40.5974L14.8715 81.5053L-107.231 85.4919L-111.218 -36.6108L10.8848 -40.5974ZM-111.348 -40.6087L10.7543 -44.5953L6.76761 -166.698L-115.335 -162.711L-111.348 -40.6087ZM14.7521 -44.7258L136.854 -48.7125L132.868 -170.815L10.7655 -166.829L14.7521 -44.7258ZM140.852 -48.843L262.955 -52.8296L258.968 -174.932L136.866 -170.946L140.852 -48.843ZM266.953 -52.9602L389.055 -56.9468L385.069 -179.05L262.966 -175.063L266.953 -52.9602ZM393.053 -57.0774L515.155 -61.064L511.169 -183.167L389.067 -179.18L393.053 -57.0774ZM519.153 -61.1945L641.256 -65.1812L637.269 -187.284L515.167 -183.297L519.153 -61.1945ZM645.254 -65.3117L767.356 -69.2983L763.369 -191.401L641.267 -187.414L645.254 -65.3117ZM771.354 -69.4289L893.456 -73.4155L889.47 -195.518L767.367 -191.532L771.354 -69.4289ZM885.353 -321.619L889.339 -199.516L767.236 -195.529L763.25 -317.632L885.353 -321.619ZM759.252 -317.502L763.239 -195.399L641.136 -191.412L637.15 -313.515L759.252 -317.502ZM633.152 -313.385L637.139 -191.282L515.036 -187.295L511.049 -309.398L633.152 -313.385ZM507.052 -309.267L511.038 -187.165L388.936 -183.178L384.949 -305.281L507.052 -309.267ZM380.951 -305.15L384.938 -183.047L262.835 -179.061L258.849 -301.164L380.951 -305.15ZM254.851 -301.033L258.837 -178.93L136.735 -174.944L132.748 -297.046L254.851 -301.033ZM128.75 -296.916L132.737 -174.813L10.6349 -170.826L6.64829 -292.929L128.75 -296.916ZM2.65042 -292.799L6.63708 -170.696L-115.466 -166.709L-119.452 -288.812L2.65042 -292.799Z" fill="#91E0FA"/>
</g>
</g>
<defs>
<clipPath id="clip0_147_1601">
<rect width="600" height="300" fill="white"/>
</clipPath>
</defs>
</svg>
