

<?xml version="1.0" encoding="UTF-8" standalone="no"?>
<svg viewBox="0 0 400 400" fill="none" xmlns="http://www.w3.org/2000/svg">
<path d="M91.6308 167.683C92.5437 158.166 95.6093 148.98 100.596 140.822C108.043 128.146 119.489 118.303 133.138 112.839C135.511 111.894 137.983 111.158 140.608 110.378C141.707 110.06 142.806 109.741 143.904 109.4L153.155 108.302H153.671L155.868 108.412C171.052 108.961 183.005 114.575 192.42 125.561C193.025 126.265 193.629 127.034 194.266 127.858L195.288 129.154C195.812 129.81 196.482 130.335 197.246 130.684C198.009 131.034 198.844 131.199 199.683 131.167C200.522 131.135 201.342 130.907 202.077 130.5C202.811 130.093 203.44 129.519 203.912 128.824L204.385 128.121C204.703 127.66 205 127.231 205.274 126.803C213.624 114.037 224.676 105.006 238.135 99.985C240.156 99.2269 242.244 98.6117 244.441 97.9635L247.133 97.1505L256.043 96.0519C256.488 96.1326 256.941 96.1694 257.394 96.1617C262.42 96.0354 267.437 96.6575 272.281 98.0074C285.464 101.798 294.957 109.389 301.439 121.2C303.638 125.218 305.259 129.527 306.251 133.999C306.35 134.405 307.668 138.745 312.843 137.405C318.017 136.064 316.875 132.395 316.776 131.912C315.572 126.412 313.593 121.111 310.898 116.168C307.207 109.269 302.142 103.198 296.017 98.3286C289.891 93.4596 282.834 89.8956 275.28 87.856C269.763 86.2875 264.052 85.507 258.317 85.5378H257.592L257.075 85.439C256.587 85.3674 256.091 85.3674 255.603 85.439L245.386 86.6475C245.058 86.6805 244.734 86.7468 244.419 86.8452C243.419 87.1638 242.409 87.4605 241.398 87.7571C239.113 88.4383 236.751 89.1414 234.377 90.0203C220.2 95.3185 207.918 104.71 199.089 117.003C187.971 104.918 173.579 98.403 156.242 97.7767C155.561 97.7767 154.88 97.7108 154.21 97.6779H153.199C152.899 97.6504 152.598 97.6504 152.298 97.6779L142.081 98.8864C141.744 98.9257 141.413 98.9993 141.092 99.1061C139.905 99.4796 138.719 99.8312 137.521 100.205C134.786 101.018 131.94 101.853 129.117 102.984C113.305 109.299 100.035 120.683 91.3891 135.35C85.6231 144.792 82.0594 155.411 80.963 166.42C80.8971 166.596 80.8641 172.375 85.9618 172.451C87.3387 172.539 88.6963 172.092 89.7522 171.204C90.8081 170.316 91.4809 169.055 91.6308 167.683V167.683Z" fill="#E9E2CF"/>
<path d="M256.801 235.711C256.109 236.436 252.297 240.644 251.001 241.974L244.826 248.335C229.841 263.804 212.735 282.568 199.134 304.75C190.98 293.972 181.646 284.14 171.305 275.438C164.966 270.165 158.473 264.957 152.068 259.848L147.937 256.553C147.937 256.553 143.784 253.828 140.851 257.179C139.977 258.11 139.449 259.313 139.355 260.587C139.261 261.86 139.607 263.128 140.334 264.177C148.321 270.516 156.528 277.053 164.449 283.645C174.63 292.223 183.774 301.961 191.696 312.66C192.547 313.798 193.653 314.719 194.927 315.349C196.2 315.978 197.603 316.3 199.024 316.286C200.764 316.266 202.47 315.802 203.979 314.936C205.489 314.071 206.752 312.833 207.648 311.342C220.832 289.6 237.718 271.044 252.528 255.762C254.571 253.641 256.637 251.532 258.691 249.411C261.624 246.39 263.932 244.017 266.909 240.93C268.172 238.963 267.458 236.107 264.986 234.415C261.811 232.284 258.318 234.206 256.801 235.711Z" fill="#E9E2CF"/>
<path d="M33.0955 257.915V200.049C33.1303 198.9 33.4975 197.784 34.1526 196.839C34.8077 195.893 35.7227 195.158 36.7869 194.721C37.7389 194.25 38.8376 194.17 39.8479 194.498C40.8581 194.827 41.6996 195.538 42.1922 196.479C42.1922 196.479 49.3114 210.124 53.9697 219.1C58.562 208.531 65.5604 192.458 65.5604 192.458C65.9935 191.383 66.7391 190.463 67.7008 189.817C68.6625 189.17 69.796 188.827 70.9547 188.832C71.9902 188.87 72.9692 189.314 73.6789 190.069C74.3886 190.824 74.7717 191.828 74.745 192.864V250.73C74.6965 252.07 74.1972 253.354 73.3278 254.375C72.4585 255.396 71.2701 256.093 69.9549 256.355C69.3675 256.497 68.755 256.501 68.166 256.365C67.5769 256.23 67.0276 255.959 66.5616 255.574C66.0956 255.189 65.7258 254.7 65.4814 254.147C65.237 253.595 65.1249 252.992 65.1539 252.389V215.969C61.7591 223.659 58.2654 231.635 58.2654 231.635C57.883 232.525 57.2936 233.31 56.5464 233.925C55.7992 234.54 54.9157 234.968 53.9697 235.173C53.1145 235.359 52.2222 235.259 51.4288 234.89C50.6353 234.521 49.9843 233.903 49.5751 233.13C49.5751 233.13 46.0704 226.351 42.7745 219.847V256.256C42.728 257.597 42.2293 258.882 41.3597 259.903C40.49 260.924 39.3005 261.621 37.9844 261.881C37.3912 262.04 36.7688 262.056 36.1682 261.928C35.5675 261.8 35.0058 261.531 34.5288 261.144C34.0519 260.757 33.6734 260.263 33.4243 259.702C33.1751 259.14 33.0625 258.528 33.0955 257.915V257.915Z" fill="#E9E2CF"/>
<path d="M83.8857 237.173V203.213C83.8857 193.93 91.3785 185.152 100.673 183.548C109.968 181.944 117.46 188.129 117.46 197.402V231.328C117.46 240.611 109.968 249.389 100.673 250.993C91.3785 252.597 83.8857 246.445 83.8857 237.173ZM93.5208 201.588V235.514C93.4871 236.415 93.6618 237.313 94.0313 238.136C94.4009 238.959 94.9553 239.686 95.6515 240.26C96.3477 240.834 97.167 241.239 98.0455 241.445C98.9241 241.651 99.8382 241.651 100.717 241.446C102.696 241.07 104.488 240.03 105.796 238.498C107.104 236.966 107.851 235.033 107.913 233.02V199.094C107.947 198.192 107.772 197.295 107.403 196.471C107.033 195.648 106.479 194.921 105.782 194.347C105.086 193.773 104.267 193.368 103.388 193.162C102.51 192.956 101.596 192.956 100.717 193.161C98.7387 193.539 96.9482 194.58 95.6403 196.111C94.3323 197.643 93.5848 199.574 93.5208 201.588Z" fill="#E9E2CF"/>
<path d="M126.655 241.743V183.877C126.69 182.728 127.057 181.612 127.713 180.667C128.368 179.721 129.283 178.986 130.347 178.549C131.297 178.078 132.394 177.998 133.403 178.327C134.411 178.656 135.251 179.366 135.741 180.307C135.741 180.307 142.838 193.952 147.431 202.928C152.034 192.359 159.021 176.286 159.021 176.286C159.455 175.211 160.2 174.291 161.162 173.645C162.124 172.998 163.257 172.655 164.416 172.66C165.453 172.695 166.435 173.138 167.147 173.893C167.859 174.648 168.244 175.655 168.217 176.692V234.558C168.169 235.898 167.669 237.182 166.8 238.203C165.931 239.224 164.742 239.921 163.427 240.183C162.84 240.325 162.227 240.329 161.638 240.193C161.049 240.058 160.5 239.786 160.034 239.402C159.568 239.017 159.198 238.528 158.953 237.975C158.709 237.423 158.597 236.82 158.626 236.217V199.797C155.231 207.487 151.726 215.463 151.726 215.463C151.347 216.355 150.759 217.141 150.011 217.757C149.263 218.373 148.378 218.8 147.431 219.001C146.576 219.186 145.683 219.087 144.89 218.718C144.096 218.349 143.445 217.731 143.036 216.957C143.036 216.957 139.543 210.179 136.247 203.675V240.084C136.199 241.426 135.699 242.713 134.827 243.734C133.956 244.756 132.764 245.452 131.446 245.709C130.859 245.852 130.246 245.856 129.658 245.72C129.069 245.584 128.521 245.313 128.055 244.928C127.59 244.543 127.221 244.054 126.978 243.501C126.735 242.948 126.625 242.346 126.655 241.743Z" fill="#E9E2CF"/>
<path d="M183.412 169.672L203.385 166.222C203.971 166.087 204.58 166.089 205.165 166.226C205.75 166.364 206.296 166.635 206.76 167.017C207.224 167.399 207.594 167.883 207.841 168.431C208.088 168.979 208.206 169.576 208.186 170.177C208.145 171.515 207.645 172.798 206.771 173.812C205.897 174.826 204.702 175.509 203.385 175.747L188.202 178.373V196.336L201.385 194.062C201.971 193.927 202.58 193.928 203.166 194.066C203.751 194.204 204.296 194.474 204.76 194.856C205.224 195.239 205.594 195.723 205.842 196.271C206.089 196.819 206.207 197.416 206.187 198.017C206.155 199.362 205.66 200.656 204.785 201.679C203.911 202.701 202.71 203.391 201.385 203.631L188.202 205.916V225.867L203.385 223.286C203.972 223.153 204.581 223.156 205.166 223.295C205.751 223.434 206.296 223.706 206.76 224.089C207.224 224.472 207.593 224.956 207.841 225.505C208.088 226.053 208.206 226.651 208.186 227.252C208.157 228.599 207.663 229.895 206.788 230.92C205.913 231.945 204.711 232.636 203.385 232.877L183.412 236.338C182.825 236.471 182.216 236.467 181.631 236.328C181.046 236.189 180.5 235.917 180.037 235.534C179.573 235.151 179.203 234.667 178.956 234.119C178.709 233.57 178.591 232.973 178.611 232.371V175.286C178.675 173.95 179.182 172.674 180.051 171.658C180.92 170.642 182.102 169.943 183.412 169.672V169.672Z" fill="#E9E2CF"/>
<path d="M215.383 226.01V168.529C215.43 167.19 215.929 165.906 216.799 164.887C217.669 163.867 218.858 163.173 220.173 162.915C220.758 162.789 221.364 162.797 221.945 162.938C222.527 163.08 223.069 163.351 223.53 163.731C223.992 164.112 224.362 164.592 224.612 165.135C224.862 165.679 224.986 166.272 224.974 166.87V219.605L240.157 216.979C240.742 216.853 241.348 216.861 241.93 217.003C242.511 217.144 243.053 217.415 243.515 217.795C243.977 218.176 244.346 218.656 244.596 219.2C244.846 219.743 244.97 220.336 244.958 220.935C244.909 222.276 244.408 223.562 243.537 224.583C242.665 225.604 241.474 226.3 240.157 226.56L220.173 230.009C219.583 230.153 218.968 230.157 218.377 230.019C217.785 229.882 217.235 229.608 216.769 229.219C216.303 228.83 215.935 228.337 215.694 227.779C215.453 227.222 215.347 226.616 215.383 226.01V226.01Z" fill="#E9E2CF"/>
<path d="M248.957 208.63V174.704C248.957 165.42 256.45 156.642 265.744 155.038C275.039 153.434 282.488 159.619 282.488 168.892V202.818C282.488 212.102 274.984 220.88 265.7 222.484C256.417 224.088 248.957 217.902 248.957 208.63ZM258.548 173.045V206.971C258.514 207.873 258.689 208.77 259.059 209.593C259.428 210.416 259.983 211.143 260.679 211.717C261.375 212.291 262.194 212.697 263.073 212.902C263.951 213.108 264.866 213.109 265.744 212.904C267.721 212.525 269.51 211.484 270.817 209.952C272.123 208.42 272.868 206.489 272.929 204.477V170.551C272.965 169.65 272.792 168.752 272.424 167.929C272.055 167.106 271.502 166.379 270.807 165.805C270.111 165.23 269.292 164.824 268.414 164.619C267.536 164.413 266.622 164.413 265.744 164.618C263.766 164.997 261.976 166.037 260.668 167.569C259.36 169.1 258.612 171.032 258.548 173.045V173.045Z" fill="#E9E2CF"/>
<path d="M287.321 157.389C287.038 156.084 287.222 154.72 287.843 153.537C288.463 152.354 289.481 151.427 290.716 150.918C293.221 149.819 295.913 150.819 296.616 153.192C296.616 153.192 303.306 176.264 308.009 192.425C312.601 174.649 319.292 149.27 319.292 149.27C319.647 147.992 320.422 146.871 321.492 146.087C322.563 145.304 323.866 144.904 325.191 144.952C327.784 145.205 329.289 147.534 328.586 150.259L312.601 210.904C312.305 211.972 311.72 212.938 310.909 213.694C310.099 214.45 309.095 214.967 308.009 215.189C307.031 215.423 306.001 215.277 305.127 214.779C304.254 214.281 303.603 213.469 303.306 212.508L287.321 157.389Z" fill="#E9E2CF"/>
<path d="M340.275 142.546L360.26 139.086C360.846 138.953 361.455 138.956 362.041 139.095C362.626 139.234 363.171 139.506 363.635 139.889C364.098 140.272 364.468 140.756 364.715 141.305C364.962 141.853 365.081 142.451 365.061 143.052C365.029 144.397 364.534 145.691 363.66 146.713C362.785 147.736 361.584 148.426 360.26 148.666L345.109 151.292V169.254L358.293 166.958C358.879 166.823 359.488 166.825 360.073 166.962C360.658 167.1 361.204 167.371 361.668 167.753C362.132 168.135 362.502 168.619 362.749 169.167C362.997 169.715 363.115 170.313 363.094 170.913C363.063 172.259 362.568 173.552 361.693 174.575C360.818 175.598 359.617 176.288 358.293 176.527L345.109 178.813V198.819L360.293 196.193C360.879 196.06 361.488 196.063 362.073 196.203C362.659 196.342 363.204 196.614 363.668 196.997C364.131 197.38 364.501 197.864 364.748 198.412C364.995 198.96 365.114 199.558 365.094 200.159C365.062 201.505 364.567 202.798 363.692 203.821C362.818 204.844 361.617 205.533 360.293 205.773L340.308 209.234C339.722 209.367 339.113 209.364 338.529 209.225C337.944 209.086 337.399 208.814 336.936 208.431C336.474 208.047 336.105 207.563 335.859 207.015C335.613 206.466 335.496 205.869 335.518 205.268V148.139C335.585 146.813 336.088 145.546 336.948 144.535C337.808 143.524 338.978 142.825 340.275 142.546V142.546Z" fill="#E9E2CF"/>
</svg>