<svg width="64" height="62" viewBox="0 0 64 62" fill="none" xmlns="http://www.w3.org/2000/svg">
<rect x="0.3" y="0.3" width="63.3999" height="60.6765" rx="4.7" fill="white" fill-opacity="0.07" stroke="url(#paint0_linear_1480_20444)" stroke-width="0.6"/>
<path opacity="0.5" fill-rule="evenodd" clip-rule="evenodd" d="M49.0214 18.4899C49.0214 17.3026 48.2625 16.3398 47.3098 16.3398H16.6905C15.7452 16.3398 14.979 17.2942 14.979 18.4899C14.979 19.6772 15.7378 20.6399 16.6905 20.6399H47.3098C48.2551 20.6399 49.0214 19.6856 49.0214 18.4899ZM21.7875 29.9568C21.7875 31.1442 22.5443 32.1069 23.4911 32.1069H47.3175C48.2585 32.1069 49.0211 31.1525 49.0211 29.9568C49.0211 28.7695 48.2643 27.8068 47.3175 27.8068H23.4911C22.5501 27.8068 21.7875 28.7612 21.7875 29.9568ZM28.5959 41.4238C28.5959 42.6111 29.3472 43.5738 30.3023 43.5738H47.3151C48.2576 43.5738 49.0215 42.6195 49.0215 41.4238C49.0215 40.2365 48.2702 39.2737 47.3151 39.2737H30.3023C29.3598 39.2737 28.5959 40.2281 28.5959 41.4238Z" fill="white"/>
<defs>
<linearGradient id="paint0_linear_1480_20444" x1="-8.55024e-06" y1="-50.3829" x2="123.924" y2="5.99314" gradientUnits="userSpaceOnUse">
<stop stop-color="#FCE986"/>
<stop offset="0.577873" stop-color="#FCE986" stop-opacity="0"/>
</linearGradient>
</defs>
</svg>
